<svg xmlns="http://www.w3.org/2000/svg" id="Camada_1" data-name="Camada 1" viewBox="0 0 24 24" class="text-white" width="24" height="24" role="img">

  <path d="M15.2,11.25l-4.74-2.46c-.23-.12-.5-.11-.71.02-.22.13-.35.37-.35.62v4.94c0,.25.13.49.35.62.12.07.25.11.38.11.12,0,.23-.03.34-.08l4.74-2.48c.24-.13.39-.37.39-.65,0-.27-.15-.52-.39-.65Z"></path>
  <path d="M15.2,11.25l-4.74-2.46c-.23-.12-.5-.11-.71.02-.22.13-.35.37-.35.62v4.94c0,.25.13.49.35.62.12.07.25.11.38.11.12,0,.23-.03.34-.08l4.74-2.48c.24-.13.39-.37.39-.65,0-.27-.15-.52-.39-.65Z"></path>
  <g>
    <path fill="#fff" d="M22.41,5.42c-.82-.97-2.32-1.36-5.19-1.36H6.78c-2.94,0-4.47.42-5.28,1.45-.79,1.01-.79,2.49-.79,4.54v3.91c0,3.97.94,5.99,6.07,5.99h10.43c2.49,0,3.87-.35,4.77-1.2.92-.88,1.31-2.31,1.31-4.79v-3.91c0-2.16-.06-3.65-.88-4.63ZM15.21,12.54l-4.74,2.48c-.11.06-.22.08-.34.08-.13,0-.26-.04-.38-.11-.22-.13-.35-.37-.35-.62v-4.94c0-.25.13-.49.35-.62.22-.13.49-.14.71-.02l4.74,2.46c.24.13.39.37.39.65,0,.27-.15.52-.39.65Z"></path>
    <path d="M15.2,11.25l-4.74-2.46c-.23-.12-.5-.11-.71.02-.22.13-.35.37-.35.62v4.94c0,.25.13.49.35.62.12.07.25.11.38.11.12,0,.23-.03.34-.08l4.74-2.48c.24-.13.39-.37.39-.65,0-.27-.15-.52-.39-.65Z"></path>
  </g>
<title>heroicons/solid/youtube</title></svg>