<svg xmlns="http://www.w3.org/2000/svg" id="Layer_1" version="1.1" viewBox="0 0 100 70" width="24" height="24" role="img">
  <!-- Generator: Adobe Illustrator 29.3.1, SVG Export Plug-In . SVG Version: 2.1.0 Build 151)  -->
  <defs>
    <style>
      .st0 {
        fill: #ae9164;
      }
    </style>
  </defs>
  <path class="st0" d="M66.3,44.4l-.6-.6c-1.5-1.5-3.6-1.6-5-.3-1,.9-2.5,2.4-3.6,3.5l-.4.4-1.3,1.3c-.7.6-1.2.6-2,0-2.1-1.4-4.1-2.7-5.9-4.3-1.5-1.3-2.9-2.7-4.1-4-1.2-1.2-2.6-2.6-4-4.1-1.6-1.8-3-3.8-4.3-5.9-.5-.7-.5-1.3,0-1.9.3-.3.7-.7,1.1-1.1l.5-.5h0l.5-.5c1.2-1.1,2.3-2.3,3.1-3.2,1.3-1.4,1.1-3.6-.3-5l-.3-.3c-3.4-3.4-6.9-6.9-10.3-10.3-1-1-1.9-1.4-3-1.5-1,0-2,.5-3,1.5-1.2,1.2-3.4,3.5-4.7,4.7h0c-1.8,2.1-2.2,4.6-2.4,6.3-.5,4.9.6,9.6,3.5,15.4,1.8,3.6,4.3,7.2,7.7,11.2,1.6,1.9,3.3,3.8,5.3,5.7,2,2,3.8,3.7,5.7,5.3,4,3.4,7.6,5.9,11.2,7.7,4.9,2.5,9.2,3.6,13.2,3.6s1.5,0,2.1,0c1.7-.2,4.1-.6,6.3-2.4h0c1.2-1.3,3.5-3.5,4.7-4.7,1-1,1.5-2,1.5-3s-.5-2-1.5-3c-3.3-3.3-6.7-6.7-10-10h.3ZM33,26.6c-1.5,1.7-1.6,3.6-.4,5.5h0c1.5,2.3,2.9,4.4,4.6,6.3,1.4,1.6,3,3.1,4.1,4.2,1.2,1.3,2.7,2.7,4.2,4.1,1.9,1.7,3.8,3,6.3,4.6,1.9,1.2,3.9,1.1,5.6-.4l1.7-1.7.5-.5,3.1-3.1c.2-.2.7,0,1,.2l.6.6c3.3,3.3,6.7,6.7,10,10,.4.4.6.7.6.9s0,.3-.7.9c-1.2,1.2-3.4,3.4-4.7,4.6-1.2,1-2.6,1.5-4.6,1.7-4.3.4-8.5-.6-13.8-3.2-3.4-1.7-6.8-4-10.6-7.3-1.9-1.6-3.7-3.3-5.5-5.1s-3.5-3.6-5.1-5.5c-3.3-3.9-5.6-7.2-7.3-10.7-2.6-5.3-3.6-9.5-3.2-13.8.2-2,.7-3.4,1.7-4.6,1.3-1.3,3.5-3.5,4.6-4.7.6-.6.9-.6.9-.7.1,0,.4.2.9.6l10.3,10.3.3.3c.3.3.5.7.2,1-.8.9-2.1,2.1-3.2,3.2l-.2.2c-.7.7-1.3,1.3-1.9,1.9v.2ZM71.4,64.9h0Z"></path>
  <path class="st0" d="M50.1,23.5c6.7,0,12.1,5.4,12.1,12.1s.6,1.4,1.4,1.4,1.4-.6,1.4-1.4c0-8.2-6.7-14.9-14.9-14.9s-1.4.6-1.4,1.4.6,1.4,1.4,1.4Z"></path>
  <path class="st0" d="M50.1,13.9c12,0,21.7,9.7,21.7,21.7s.6,1.4,1.4,1.4,1.4-.6,1.4-1.4c0-13.5-11-24.5-24.5-24.5s-1.4.6-1.4,1.4.6,1.4,1.4,1.4Z"></path>
  <path class="st0" d="M82.8,37c.8,0,1.4-.6,1.4-1.4,0-18.8-15.3-34-34-34s-1.4.6-1.4,1.4.6,1.4,1.4,1.4c17.2,0,31.2,14,31.2,31.2s.6,1.4,1.4,1.4Z"></path>
<title>heroicons/outline/icon-telephone</title></svg>