<svg xmlns="http://www.w3.org/2000/svg" id="Camada_1" data-name="Camada 1" viewBox="0 0 24 24" class="text-white" width="16" height="16" role="img">
    <path fill="#fff" d="M18.37.5H5.63C2.8.5.5,2.8.5,5.63v12.73c0,2.83,2.3,5.13,5.13,5.13h12.73c2.83,0,5.13-2.3,5.13-5.13V5.63c0-2.83-2.3-5.13-5.13-5.13ZM12,19.45c-4.11,0-7.45-3.34-7.45-7.45s3.34-7.45,7.45-7.45,7.45,3.34,7.45,7.45-3.34,7.45-7.45,7.45ZM19.61,5.9c-.87,0-1.58-.7-1.58-1.57s.71-1.58,1.58-1.58,1.58.71,1.58,1.58-.71,1.57-1.58,1.57Z"></path>
    <circle fill="none" cx="12" cy="12" r="7.5"></circle>
    <path fill="none" d="M19.61,2.75c-.87,0-1.58.71-1.58,1.58s.71,1.57,1.58,1.57,1.58-.7,1.58-1.57-.71-1.58-1.58-1.58Z"></path>
    <path fill="none" d="M12,4.55c-4.11,0-7.45,3.34-7.45,7.45s3.34,7.45,7.45,7.45,7.45-3.34,7.45-7.45-3.34-7.45-7.45-7.45ZM12,16.22c-2.33,0-4.22-1.9-4.22-4.22s1.89-4.22,4.22-4.22,4.22,1.89,4.22,4.22-1.9,4.22-4.22,4.22Z"></path>
    <path fill="#fff" d="M12,7.78c-2.33,0-4.22,1.89-4.22,4.22s1.89,4.22,4.22,4.22,4.22-1.9,4.22-4.22-1.9-4.22-4.22-4.22Z"></path>
<title>heroicons/solid/instagram</title></svg>