<svg xmlns="http://www.w3.org/2000/svg" id="Layer_1" version="1.1" viewBox="0 0 100 70" width="24" height="24" role="img">
  <!-- Generator: Adobe Illustrator 29.3.1, SVG Export Plug-In . SVG Version: 2.1.0 Build 151)  -->
  <defs>
    <style>
      .st0 {
        stroke: #fff;
        stroke-miterlimit: 10;
        stroke-width: .4px;
      }

      .st0, .st1 {
        fill: #ae9164;
      }
    </style>
  </defs>
  <polygon class="st0" points="49.9 60.6 49.9 60.6 49.9 60.6 49.9 60.6"></polygon>
  <path class="st1" d="M35.5,61.2c4.4,2.4,9.3,3.6,14.3,3.6,16.5,0,30-13.4,30-30s-3.1-15.5-8.8-21.2c-5.7-5.7-13.2-8.8-21.2-8.8-16.5,0-30,13.4-30,30s1.4,10.4,4,15l.2.4-4.1,14.8,15.1-4,.3.2h.2ZM27.3,49c-2.7-4.2-4.1-9.2-4.1-14.2,0-14.7,12-26.7,26.7-26.7s13.8,2.8,18.9,7.8c5,5,7.8,11.7,7.8,18.9,0,14.7-12,26.7-26.7,26.7h0c-4.8,0-9.5-1.3-13.6-3.7l-.6-.3-11,2.9,2.9-10.7-.4-.6h0Z"></path>
  <path class="st1" d="M42.1,24.4l-.9-2.1c-.3-.7-.4-.7-.7-.7h-1.6c-.4,0-.8,0-1.3.7l-.2.2c-.7.8-2.3,2.4-2.3,5.6s2.3,6.5,3,7.4l.2.2c2.1,3,6.6,8.5,12.7,11.1,1.7.8,3.1,1.2,4.3,1.6,1.8.6,3.4.4,4.4.3,1.3-.2,4-1.7,4.5-3,.5-1.5.5-2.6.5-2.9l-.4-.2-.6-.3c-1-.5-4.6-2.2-5.2-2.5-.2,0-.4-.2-.5,0v.2c-.7.9-2.3,2.7-2.6,3.1-1.1,1.3-2.4.6-2.8.4,0,0-.3,0-.5-.2-1.1-.5-3.4-1.5-6-3.8-2.3-2.1-3.9-4.6-4.5-5.6-.8-1.4,0-2.4.5-2.7.2-.2.4-.5.6-.7l.5-.6c.2-.3.4-.5.5-.9v-.2c.2,0,.2-.2,0-.5,0-.3-.7-1.6-1.6-3.7h0Z"></path>
<title>heroicons/outline/icon-whatsapp</title></svg>