<svg xmlns="http://www.w3.org/2000/svg" id="Layer_1" version="1.1" viewBox="0 0 100 70" width="24" height="24" role="img">
  <!-- Generator: Adobe Illustrator 29.3.1, SVG Export Plug-In . SVG Version: 2.1.0 Build 151)  -->
  <defs>
    <style>
      .st0 {
        fill: #ae9164;
        fill-rule: evenodd;
      }
    </style>
  </defs>
  <path class="st0" d="M39.1,8.6h40.9c1.8,0,3.5.8,4.7,2s2,2.9,2,4.7v39.5c0,1.8-.8,3.5-2,4.7h0c-1.2,1.2-2.9,2-4.7,2H20c-1.8,0-3.5-.8-4.7-2h0c-1.2-1.2-1.9-2.8-1.9-4.6V15.3c0-1.8.8-3.5,2-4.7h0c1.2-1.2,2.9-2,4.7-2h19.1-.1ZM82.5,57.4l-23.7-20.4-3.5,3c-1.4,1.2-3.3,1.9-5.2,1.9s-3.8-.6-5.2-1.8l-3.6-3.1-23.7,20.4c.6.6,1.5,1,2.5,1h60.1c1,0,1.8-.4,2.5-1h-.2ZM16.3,54.3l22.5-19.3L16.3,15.7v38.7h0ZM17.5,12.6l24.7,21.2h0l4.6,3.9c.9.7,2,1.1,3.2,1.1s2.4-.4,3.2-1.1l4.5-3.9h0l24.7-21.2c-.6-.6-1.5-1-2.5-1H19.9c-1,0-1.8.4-2.5,1h.1ZM83.7,15.7l-22.5,19.3,22.5,19.3V15.7Z"></path>
<title>heroicons/outline/icon-email</title></svg>