<svg width="150" height="37" viewBox="0 0 150 37" fill="none" xmlns="http://www.w3.org/2000/svg">
<path fill-rule="evenodd" clip-rule="evenodd" d="M88.4381 17.22C90.6586 17.22 91.5009 16.6067 91.8071 15.9167C92.0119 15.5749 92.095 15.2332 92.1649 14.9457C92.1734 14.9108 92.1817 14.8766 92.19 14.8433C92.2068 14.7929 92.2199 14.7462 92.2317 14.7039C92.2739 14.5535 92.3001 14.46 92.4197 14.46C92.5728 14.46 92.6494 14.6133 92.6494 15.15C92.6494 15.9167 92.3431 17.3733 92.19 17.9867C92.1134 18.37 91.9603 18.6 91.5774 18.6C89.8649 18.6 88.1524 18.5653 86.3574 18.5289H86.3574H86.3573H86.3572H86.3571H86.3571H86.357H86.3569C84.3799 18.4888 82.3028 18.4467 80.0154 18.4467C79.7857 18.4467 79.6326 18.37 79.6326 18.2167C79.6326 18.0633 79.7091 17.91 79.9389 17.5267C83.0016 12.4667 86.141 7.25332 89.0506 2.34666H84.8393C83.7673 2.34666 82.3891 2.42332 81.7 2.80666C81.0108 3.18999 80.628 4.10999 80.5514 4.56999C80.4748 4.87666 80.3983 4.95332 80.3217 4.95332C80.1686 4.95332 80.1686 4.79999 80.1686 4.56999C80.1686 4.03332 80.4748 1.96332 80.628 1.27332C80.7045 0.966657 80.7811 0.813324 80.8577 0.813324C80.9486 0.813324 81.0155 0.837326 81.0964 0.866338C81.2199 0.910653 81.376 0.966657 81.7 0.966657C83.7673 1.04332 84.7627 1.04332 85.6816 1.04332H92.2666C92.4963 1.04332 92.6494 1.11999 92.6494 1.19666C92.6494 1.34999 92.5728 1.50332 92.4963 1.65666C90.5852 4.94401 88.5486 8.29416 86.5472 11.5865C85.4212 13.4387 84.3064 15.2725 83.2313 17.0667H88.4381V17.22ZM10.6432 11.3933C10.7198 11.47 10.6432 11.5467 10.5666 11.5467H6.43185C6.35528 11.5467 6.35528 11.47 6.35528 11.3933L8.42266 5.79667C8.44508 5.75178 8.46093 5.71347 8.47406 5.68172L8.47408 5.68169L8.47409 5.68167C8.5058 5.605 8.52166 5.56667 8.5758 5.56667C8.5758 5.56667 8.65237 5.72 8.65237 5.79667L10.6432 11.3933ZM5.74273 12.85C5.8193 12.7733 5.89587 12.6967 5.97243 12.6967V12.4667H10.9495C11.0616 12.4667 11.0916 12.5078 11.1297 12.5598C11.1436 12.5789 11.1587 12.5995 11.1792 12.62L12.9403 17.45C13.0168 17.7567 12.8637 17.91 12.7106 17.9867C12.6792 17.9971 12.6507 18.0062 12.6248 18.0144L12.6248 18.0144C12.4614 18.0662 12.4043 18.0843 12.4043 18.2167C12.4043 18.37 12.7106 18.37 13.0934 18.37C14.8545 18.4467 16.539 18.4467 17.3047 18.4467C18.0704 18.4467 18.3002 18.37 18.3002 18.2167C18.3002 18.0633 18.147 18.0633 17.9939 18.0633C17.7642 18.0633 17.3813 18.0633 17.075 17.9867C16.6156 17.91 15.9265 17.6033 15.0842 15.5333C14.5241 14.1314 13.5974 11.7672 12.6585 9.37208L12.6585 9.37204L12.658 9.37087L12.658 9.37075L12.6577 9.36997C11.2863 5.87177 9.88933 2.30804 9.57121 1.58C9.54067 1.51884 9.51283 1.46174 9.48698 1.40871L9.4869 1.40855L9.48669 1.40811L9.48649 1.40769L9.4864 1.4075L9.48639 1.4075L9.48639 1.40749C9.31823 1.06249 9.23415 0.889999 9.03522 0.889999C8.80551 0.889999 8.65237 1.12 8.42266 1.81L2.83308 16.07C2.37366 17.22 1.91424 17.9867 0.918836 18.14C0.765697 18.2167 0.459418 18.2167 0.229709 18.2167C0.0765697 18.2167 0 18.2167 0 18.37C0 18.5233 0.153139 18.6 0.459418 18.6C1.25304 18.6 2.08323 18.5634 2.59631 18.5408C2.82577 18.5307 2.9918 18.5233 3.06279 18.5233C3.40725 18.5233 3.82825 18.5425 4.24927 18.5617L4.24933 18.5617H4.24939H4.24943H4.24946L4.24962 18.5617C4.67075 18.5808 5.09188 18.6 5.43645 18.6C5.66616 18.6 5.8193 18.5233 5.8193 18.37C5.8193 18.2933 5.8193 18.2167 5.51302 18.2167H5.20674C4.51761 18.2167 4.2879 17.91 4.2879 17.5267C4.2879 17.22 4.36447 16.6833 4.59418 16.1467L5.74273 12.85ZM23.9663 16.76C23.5069 16.3767 23.5069 14.7667 23.5069 11.7767H23.5834V7.71334C23.5834 4.18667 23.5834 3.57334 23.66 2.80667C23.66 2.04001 23.8897 1.58001 24.5023 1.50334C24.8086 1.42667 25.1914 1.42667 25.4211 1.42667C25.6508 1.42667 25.804 1.35001 25.804 1.19667C25.804 1.04334 25.6508 0.966675 25.3445 0.966675C24.8236 0.966675 24.0319 0.99132 23.3462 1.01266C22.8225 1.02897 22.3607 1.04334 22.1286 1.04334C21.8649 1.04334 21.4309 1.02913 20.9366 1.01295C20.2827 0.99154 19.5232 0.966675 18.9127 0.966675C18.5298 0.966675 18.3767 1.04334 18.3767 1.19667C18.3767 1.35001 18.5298 1.42667 18.7596 1.42667C19.0658 1.42667 19.3721 1.42667 19.5253 1.50334C20.291 1.65667 20.4441 2.04001 20.5207 2.80667C20.5972 3.49667 20.5972 4.18667 20.5972 7.71334V11.7767C20.5972 13.9233 20.5972 15.7633 20.4441 16.76C20.3675 17.45 20.2144 17.9867 19.755 18.0633C19.6547 18.0633 19.5544 18.0779 19.4414 18.0944C19.2955 18.1157 19.1284 18.14 18.9127 18.14C18.6064 18.14 18.5298 18.14 18.5298 18.2933C18.5298 18.4467 18.683 18.5233 18.9893 18.5233C19.2101 18.5233 19.4664 18.5056 19.7325 18.4872L19.7326 18.4872C20.02 18.4673 20.3189 18.4467 20.5972 18.4467H21.8989C22.8178 18.4467 23.66 18.4467 24.732 18.5233C25.2076 18.5233 25.7134 18.5384 26.2761 18.5552L26.2763 18.5552C26.9817 18.5763 27.7766 18.6 28.7136 18.6C29.9387 18.6 30.0153 18.5233 30.1684 17.9867C30.3981 17.2967 30.5513 15.5333 30.5513 15.3033C30.5513 15.0733 30.5513 14.92 30.3981 14.92C30.245 14.92 30.1684 15.0733 30.1684 15.3033C30.0919 15.7633 29.8622 16.3767 29.5559 16.6833C28.9433 17.2967 28.0245 17.2967 26.7994 17.2967C24.9617 17.2967 24.3491 17.1433 23.9663 16.76ZM52.5267 8.40333C52.6033 8.40333 52.6799 8.32667 52.6799 8.25V7.79C52.6799 4.26333 52.6799 3.57333 52.6033 2.88333C52.5267 2.11667 52.3736 1.73333 51.6079 1.58C51.4547 1.50333 50.9953 1.50333 50.689 1.50333C50.4593 1.50333 50.3062 1.42667 50.3062 1.27333C50.3062 1.12 50.5359 0.966666 50.8422 0.966666C51.5598 0.966666 52.3826 0.992974 53.0642 1.01477C53.5461 1.03018 53.9575 1.04333 54.2113 1.04333C54.4433 1.04333 54.8477 1.02896 55.3063 1.01265C55.9067 0.991311 56.5999 0.966666 57.1209 0.966666C57.4272 0.966666 57.5803 1.04333 57.5803 1.19667C57.5803 1.35 57.4272 1.42667 57.1975 1.42667C57.0443 1.42667 56.8146 1.42667 56.5083 1.50333C55.8958 1.65667 55.6661 2.04 55.6661 2.80667C55.5895 3.57329 55.5895 4.1866 55.5895 7.71281V7.71333V11.8533V11.8535C55.5895 14.0001 55.5895 15.84 55.7426 16.8367C55.8192 17.5267 55.9724 17.9867 56.6615 18.0633C56.9678 18.14 57.5037 18.14 57.81 18.14C58.0397 18.14 58.1929 18.2167 58.1929 18.2933C58.1929 18.4467 58.0397 18.5233 57.7335 18.5233C56.7954 18.5233 55.886 18.4946 55.1814 18.4723C54.7357 18.4582 54.372 18.4467 54.1347 18.4467C53.5987 18.5233 52.0673 18.6 51.225 18.6C50.9188 18.6 50.7656 18.5233 50.7656 18.37C50.7656 18.2167 50.8422 18.2167 51.1485 18.2167C51.3642 18.2167 51.5313 18.1923 51.6772 18.1711C51.7902 18.1546 51.8905 18.14 51.9907 18.14C52.4501 18.0633 52.6033 17.5267 52.6799 16.8367C52.833 15.84 52.833 14 52.833 11.8533V9.78333C52.833 9.70667 52.7564 9.63 52.6799 9.63H43.6446C43.5681 9.63 43.4915 9.63 43.4915 9.78333V11.8533C43.4915 14 43.4915 15.84 43.6446 16.8367C43.7212 17.5267 43.8743 17.9867 44.5635 18.0633C44.8698 18.14 45.4057 18.14 45.712 18.14C45.9417 18.14 46.0949 18.2167 46.0949 18.2933C46.0949 18.4467 45.9417 18.5233 45.6354 18.5233C44.6974 18.5233 43.788 18.4946 43.0834 18.4723C42.6377 18.4582 42.274 18.4467 42.0367 18.4467C41.8046 18.4467 41.4002 18.461 40.9416 18.4773H40.9415C40.3412 18.4987 39.648 18.5233 39.127 18.5233C38.8207 18.5233 38.6676 18.4467 38.6676 18.2933C38.6676 18.14 38.7442 18.14 39.0505 18.14C39.2662 18.14 39.4333 18.1157 39.5792 18.0944C39.6922 18.0779 39.7925 18.0633 39.8927 18.0633C40.3521 17.9867 40.5053 17.45 40.5818 16.76C40.735 15.7633 40.735 13.9233 40.735 11.7767V7.63667C40.735 4.11 40.735 3.42 40.6584 2.73C40.5818 1.96333 40.4287 1.58 39.663 1.42667C39.5099 1.35 39.0505 1.35 38.7442 1.35C38.5145 1.35 38.3613 1.27333 38.3613 1.12C38.3613 0.966666 38.5145 0.889999 38.8207 0.889999C39.5384 0.889999 40.3612 0.916307 41.0427 0.938101C41.5247 0.953512 41.9361 0.966666 42.1898 0.966666C42.4219 0.966666 42.8263 0.95229 43.2849 0.935988C43.8853 0.914644 44.5785 0.889999 45.0995 0.889999C45.4057 0.889999 45.5589 0.966666 45.5589 1.12C45.5589 1.27333 45.4057 1.35 45.176 1.35C45.0229 1.35 44.7932 1.35 44.4869 1.42667C43.8743 1.58 43.6446 1.96333 43.6446 2.73C43.5681 3.49667 43.5681 4.11 43.5681 7.63667V8.09667C43.5681 8.25 43.6446 8.25 43.7212 8.25H52.5267V8.40333ZM61.8683 2.80667C61.9449 3.49667 61.9449 4.18667 61.9449 7.63667H61.7917V10.9333C61.7917 14.23 62.634 15.9167 63.7826 16.99C65.3905 18.5233 67.5345 18.6 68.683 18.6C70.1378 18.6 71.7458 18.37 73.2772 16.99C75.1149 15.3033 75.3446 12.62 75.3446 10.09V7.63667C75.3446 4.18667 75.3446 3.57334 75.4212 2.80667C75.4977 2.04001 75.6509 1.58001 76.2634 1.50334C76.4931 1.42667 76.6463 1.42667 76.876 1.42667C77.1057 1.42667 77.2588 1.35001 77.2588 1.19667C77.2588 1.04334 77.1057 0.966675 76.7994 0.966675C76.2461 0.966675 75.4284 0.999761 74.8674 1.02246C74.5744 1.03432 74.3514 1.04334 74.2726 1.04334C74.2726 1.04334 72.8943 0.966675 71.7458 0.966675C71.4395 0.966675 71.2864 1.04334 71.2864 1.19667C71.2864 1.35001 71.4395 1.42667 71.6692 1.42667C71.8989 1.42667 72.2818 1.42667 72.4349 1.50334C73.1241 1.65667 73.2772 2.04001 73.3538 2.80667C73.4303 3.49667 73.4303 4.18667 73.4303 7.63667V10.4733C73.4303 12.85 73.3538 14.92 72.1287 16.1467C71.2098 17.0667 70.0613 17.3733 69.0659 17.3733C68.3002 17.3733 67.3048 17.2967 66.3094 16.4533C65.2374 15.61 64.6248 14.1533 64.6248 10.8567V7.63667C64.6248 4.18667 64.6248 3.57334 64.7014 2.80667C64.778 2.04001 64.9311 1.58001 65.5437 1.50334C65.7734 1.42667 65.9265 1.42667 66.1562 1.42667C66.3859 1.42667 66.5391 1.35001 66.5391 1.19667C66.5391 1.04334 66.3859 0.966675 66.0797 0.966675C65.6628 0.966675 65.0643 0.989402 64.519 1.01011C64.0628 1.02743 63.6439 1.04334 63.3997 1.04334C63.0989 1.04334 62.6668 1.02873 62.1798 1.01227C61.5512 0.99102 60.831 0.966675 60.1838 0.966675C59.8775 0.966675 59.7244 1.04334 59.7244 1.19667C59.7244 1.35001 59.8775 1.42667 60.1072 1.42667C60.4135 1.42667 60.7963 1.42667 60.9495 1.50334C61.6386 1.65667 61.7917 2.04001 61.8683 2.80667ZM103.293 11.3933C103.369 11.47 103.293 11.5467 103.216 11.5467H99.0812C99.0046 11.5467 99.0046 11.47 99.0046 11.3933L101.072 5.79666C101.094 5.75175 101.11 5.71341 101.123 5.68166C101.155 5.60499 101.171 5.56666 101.225 5.56666C101.225 5.56666 101.302 5.71999 101.302 5.79666L103.293 11.3933ZM98.3921 12.85C98.4686 12.7733 98.5452 12.6967 98.6218 12.6967V12.39H103.522C103.634 12.39 103.664 12.4311 103.702 12.4832C103.716 12.5022 103.731 12.5228 103.752 12.5433L105.513 17.3733C105.59 17.68 105.436 17.8333 105.283 17.91C105.252 17.9205 105.223 17.9295 105.198 17.9377C105.034 17.9895 104.977 18.0076 104.977 18.14C104.977 18.2933 105.283 18.2933 105.666 18.2933C107.427 18.37 109.112 18.37 109.878 18.37C110.643 18.37 110.873 18.2933 110.873 18.14C110.873 17.9867 110.72 17.9867 110.567 17.9867C110.337 17.9867 109.954 17.9867 109.648 17.91C109.188 17.8333 108.499 17.5267 107.657 15.4567C107.097 14.0547 106.17 11.6905 105.231 9.29541L105.231 9.29505C103.86 5.79628 102.462 2.23149 102.144 1.50332C102.113 1.44169 102.085 1.38419 102.059 1.33081V1.33079V1.33077C101.891 0.985806 101.807 0.813324 101.608 0.813324C101.378 0.813324 101.225 1.04332 100.995 1.73332L95.4058 15.9933C94.9464 17.1433 94.487 17.91 93.4916 18.0633C93.3384 18.14 93.0322 18.14 92.8025 18.14C92.6493 18.14 92.5728 18.14 92.5728 18.2933C92.5728 18.4467 92.7259 18.5233 93.0322 18.5233C93.8258 18.5233 94.656 18.4867 95.1691 18.4641C95.3985 18.454 95.5646 18.4467 95.6355 18.4467C95.9801 18.4467 96.4011 18.4658 96.8222 18.485L96.8224 18.485C97.2435 18.5042 97.6646 18.5233 98.0092 18.5233C98.2389 18.5233 98.3921 18.4467 98.3921 18.2933C98.3921 18.2167 98.3921 18.14 98.0858 18.14H97.7795C97.0904 18.14 96.8607 17.8333 96.8607 17.45C96.8607 17.1433 96.9372 16.6067 97.1669 16.07L98.3921 12.85ZM113.093 7.71334C113.093 4.18667 113.093 3.49667 113.017 2.80667C112.94 2.04 112.711 1.58 112.175 1.50333C111.945 1.42667 111.639 1.42667 111.332 1.42667C111.103 1.42667 110.949 1.35 110.949 1.19667C110.949 1.04333 111.103 1.04333 111.485 1.04333C111.978 1.04333 112.624 1.06535 113.224 1.08579C113.744 1.10349 114.228 1.12 114.548 1.12C114.824 1.12 115.254 1.10451 115.727 1.08746C116.307 1.06657 116.952 1.04333 117.458 1.04333C117.764 1.04333 117.917 1.12 117.917 1.19667C117.917 1.35 117.764 1.42667 117.534 1.42667C117.305 1.42667 117.075 1.42667 116.845 1.50333C116.233 1.65667 116.003 2.04 116.003 2.80667C115.926 3.57333 115.926 4.18667 115.926 7.71334V11.8533C115.926 14.1533 115.926 15.9933 116.003 16.99C116.08 17.6033 116.233 18.0633 116.922 18.14C117.228 18.2167 117.764 18.2167 118.147 18.2167C118.377 18.2167 118.53 18.2933 118.53 18.37C118.53 18.5233 118.377 18.6 118.07 18.6C117.132 18.6 116.194 18.5712 115.467 18.5489C115.008 18.5348 114.632 18.5233 114.395 18.5233C114.163 18.5233 113.744 18.5377 113.269 18.554C112.648 18.5754 111.93 18.6 111.409 18.6C111.103 18.6 110.949 18.5233 110.949 18.37C110.949 18.2167 111.026 18.2167 111.332 18.2167C111.548 18.2167 111.715 18.1923 111.861 18.1711C111.974 18.1546 112.074 18.14 112.175 18.14C112.634 18.0633 112.787 17.68 112.864 16.99C113.017 15.9933 113.017 14.1533 113.017 11.93V7.71334H113.093ZM126.417 16.8367C126.263 15.84 126.263 14.1533 126.263 11.93H126.493V10.32C126.493 10.1667 126.493 10.09 126.646 10.09C127.029 10.09 129.479 10.09 130.092 10.1667C130.781 10.2433 131.087 10.7033 131.24 11.01C131.317 11.24 131.394 11.5467 131.394 11.7C131.394 11.8533 131.394 12.0067 131.547 12.0067C131.776 12.0067 131.776 11.7767 131.776 11.5467C131.776 11.3933 131.776 10.32 131.853 9.86C131.853 9.33025 131.926 8.91031 131.971 8.65077C131.992 8.53471 132.006 8.45072 132.006 8.40334C132.006 8.25 131.93 8.17334 131.853 8.17334C131.745 8.17334 131.713 8.21167 131.65 8.28833C131.623 8.32009 131.592 8.35842 131.547 8.40334C131.317 8.63334 131.011 8.78667 130.551 8.78667H129.479H126.493C126.34 8.78667 126.34 8.71 126.34 8.55667V2.80667C126.34 2.57667 126.417 2.5 126.57 2.5L130.169 2.57667C131.011 2.57667 131.547 2.96 131.7 3.26667C131.853 3.57333 131.853 3.95667 131.853 4.11C131.853 4.41667 131.93 4.49334 132.083 4.49334C132.236 4.49334 132.312 4.34 132.312 4.18667C132.389 3.95667 132.466 2.57667 132.466 2.34667C132.466 1.93778 132.534 1.66519 132.579 1.48346C132.602 1.39259 132.619 1.32445 132.619 1.27333C132.619 1.12 132.542 1.04333 132.466 1.04333C132.354 1.04333 132.283 1.08439 132.192 1.13646L132.192 1.13648L132.192 1.1365L132.192 1.13651L132.192 1.13655L132.191 1.13704L132.191 1.13735L132.191 1.1374C132.158 1.15622 132.123 1.17644 132.083 1.19667C131.853 1.27333 131.623 1.27333 131.164 1.27333H125.038C124.911 1.27333 124.745 1.26018 124.55 1.24477C124.275 1.22298 123.942 1.19667 123.584 1.19667H121.669C121.286 1.19667 121.133 1.27333 121.133 1.42667C121.133 1.50333 121.286 1.58 121.516 1.58C121.822 1.58 122.282 1.58 122.435 1.65667C123.201 1.81 123.354 2.19333 123.43 2.96C123.507 3.72667 123.507 4.34 123.507 7.86667V11.93C123.507 14.1533 123.507 15.84 123.354 16.8367C123.277 17.5267 123.124 18.0633 122.665 18.14C122.564 18.14 122.464 18.1546 122.351 18.1711C122.205 18.1923 122.038 18.2167 121.822 18.2167C121.516 18.2167 121.44 18.2167 121.44 18.37C121.44 18.5233 121.593 18.6 121.899 18.6C122.354 18.6 122.987 18.5777 123.569 18.5571L123.569 18.5571C124.066 18.5396 124.527 18.5233 124.809 18.5233C125.05 18.5233 125.421 18.5352 125.872 18.5496L125.872 18.5496L125.872 18.5496C126.566 18.5718 127.449 18.6 128.331 18.6C128.714 18.6 128.867 18.5233 128.867 18.37C128.867 18.2933 128.79 18.2167 128.484 18.2167C128.178 18.2167 127.642 18.2167 127.335 18.14C126.646 17.9867 126.493 17.5267 126.417 16.8367ZM142.266 11.5467C142.343 11.5467 142.42 11.47 142.343 11.3933L140.352 5.79666C140.352 5.71999 140.276 5.56666 140.276 5.56666C140.222 5.56666 140.206 5.60499 140.174 5.68166L140.174 5.68178C140.161 5.71351 140.145 5.7518 140.123 5.79666L138.055 11.3933C138.055 11.47 138.055 11.5467 138.132 11.5467H142.266ZM137.672 12.6967C137.596 12.6967 137.519 12.7733 137.443 12.85L136.217 16.07C135.988 16.6067 135.911 17.1433 135.911 17.45C135.911 17.8333 136.141 18.14 136.83 18.14H137.136C137.443 18.14 137.443 18.2167 137.443 18.2933C137.443 18.4467 137.289 18.5233 137.06 18.5233C136.715 18.5233 136.294 18.5042 135.873 18.485C135.452 18.4658 135.031 18.4467 134.686 18.4467C134.615 18.4467 134.449 18.454 134.22 18.4641C133.707 18.4867 132.876 18.5233 132.083 18.5233C131.776 18.5233 131.623 18.4467 131.623 18.2933C131.623 18.14 131.7 18.14 131.93 18.14C132.159 18.14 132.466 18.14 132.619 18.0633C133.614 17.91 134.074 17.1433 134.533 15.9933L140.123 1.73332C140.148 1.67578 140.172 1.62143 140.195 1.57015L140.198 1.56304L140.203 1.55035L140.205 1.54552C140.445 1.00092 140.528 0.813324 140.735 0.813324C140.934 0.813324 141.018 0.985827 141.186 1.33083C141.212 1.3842 141.24 1.4417 141.271 1.50332C141.589 2.23152 142.987 5.7966 144.358 9.29552C145.297 11.6906 146.224 14.0547 146.784 15.4567C147.626 17.5267 148.315 17.8333 148.775 17.91C149.081 17.9867 149.464 17.9867 149.694 17.9867C149.847 17.9867 150 17.9867 150 18.14C150 18.2933 149.77 18.37 149.005 18.37C148.162 18.37 146.554 18.37 144.793 18.2933C144.41 18.2933 144.104 18.2933 144.104 18.14C144.104 18.0076 144.161 17.9895 144.325 17.9377L144.325 17.9376C144.351 17.9295 144.379 17.9204 144.41 17.91C144.564 17.8333 144.717 17.68 144.64 17.3733L142.879 12.5433C142.859 12.5228 142.844 12.5023 142.83 12.4833L142.83 12.4832C142.791 12.4311 142.761 12.39 142.649 12.39H137.672V12.6967ZM45.7122 26.8033C45.4825 27.1867 45.3293 27.6467 45.1762 28.1067L45.0231 28.8733H43.8745L43.798 29.0267H44.9465L43.5682 34.01C43.262 35.0067 42.9557 35.7733 42.6494 36.2333C42.3431 36.6933 41.9603 36.9233 41.654 36.9233C41.5774 36.9233 41.5009 36.9233 41.4243 36.8467C41.3477 36.77 41.3477 36.6933 41.3477 36.6167C41.3477 36.54 41.3477 36.3867 41.4243 36.31C41.5009 36.1567 41.5009 36.08 41.5009 36.0033C41.5009 35.9267 41.5009 35.85 41.4243 35.7733C41.3477 35.6967 41.2712 35.6967 41.1946 35.6967C40.9649 35.6967 40.8117 35.7733 40.7352 35.85C40.6586 35.9267 40.582 36.08 40.582 36.2333C40.582 36.3867 40.582 36.4633 40.6586 36.6167L40.8883 36.8467C40.9649 36.9233 41.0415 37 41.1946 37H41.5009C41.8071 37 42.19 36.9233 42.4963 36.6933C42.8533 36.4789 43.0771 36.1978 43.354 35.85L43.4151 35.7733C43.6448 35.39 43.8745 34.93 44.1042 34.47C44.3339 33.9333 44.4871 33.4733 44.6402 32.9367L45.7122 28.8733H47.2436L47.3202 28.72H45.7888L46.0185 27.8C46.0502 27.7365 46.0819 27.6467 46.1191 27.5414C46.1716 27.3926 46.2351 27.213 46.3248 27.0333C46.4013 26.65 46.5545 26.3433 46.7842 26.0367C46.9373 25.6533 47.167 25.4233 47.4733 25.1933C47.7796 24.9633 48.0859 24.8867 48.4687 24.8867C48.5453 24.8867 48.6984 24.8867 48.775 24.9633C48.8516 25.04 48.9281 25.1167 48.9281 25.27C48.9281 25.3083 48.909 25.3275 48.8898 25.3467C48.8707 25.3658 48.8516 25.385 48.8516 25.4233C48.8516 25.4617 48.8324 25.4808 48.8133 25.5C48.7941 25.5192 48.775 25.5383 48.775 25.5767C48.775 25.5767 48.6984 25.6533 48.6984 25.73C48.6218 25.8067 48.6218 25.8833 48.6218 25.96C48.6218 26.0367 48.6984 26.1133 48.775 26.19C48.8516 26.2667 49.0047 26.2667 49.1578 26.2667C49.3875 26.2667 49.5407 26.19 49.6173 26.0367C49.6938 25.96 49.7704 25.8067 49.7704 25.6533V25.4233C49.7321 25.385 49.6938 25.3275 49.6555 25.27C49.6173 25.2125 49.579 25.155 49.5407 25.1167C49.4641 25.04 49.311 24.9633 49.1579 24.8867L49.1578 24.8867C49.0047 24.81 48.8516 24.81 48.6218 24.81C48.239 24.81 47.9327 24.8867 47.5499 25.04C47.167 25.1933 46.8607 25.4233 46.5545 25.73C46.2482 26.0367 45.9419 26.42 45.7122 26.8033ZM52.8331 28.5667L51.4549 32.5533C51.4166 32.63 51.3974 32.7067 51.3783 32.7833C51.3592 32.86 51.34 32.9367 51.3017 33.0133C51.3017 33.1032 51.2755 33.1667 51.2537 33.2193C51.2383 33.2565 51.2252 33.2882 51.2252 33.32C51.2252 33.3967 51.2252 33.55 51.3017 33.6267C51.3783 33.7033 51.4549 33.78 51.608 33.78C51.8377 33.78 52.0674 33.7033 52.2971 33.55C52.4215 33.467 52.5458 33.3615 52.6823 33.2458L52.6824 33.2457L52.6824 33.2457C52.7981 33.1476 52.9224 33.0421 53.0628 32.9367C53.2925 32.7067 53.5223 32.4 53.752 32.0933C53.9817 31.7867 54.1348 31.48 54.2114 31.1733L55.0537 28.6433H55.8959L54.5177 32.7833C54.4794 32.86 54.4602 32.9175 54.4411 32.975C54.422 33.0325 54.4028 33.09 54.3645 33.1667C54.288 33.32 54.288 33.3967 54.288 33.55C54.288 33.6267 54.288 33.7033 54.3645 33.78C54.4411 33.8567 54.5177 33.8567 54.5942 33.8567C54.7063 33.8567 54.7774 33.8156 54.8675 33.7635C54.9005 33.7444 54.9361 33.7239 54.9771 33.7033C55.0839 33.6499 55.1534 33.5592 55.2117 33.4831C55.237 33.4501 55.2602 33.4199 55.2834 33.3967C55.3217 33.32 55.3599 33.2625 55.3982 33.205C55.4365 33.1475 55.4748 33.09 55.5131 33.0133C55.5423 32.9548 55.5715 32.9074 55.5965 32.867L55.5965 32.8669C55.637 32.8014 55.6662 32.754 55.6662 32.7067L55.8194 32.7833C55.8194 32.8307 55.7901 32.8781 55.7497 32.9436C55.7247 32.984 55.6955 33.0314 55.6662 33.09C55.5896 33.2433 55.5131 33.32 55.3599 33.4733C55.2068 33.6267 55.1302 33.7033 54.9005 33.8567C54.7474 33.9333 54.5177 34.01 54.288 34.01C54.0582 34.01 53.8285 33.9333 53.6754 33.8567C53.5223 33.78 53.4457 33.55 53.4457 33.32C53.4457 33.1667 53.4457 33.0133 53.5223 32.9367C53.5223 32.7833 53.5988 32.63 53.6754 32.4767C53.5988 32.63 53.4457 32.7833 53.2925 32.9367C53.2442 32.9851 53.1958 33.0412 53.145 33.1001L53.1447 33.1004L53.1447 33.1005C53.0348 33.228 52.9135 33.3685 52.7566 33.4733C52.6034 33.6267 52.3737 33.78 52.2206 33.8567C52.1517 33.8567 52.0674 33.8722 51.9746 33.8892L51.9746 33.8892C51.8609 33.9101 51.7345 33.9333 51.608 33.9333C51.3017 33.9333 50.9955 33.8567 50.7658 33.7033C50.536 33.55 50.4595 33.32 50.4595 33.0133C50.4595 32.86 50.4595 32.7833 50.536 32.5533C50.5743 32.4767 50.5935 32.4 50.6126 32.3233C50.6318 32.2467 50.6509 32.17 50.6892 32.0933L51.8377 28.72H50.7658L50.8423 28.5667H52.8331ZM61.3323 28.7967C61.3323 29.0267 61.2558 29.2567 61.1792 29.4867C61.1026 29.7167 61.0261 29.9467 60.9495 30.1L59.7244 33.9333H60.4901L61.3323 31.25C61.4089 30.8667 61.562 30.56 61.7152 30.2534L61.7152 30.2533C61.8188 30.0457 61.9576 29.8381 62.0839 29.6543L62.098 29.64L62.1026 29.631L62.1118 29.6139L62.1319 29.5847C62.1692 29.5307 62.2047 29.4792 62.2372 29.4308L62.2628 29.3978L62.2859 29.3681C62.3328 29.308 62.3835 29.2429 62.4352 29.1699C62.4979 29.0964 62.5631 29.0259 62.6251 28.9613C62.7302 28.8613 62.8352 28.7726 62.9403 28.72C63.0725 28.6538 63.2618 28.5876 63.4096 28.5708C63.4574 28.5775 63.5051 28.5955 63.5528 28.6433C63.6294 28.72 63.6294 28.7967 63.6294 28.8733C63.6294 28.9117 63.6103 28.95 63.5911 28.9883C63.572 29.0267 63.5528 29.065 63.5528 29.1033C63.5528 29.1417 63.5337 29.1608 63.5146 29.18C63.4954 29.1992 63.4763 29.2183 63.4763 29.2567C63.4763 29.295 63.4571 29.3142 63.438 29.3333C63.4189 29.3525 63.3997 29.3717 63.3997 29.41C63.3231 29.4867 63.3231 29.5633 63.3231 29.64C63.3231 29.7167 63.3231 29.7933 63.3997 29.87C63.3997 29.9467 63.5528 29.9467 63.6294 29.9467H63.8591C63.9357 29.9467 64.0123 29.9467 64.0888 29.87C64.1271 29.8317 64.1463 29.7933 64.1654 29.755C64.1845 29.7167 64.2037 29.6783 64.242 29.64C64.3185 29.5633 64.3185 29.4867 64.3185 29.3333C64.3185 29.18 64.242 28.95 64.0888 28.7967C63.9357 28.6433 63.7826 28.5667 63.4763 28.5667C63.4554 28.5667 63.433 28.5681 63.4096 28.5708C63.3808 28.5667 63.352 28.5667 63.3231 28.5667C63.17 28.5667 63.0169 28.6433 62.7872 28.7967L62.7871 28.7967C62.7391 28.8448 62.6835 28.9005 62.6251 28.9613C62.577 29.0071 62.529 29.0552 62.4809 29.1033L62.4809 29.1033L62.4593 29.1352C62.4513 29.147 62.4432 29.1585 62.4352 29.1699C62.3688 29.2477 62.3052 29.3288 62.2512 29.41L62.2372 29.4308C62.1877 29.4954 62.1444 29.5549 62.1118 29.6139L62.0839 29.6543C61.9401 29.8029 61.8659 29.9514 61.7917 30.1C61.83 29.985 61.8683 29.8508 61.9066 29.7167C61.9449 29.5825 61.9832 29.4483 62.0215 29.3333C62.0535 29.2049 62.0722 29.0899 62.0886 28.9884L62.0886 28.9883C62.1115 28.8474 62.1301 28.7324 62.1746 28.6433H60.4135L60.3369 28.7967H61.3323ZM68.0705 28.6433H69.8316L69.2956 30.1C69.9847 29.1033 70.6738 28.5667 71.363 28.5667C71.6693 28.5667 71.899 28.6433 72.1287 28.8733C72.2818 29.0267 72.4349 29.2567 72.4349 29.5633C72.4349 29.7167 72.4349 29.87 72.3584 29.9467C72.3201 30.0233 72.3009 30.1 72.2818 30.1767C72.2627 30.2533 72.2435 30.33 72.2052 30.4067L71.5161 32.63C71.4825 32.6972 71.4637 32.7644 71.4467 32.8252L71.4466 32.8252C71.4248 32.9031 71.406 32.9703 71.363 33.0133C71.363 33.09 71.3438 33.1475 71.3247 33.205C71.3055 33.2625 71.2864 33.32 71.2864 33.3967C71.2864 33.4733 71.2864 33.55 71.363 33.6267C71.363 33.7033 71.4395 33.78 71.5927 33.78C71.7048 33.78 71.7759 33.7389 71.866 33.6868C71.8989 33.6678 71.9345 33.6472 71.9755 33.6267C71.9987 33.6035 72.0289 33.5802 72.0619 33.5549C72.1378 33.4965 72.2284 33.4269 72.2818 33.32C72.3584 33.2433 72.4349 33.09 72.5115 32.9367C72.5408 32.8781 72.57 32.8307 72.595 32.7903C72.6354 32.7248 72.6647 32.6774 72.6647 32.63L72.8178 32.7067C72.8178 32.754 72.7885 32.8014 72.7481 32.8669C72.7231 32.9074 72.6939 32.9548 72.6647 33.0133C72.6264 33.09 72.5881 33.1475 72.5498 33.205L72.5497 33.2051C72.5115 33.2626 72.4732 33.32 72.4349 33.3967C72.3584 33.55 72.2052 33.6267 72.0521 33.7033C71.899 33.78 71.7458 33.8567 71.5161 33.8567C71.2864 33.8567 71.0567 33.78 70.9035 33.7033C70.7504 33.6267 70.6738 33.3967 70.6738 33.1667C70.6738 33.09 70.6738 32.9367 70.7504 32.86C70.7504 32.8282 70.7635 32.7833 70.7789 32.7307C70.8007 32.6563 70.827 32.5665 70.827 32.4767L71.7458 29.64C71.8224 29.4867 71.8224 29.2567 71.8224 29.18C71.8224 29.1033 71.8224 28.95 71.7458 28.8733C71.6693 28.7967 71.5927 28.72 71.4395 28.72C71.2864 28.72 71.0567 28.7967 70.9035 28.95C70.6738 29.1033 70.4441 29.2567 70.291 29.4867C70.0613 29.7167 69.9081 29.9467 69.6784 30.33C69.5253 30.6367 69.3722 30.9433 69.219 31.3267L68.147 33.78H67.3813L68.9893 28.7967H67.9939L68.0705 28.6433ZM78.3308 24.7333C78.1776 24.7333 78.0245 24.81 77.9479 24.8867C77.8713 25.04 77.7948 25.1933 77.7948 25.3467C77.7948 25.5767 77.8713 25.73 77.9479 25.8067C78.0245 25.8833 78.1776 25.96 78.3308 25.96C78.4839 25.96 78.637 25.8833 78.7136 25.8067C78.7902 25.6533 78.8667 25.5 78.8667 25.3467C78.8667 25.1167 78.7902 24.9633 78.7136 24.8867C78.637 24.81 78.4839 24.7333 78.3308 24.7333ZM76.2634 28.3367L76.1868 28.49H77.1822L76.0337 32.2467C75.9954 32.3233 75.9762 32.4 75.9571 32.4767C75.938 32.5533 75.9188 32.63 75.8805 32.7067C75.804 32.86 75.804 33.0133 75.804 33.1667C75.804 33.4733 75.8805 33.6267 76.1102 33.7033C76.2634 33.78 76.4931 33.8567 76.7228 33.8567C76.9525 33.8567 77.1822 33.78 77.3354 33.7033C77.3896 33.649 77.4439 33.6043 77.4947 33.5624C77.5874 33.4861 77.6688 33.419 77.7182 33.32C77.7948 33.2433 77.8713 33.09 77.9479 32.9367C77.9771 32.8781 78.0064 32.8307 78.0314 32.7902C78.0718 32.7248 78.101 32.6774 78.101 32.63L77.9479 32.5533C77.9006 32.6007 77.8825 32.6481 77.8575 32.7136L77.8575 32.7137C77.8421 32.7541 77.824 32.8015 77.7948 32.86C77.7565 32.9367 77.7182 32.9942 77.6799 33.0517L77.6799 33.0517C77.6416 33.1092 77.6033 33.1667 77.5651 33.2433L77.2588 33.55C77.2178 33.5705 77.1823 33.591 77.1493 33.6101L77.1492 33.6102C77.0591 33.6623 76.988 33.7033 76.8759 33.7033C76.7994 33.7033 76.7228 33.7033 76.6462 33.6267C76.5696 33.55 76.5696 33.4733 76.5696 33.3967C76.5696 33.32 76.5888 33.2625 76.6079 33.205C76.6271 33.1475 76.6462 33.09 76.6462 33.0133C76.6462 32.9367 76.6654 32.8792 76.6845 32.8217C76.7037 32.7642 76.7228 32.7067 76.7228 32.63L78.0245 28.3367H76.2634ZM84.8391 27.0333L84.8104 27.11H83.9968L83.5374 28.3367H82.3889L82.3123 28.49H83.4608L82.2357 31.94C82.1974 32.055 82.1592 32.1508 82.1209 32.2466C82.0826 32.3425 82.0443 32.4383 82.006 32.5533C81.9294 32.7833 81.9294 33.0133 81.9294 33.1667C81.9294 33.32 82.006 33.55 82.1591 33.7033C82.3123 33.8567 82.542 33.9333 82.8483 33.9333C83.1546 33.9333 83.3843 33.8567 83.5374 33.78C83.614 33.7033 83.6905 33.6459 83.7671 33.5884L83.7671 33.5883C83.8437 33.5308 83.9203 33.4733 83.9968 33.3967C84.15 33.2433 84.2265 33.09 84.3031 32.9367C84.3323 32.8781 84.3616 32.8307 84.3866 32.7902C84.427 32.7248 84.4562 32.6774 84.4562 32.63L84.3031 32.5533C84.3031 32.6007 84.2738 32.6481 84.2334 32.7136C84.2085 32.754 84.1792 32.8014 84.15 32.86C84.1117 32.9367 84.0543 32.9942 83.9968 33.0517C83.9394 33.1092 83.882 33.1667 83.8437 33.2433C83.7671 33.2817 83.7097 33.3392 83.6523 33.3967C83.5948 33.4542 83.5374 33.5117 83.4608 33.55C83.3077 33.6267 83.1546 33.7033 83.0014 33.7033C82.8483 33.7033 82.7717 33.6267 82.6951 33.55C82.6186 33.4733 82.6186 33.3967 82.6186 33.2433C82.6186 33.1667 82.6186 33.0133 82.6951 32.86C82.7334 32.7833 82.7526 32.7258 82.7717 32.6683C82.7909 32.6108 82.81 32.5533 82.8483 32.4767L84.3031 28.4133H85.6814L85.7579 28.26H84.3797L84.8104 27.11H84.8391V27.0333ZM90.3257 28.6433L90.3522 28.5667V28.6433H90.3257ZM90.3257 28.6433L88.9739 32.5533C88.9356 32.63 88.9165 32.7067 88.8974 32.7833C88.8782 32.86 88.8591 32.9367 88.8208 33.0133C88.8208 33.1032 88.7945 33.1667 88.7727 33.2193C88.7573 33.2565 88.7442 33.2882 88.7442 33.32C88.7442 33.3967 88.7442 33.55 88.8208 33.6267C88.8974 33.7033 88.9739 33.78 89.1271 33.78C89.3568 33.78 89.5865 33.7033 89.8162 33.55C89.9405 33.467 90.0649 33.3615 90.2014 33.2457L90.2016 33.2456C90.3172 33.1475 90.4415 33.0421 90.5819 32.9367C90.8116 32.7067 91.0413 32.4 91.271 32.0933C91.5007 31.7867 91.6539 31.48 91.7304 31.1733L92.5727 28.6433H93.415L92.0367 32.7833C91.9984 32.86 91.9793 32.9175 91.9601 32.975C91.941 33.0325 91.9219 33.09 91.8836 33.1667C91.807 33.32 91.807 33.3967 91.807 33.55C91.807 33.6267 91.807 33.7033 91.8836 33.78C91.9601 33.8567 92.0367 33.8567 92.1133 33.8567C92.2254 33.8567 92.2965 33.8156 92.3866 33.7635C92.4196 33.7444 92.4551 33.7239 92.4961 33.7033C92.6029 33.6499 92.6724 33.5592 92.7307 33.4831C92.756 33.4501 92.7792 33.4199 92.8024 33.3967C92.8407 33.32 92.879 33.2625 92.9173 33.205C92.9555 33.1475 92.9938 33.09 93.0321 33.0133C93.0613 32.9549 93.0904 32.9077 93.1154 32.8673L93.1155 32.867L93.1156 32.8669C93.156 32.8014 93.1853 32.754 93.1853 32.7067L93.3384 32.7833C93.3384 32.8307 93.3091 32.8781 93.2687 32.9436C93.2437 32.984 93.2145 33.0314 93.1853 33.09C93.1087 33.2433 93.0321 33.32 92.879 33.4733C92.7258 33.6267 92.6493 33.7033 92.4196 33.8567C92.2664 33.9333 92.0367 34.01 91.807 34.01C91.5773 34.01 91.3476 33.9333 91.1944 33.8567C91.0413 33.78 90.9647 33.55 90.9647 33.32C90.9647 33.1667 90.9647 33.0133 91.0413 32.9367C91.0413 32.7833 91.1179 32.63 91.1944 32.4767C91.1179 32.63 90.9647 32.7833 90.8116 32.9367C90.7631 32.9852 90.7146 33.0414 90.6637 33.1005C90.5538 33.228 90.4326 33.3685 90.2756 33.4733C90.1225 33.6267 89.8928 33.78 89.7396 33.8567C89.6917 33.8727 89.6471 33.8887 89.6044 33.904C89.4426 33.962 89.3088 34.01 89.1271 34.01C88.8208 34.01 88.5145 33.9333 88.2848 33.78C88.0551 33.6267 87.9785 33.3967 87.9785 33.09C87.9785 32.9367 87.9785 32.86 88.0551 32.63C88.0934 32.5533 88.1125 32.4767 88.1317 32.4C88.1508 32.3233 88.1699 32.2467 88.2082 32.17L89.3568 28.7967H88.2848L88.3614 28.6433H90.3257ZM98.6982 29.4867C98.7748 29.2567 98.8514 29.0267 98.8514 28.7967H97.856L97.9325 28.6433H99.6936C99.6491 28.7324 99.6305 28.8474 99.6077 28.9883C99.5912 29.0899 99.5726 29.2049 99.5405 29.3333C99.5022 29.4483 99.4639 29.5825 99.4256 29.7167C99.3874 29.8508 99.3491 29.985 99.3108 30.1C99.385 29.9514 99.4592 29.8029 99.603 29.6543C99.4767 29.8381 99.3379 30.0457 99.2342 30.2533C99.0811 30.56 98.9279 30.8667 98.8514 31.25L98.0091 33.9333H97.2434L98.4685 30.1C98.5451 29.9467 98.6217 29.7167 98.6982 29.4867ZM99.6308 29.6139C99.6272 29.6205 99.6237 29.627 99.6203 29.6335C99.6192 29.6357 99.6181 29.6378 99.6171 29.64L99.603 29.6543L99.6308 29.6139ZM99.7563 29.4308C99.7238 29.4791 99.6883 29.5307 99.651 29.5846L99.6308 29.6139C99.6634 29.555 99.7067 29.4954 99.7563 29.4308ZM99.9542 29.1699C99.9026 29.2429 99.8518 29.308 99.8049 29.3681C99.7882 29.3896 99.7719 29.4104 99.7563 29.4308L99.7702 29.41C99.8243 29.3288 99.8878 29.2477 99.9542 29.1699ZM100.144 28.9613C100.082 29.0259 100.017 29.0964 99.9542 29.1699C99.9694 29.1484 99.9847 29.1262 99.9999 29.1033C100.048 29.0552 100.096 29.0071 100.144 28.9613ZM100.929 28.5708C100.781 28.5876 100.592 28.6538 100.459 28.72C100.354 28.7726 100.249 28.8613 100.144 28.9613C100.202 28.9007 100.258 28.8453 100.306 28.7973L100.306 28.7967C100.536 28.6433 100.689 28.5667 100.842 28.5667C100.871 28.5667 100.9 28.5667 100.929 28.5708ZM100.929 28.5708C100.952 28.5681 100.974 28.5667 100.995 28.5667C101.302 28.5667 101.455 28.6433 101.608 28.7967C101.761 28.95 101.838 29.18 101.838 29.3333C101.838 29.4867 101.838 29.5633 101.761 29.64C101.723 29.6783 101.704 29.7167 101.684 29.755C101.665 29.7933 101.646 29.8317 101.608 29.87C101.531 29.9467 101.455 29.9467 101.378 29.9467H101.148C101.072 29.9467 100.919 29.9467 100.919 29.87C100.842 29.7933 100.842 29.7167 100.842 29.64C100.842 29.5633 100.842 29.4867 100.919 29.41C100.919 29.3717 100.938 29.3525 100.957 29.3333C100.976 29.3142 100.995 29.295 100.995 29.2567C100.995 29.2183 101.014 29.1992 101.034 29.18C101.053 29.1608 101.072 29.1417 101.072 29.1033C101.072 29.065 101.091 29.0267 101.11 28.9883C101.129 28.95 101.148 28.9117 101.148 28.8733C101.148 28.7967 101.148 28.72 101.072 28.6433C101.024 28.5955 100.976 28.5775 100.929 28.5708ZM107.427 28.72C107.657 28.72 107.81 28.7967 107.887 28.8733C107.963 29.0267 108.04 29.18 108.04 29.41C108.04 29.64 107.963 29.87 107.887 30.0233C107.836 30.0745 107.793 30.1256 107.751 30.1767C107.666 30.2789 107.58 30.3811 107.427 30.4833C107.312 30.5217 107.198 30.5792 107.083 30.6367C106.968 30.6942 106.853 30.7517 106.738 30.79C106.509 30.8667 106.279 30.9433 105.973 30.9433C105.846 30.9433 105.72 30.9201 105.606 30.8992C105.513 30.8822 105.429 30.8667 105.36 30.8667C105.437 30.6367 105.513 30.4067 105.666 30.1767L106.126 29.4867C106.279 29.2567 106.509 29.1033 106.738 28.95C106.968 28.7967 107.198 28.72 107.427 28.72ZM107.512 33.311C107.635 33.1862 107.748 33.0615 107.81 32.9367C107.861 32.8345 107.912 32.7663 108.054 32.7095C108.024 32.7509 107.994 32.7995 107.963 32.86C107.864 32.9095 107.797 32.991 107.721 33.0838C107.679 33.1347 107.635 33.189 107.58 33.2433C107.558 33.266 107.535 33.2886 107.512 33.311ZM108.054 32.7095C108.125 32.6811 108.219 32.6556 108.346 32.63L108.193 32.5533C108.147 32.5997 108.1 32.6461 108.054 32.7095ZM107.512 33.311C107.484 33.3396 107.456 33.3681 107.427 33.3967C107.274 33.55 107.045 33.7033 106.815 33.78C106.585 33.9333 106.279 33.9333 105.973 33.9333C105.666 33.9333 105.36 33.8567 105.13 33.78C104.901 33.7033 104.747 33.55 104.594 33.32C104.477 33.2029 104.405 33.041 104.343 32.9027C104.324 32.86 104.306 32.8195 104.288 32.7833C104.211 32.5533 104.211 32.4 104.211 32.17C104.211 31.7867 104.288 31.4033 104.518 30.9433C104.566 30.8624 104.615 30.7781 104.664 30.6925C104.848 30.3726 105.042 30.0353 105.283 29.7933C105.59 29.4867 105.973 29.18 106.355 28.95C106.738 28.72 107.121 28.6433 107.58 28.6433C107.734 28.6433 107.887 28.6433 108.04 28.72C108.193 28.72 108.346 28.7967 108.499 28.8733C108.652 28.95 108.729 29.0267 108.806 29.18C108.882 29.2567 108.959 29.41 108.959 29.5633C108.959 29.7933 108.882 29.9467 108.806 30.1C108.729 30.2533 108.576 30.4067 108.346 30.4833C108.3 30.5066 108.246 30.5368 108.188 30.5698C108.054 30.6458 107.894 30.7366 107.734 30.79C107.504 30.8667 107.274 30.9433 107.121 30.9433C106.891 31.02 106.738 31.02 106.585 31.02H106.202H105.819H105.513C105.475 31.135 105.437 31.2692 105.398 31.4033C105.36 31.5375 105.322 31.6717 105.283 31.7867C105.207 32.0167 105.207 32.3233 105.207 32.5533C105.207 33.0133 105.283 33.32 105.513 33.4733C105.743 33.7033 105.973 33.78 106.355 33.78C106.585 33.78 106.815 33.7033 107.045 33.6267C107.24 33.5613 107.38 33.4403 107.512 33.311Z" fill="#AE9164"/>
</svg>
