<svg width="150" height="69" viewBox="0 0 150 69" fill="none" xmlns="http://www.w3.org/2000/svg">
<path fill-rule="evenodd" clip-rule="evenodd" d="M82.6401 20.4996V20.4998L82.6401 20.5009C82.628 21.0002 82.6187 21.3832 82.6187 21.5433H81.4701C80.4747 21.5433 79.4793 20.8533 79.4793 18.7067V16.8667V15.7933V13.6467C81.1639 13.8 82.6953 14.1833 82.6953 17.1733C82.6953 18.2215 82.6628 19.5622 82.6402 20.4971L82.6401 20.4984L82.6401 20.4991L82.6401 20.4996ZM70.2144 10.7333C66.6922 10.58 64.7779 8.81667 64.8545 4.83C64.9311 2.45333 64.9311 1.76333 64.9311 0.92C65.3905 0.92 66.4625 0.92 67.7642 0.996667C69.6018 0.996667 70.291 2.60667 70.291 3.68C70.3613 4.17284 70.3025 6.79936 70.2331 9.89699L70.2144 10.7333ZM70.1378 15.4867V18.4C70.1378 20.5467 68.9893 21.2367 68.0704 21.16H66.9219C66.9219 20.7 66.9219 18.4 66.9985 16.79C67.075 13.8767 68.6064 13.4933 70.291 13.4167C70.2704 13.6837 70.2499 13.9453 70.2309 14.1881C70.1789 14.8513 70.1378 15.3744 70.1378 15.4867ZM79.709 3.83333C79.709 2.76 80.5513 1.22667 82.3124 1.22667C83.129 1.22667 83.8551 1.25684 84.3964 1.27933C84.718 1.29269 84.9743 1.30333 85.1455 1.30333C85.1455 2.14667 85.1455 2.83667 85.0689 5.21333C84.9923 9.2 83.0781 10.8867 79.5559 10.8867C79.5814 9.73708 79.6069 8.63856 79.6296 7.66203C79.675 5.70793 79.709 4.2423 79.709 3.83333ZM80.0153 12.0367C84.9158 12.1133 87.1363 9.96667 87.2129 4.83C87.2894 0.69 87.2894 0.383333 87.2894 0.383333C87.2894 0.383333 84.4564 0.306667 81.6233 0.306667C78.2542 0.23 76.876 2.37667 76.876 5.29C76.876 5.95514 76.8615 6.60586 76.8452 7.34228V7.34235V7.34245V7.34257V7.34274V7.34296V7.34325V7.34365C76.8239 8.30455 76.7994 9.41144 76.7994 10.8867L73.2006 10.81C73.2772 8.20333 73.2772 6.74667 73.2772 5.21333C73.3538 2.3 71.9755 0.153333 68.683 0.0766667C65.6968 0.0766667 62.8637 0 62.8637 0C62.8637 0 62.8637 0.306667 62.7871 4.44667C62.7106 9.58333 64.8545 11.8067 69.755 11.8833H70.2144V12.65C67.9173 12.65 64.9311 13.0333 64.8545 16.4067C64.7779 19.09 64.7779 21.85 64.7779 21.85C64.7779 21.85 64.8545 21.85 67.9939 21.9267C71.0567 22.0033 72.9709 20.93 73.0475 18.0167C73.0475 17.5644 73.0611 16.772 73.0768 15.8571L73.0769 15.8552L73.077 15.8473L73.077 15.8466V15.8461V15.8456V15.8453V15.8451V15.8449V15.8448C73.0986 14.5909 73.124 13.1097 73.124 11.96L76.7228 12.0367C76.7228 13.1864 76.6973 14.6676 76.6758 15.9214V15.9216V15.9217V15.922V15.9222V15.9225V15.923V15.9235L76.6758 15.9243L76.6756 15.9322L76.6756 15.9341C76.6599 16.8488 76.6462 17.6411 76.6462 18.0933C76.5697 21.0067 78.4839 22.1567 81.5467 22.1567C84.6095 22.2333 84.7626 22.2333 84.7626 22.2333C84.7626 22.2333 84.7626 19.4733 84.8392 16.79C84.9158 13.4167 81.9296 12.9567 79.6325 12.88V12.1133C79.709 12.0367 79.8622 12.0367 80.0153 12.0367ZM72.5881 24.2267V23.69C72.5881 23.6133 72.5881 23.5367 72.5115 23.5367C72.4732 23.5367 72.3775 23.575 72.2818 23.6133C72.1861 23.6517 72.0903 23.69 72.0521 23.69H71.9755V23.6133C71.9755 23.6133 71.9755 23.5367 72.0521 23.5367C72.0521 23.5367 72.8178 23.0767 72.9709 22.9233L73.0475 22.8467L73.124 22.9233C73.124 22.9233 73.124 22.9726 73.1214 23.0576C73.3174 22.9239 73.5804 22.8467 73.8897 22.8467C74.4604 22.9609 74.8184 23.2456 74.9638 23.637C74.9759 23.4512 75.0383 23.0767 75.0383 23.0767C75.0383 23.0383 75.0383 23.0191 75.0479 23.0096C75.0574 23 75.0766 23 75.1149 23C75.1149 23 75.268 23.0767 75.7274 23.0767H77.2588H77.3354V23.1533C76.9525 23.6133 76.1868 25.1467 76.1103 25.6833V25.8367C76.1103 25.9133 75.7274 26.0667 75.4977 26.0667C75.4594 26.0667 75.4403 26.0667 75.4307 26.0571C75.4211 26.0475 75.4211 26.0284 75.4211 25.99V25.8367C75.5743 25.4533 76.1868 24.3033 76.7994 23.3833H75.6508C75.4977 23.3833 75.3446 23.3833 75.1914 23.46C75.1149 23.5367 75.0383 23.6133 75.0383 23.69C75.0383 23.69 75.0383 23.7374 75.001 23.7577C75.0259 23.8573 75.0383 23.9628 75.0383 24.0733C75.0383 25.1467 73.8897 25.8367 73.3538 26.0667H73.2772C73.2772 26.0667 73.2006 26.0667 73.2006 25.99C73.2006 25.99 73.2006 25.9133 73.2772 25.9133H72.6646H71.9755H71.8989V25.8367H72.2052C72.3583 25.8367 72.3583 25.76 72.3583 25.6067V24.6867L72.5881 24.2267ZM73.4168 25.8367C73.8764 25.5629 74.5023 24.9818 74.5023 24.15C74.5023 23.46 74.196 23.1533 73.8132 23.1533C73.5069 23.1533 73.2772 23.3833 73.2772 23.69C73.2772 24.3033 73.7366 24.4567 73.8897 24.4567C74.0429 24.4567 74.1195 24.4567 74.196 24.38C74.2726 24.38 74.2726 24.3033 74.2726 24.3033V24.38C74.1195 24.5333 73.8897 24.5333 73.66 24.5333C73.4011 24.5333 73.1969 24.4512 73.0475 24.3331V24.6867V25.6067C73.0475 25.68 73.0475 25.7183 73.0642 25.7466C73.0825 25.7775 73.1207 25.7967 73.2006 25.8367H73.4168ZM78.2542 23C77.2588 23.3067 76.5697 24.15 76.5697 24.9167C76.5697 25.6067 77.0291 26.0667 77.7182 26.0667C78.3308 26.0667 78.8668 25.6833 78.8668 25.07C78.9433 24.6867 78.6371 24.2267 78.0245 24.2267C77.7948 24.2267 77.6417 24.3033 77.4885 24.38C77.4119 24.38 77.4119 24.4567 77.4119 24.4567V24.5333H77.4885H77.7182C78.0245 24.5333 78.3308 24.7633 78.3308 25.3C78.3308 25.6833 78.1011 25.9133 77.7948 25.9133C77.4119 25.8367 77.1822 25.3767 77.1822 24.9167C77.1822 23.92 77.7948 23.3067 78.3308 23.0767L78.4073 23H78.3308H78.2542ZM70.4441 25.3L64.9311 25.2233H65.3139C65.0842 25.2233 64.7779 25.2233 64.5482 25.07C64.3185 24.9933 64.0123 24.6867 63.706 24.15C63.706 24.1117 63.6868 24.0733 63.6677 24.035C63.6485 23.9967 63.6294 23.9583 63.6294 23.92V23.8433V23.7667L63.706 23.92C63.706 23.9967 63.7825 24.0733 63.8591 24.15C64.1349 24.4952 64.5349 24.5295 65.2268 24.5889C65.3033 24.5955 65.3833 24.6024 65.4671 24.61L69.219 24.6867H70.1378C70.291 24.6867 70.3675 24.61 70.3675 24.4567V24.2267C70.3675 24.1883 70.3675 24.1692 70.3771 24.1596C70.3867 24.15 70.4058 24.15 70.4441 24.15V24.3033V25.07V25.3ZM79.6325 24.0733V24.2267V24.9933V25.3L85.1455 25.1467H84.7626C84.9923 25.1467 85.2986 25.07 85.5283 24.9933C85.8346 24.84 86.1409 24.61 86.3706 24.0733C86.3706 24.0733 86.3706 23.92 86.4472 23.8433V23.7667V23.69C86.4472 23.69 86.3706 23.7667 86.3706 23.8433C86.3706 23.92 86.294 23.9967 86.2175 24.0733C85.9112 24.5333 85.4518 24.5333 84.6095 24.5333L80.8576 24.61H79.9388C79.7856 24.61 79.709 24.5333 79.709 24.38V24.15C79.709 24.0733 79.6325 24.0733 79.6325 24.0733ZM10.5666 43.5467C10.6432 43.5467 10.7198 43.47 10.6432 43.3933L8.65237 37.7967C8.65237 37.72 8.5758 37.5667 8.5758 37.5667C8.52166 37.5667 8.5058 37.605 8.47409 37.6817C8.46095 37.7134 8.44509 37.7518 8.42266 37.7967L6.35528 43.3933C6.35528 43.47 6.35528 43.5467 6.43185 43.5467H10.5666ZM5.97243 44.6967C5.89587 44.6967 5.8193 44.7733 5.74273 44.85L4.59418 48.1467C4.36447 48.6833 4.2879 49.22 4.2879 49.5267C4.2879 49.91 4.51761 50.2167 5.20674 50.2167H5.51302C5.8193 50.2167 5.8193 50.2933 5.8193 50.37C5.8193 50.5233 5.66616 50.6 5.43645 50.6C5.09188 50.6 4.67075 50.5808 4.24962 50.5617C3.82848 50.5425 3.40735 50.5233 3.06279 50.5233C2.9918 50.5233 2.82577 50.5307 2.59631 50.5408C2.08323 50.5634 1.25304 50.6 0.459418 50.6C0.153139 50.6 0 50.5233 0 50.37C0 50.2167 0.0765697 50.2167 0.229709 50.2167C0.459418 50.2167 0.765697 50.2167 0.918836 50.14C1.91424 49.9867 2.37366 49.22 2.83308 48.07L8.42266 33.81C8.65237 33.12 8.80551 32.89 9.03522 32.89C9.23416 32.89 9.31824 33.0625 9.4864 33.4075L9.48645 33.4076C9.51245 33.461 9.54046 33.5184 9.57121 33.58C9.88927 34.3079 11.2859 37.8706 12.657 41.3682L12.6572 41.3687L12.6577 41.37L12.6578 41.3704L12.6581 41.3711L12.6583 41.3715L12.6585 41.3721C13.5974 43.7672 14.5241 46.1314 15.0842 47.5333C15.9265 49.6033 16.6156 49.91 17.075 49.9867C17.3813 50.0633 17.7642 50.0633 17.9939 50.0633C18.147 50.0633 18.3002 50.0633 18.3002 50.2167C18.3002 50.37 18.0704 50.4467 17.3047 50.4467C16.539 50.4467 14.8545 50.4467 13.0934 50.37C12.7106 50.37 12.4043 50.37 12.4043 50.2167C12.4043 50.0843 12.4614 50.0662 12.6248 50.0144C12.6506 50.0062 12.6792 49.9971 12.7106 49.9867C12.8637 49.91 13.0168 49.7567 12.9403 49.45L11.1792 44.62C11.1587 44.5995 11.1436 44.5789 11.1297 44.5598C11.0916 44.5078 11.0616 44.4667 10.9495 44.4667H5.97243V44.6967ZM23.9663 48.76C23.5069 48.3767 23.5069 46.7667 23.5069 43.7767H23.5835V39.7133C23.5835 36.1867 23.5835 35.5733 23.66 34.8067C23.66 34.04 23.8897 33.58 24.5023 33.5033C24.8086 33.4267 25.1914 33.4267 25.4211 33.4267C25.6508 33.4267 25.804 33.35 25.804 33.1967C25.804 33.0433 25.6508 32.9667 25.3446 32.9667C24.8238 32.9667 24.0326 32.9913 23.3471 33.0126L23.3469 33.0126L23.3466 33.0126L23.3462 33.0127L23.3456 33.0127L23.3435 33.0127L23.3426 33.0128C22.8204 33.029 22.3602 33.0433 22.1286 33.0433C21.8649 33.0433 21.4309 33.0291 20.9366 33.0129C20.2827 32.9915 19.5232 32.9667 18.9127 32.9667C18.5299 32.9667 18.3767 33.0433 18.3767 33.1967C18.3767 33.35 18.5299 33.4267 18.7596 33.4267C19.0658 33.4267 19.3721 33.4267 19.5253 33.5033C20.291 33.6567 20.4441 34.04 20.5207 34.8067C20.5972 35.4967 20.5972 36.1867 20.5972 39.7133V43.7767C20.5972 45.9233 20.5972 47.7633 20.4441 48.76C20.3675 49.45 20.2144 49.9867 19.755 50.0633C19.6547 50.0633 19.5544 50.0779 19.4414 50.0944C19.2956 50.1157 19.1284 50.14 18.9127 50.14C18.6064 50.14 18.5299 50.14 18.5299 50.2933C18.5299 50.4467 18.683 50.5233 18.9893 50.5233C19.2101 50.5233 19.4664 50.5056 19.7325 50.4872H19.7326H19.7326H19.7327L19.7328 50.4872C20.0201 50.4673 20.319 50.4467 20.5972 50.4467H21.8989C22.8178 50.4467 23.66 50.4467 24.732 50.5233C25.2077 50.5233 25.7135 50.5384 26.2763 50.5552C26.9817 50.5763 27.7766 50.6 28.7136 50.6C29.9387 50.6 30.0153 50.5233 30.1685 49.9867C30.3982 49.2967 30.5513 47.5333 30.5513 47.3033C30.5513 47.0733 30.5513 46.92 30.3982 46.92C30.245 46.92 30.1685 47.0733 30.1685 47.3033C30.0919 47.7633 29.8622 48.3767 29.5559 48.6833C28.9433 49.2967 28.0245 49.2967 26.7994 49.2967C24.9617 49.2967 24.3492 49.1433 23.9663 48.76ZM52.5268 40.4033C52.6034 40.4033 52.6799 40.3267 52.6799 40.25V39.79C52.6799 36.2633 52.6799 35.5733 52.6034 34.8833C52.5268 34.1167 52.3737 33.7333 51.608 33.58C51.4548 33.5033 50.9954 33.5033 50.6891 33.5033C50.4594 33.5033 50.3063 33.4267 50.3063 33.2733C50.3063 33.12 50.536 32.9667 50.8423 32.9667C51.5599 32.9667 52.3827 32.993 53.0643 33.0148C53.5462 33.0302 53.9576 33.0433 54.2113 33.0433C54.4434 33.0433 54.8476 33.029 55.3059 33.0127L55.3064 33.0127C55.9068 32.9913 56.6 32.9667 57.121 32.9667C57.4273 32.9667 57.5804 33.0433 57.5804 33.1967C57.5804 33.35 57.4273 33.4267 57.1975 33.4267C57.0444 33.4267 56.8147 33.4267 56.5084 33.5033C55.8959 33.6567 55.6662 34.04 55.6662 34.8067C55.5896 35.5733 55.5896 36.1867 55.5896 39.7133V43.8533C55.5896 46 55.5896 47.84 55.7427 48.8367C55.8193 49.5267 55.9724 49.9867 56.6616 50.0633C56.9678 50.14 57.5038 50.14 57.8101 50.14C58.0398 50.14 58.193 50.2167 58.193 50.2933C58.193 50.4467 58.0398 50.5233 57.7335 50.5233C56.7954 50.5233 55.8861 50.4946 55.1815 50.4723C54.7358 50.4582 54.3721 50.4467 54.1348 50.4467C53.5988 50.5233 52.0674 50.6 51.2251 50.6C50.9188 50.6 50.7657 50.5233 50.7657 50.37C50.7657 50.2167 50.8423 50.2167 51.1485 50.2167C51.3643 50.2167 51.5314 50.1923 51.6773 50.1711C51.7903 50.1546 51.8905 50.14 51.9908 50.14C52.4502 50.0633 52.6034 49.5267 52.6799 48.8367C52.8331 47.84 52.8331 46 52.8331 43.8533V41.7833C52.8331 41.7067 52.7565 41.63 52.6799 41.63H43.6447C43.5681 41.63 43.4916 41.63 43.4916 41.7833V43.8533C43.4916 46 43.4916 47.84 43.6447 48.8367C43.7213 49.5267 43.8744 49.9867 44.5636 50.0633C44.8698 50.14 45.4058 50.14 45.7121 50.14C45.9418 50.14 46.0949 50.2167 46.0949 50.2933C46.0949 50.4467 45.9418 50.5233 45.6355 50.5233C44.6978 50.5233 43.7887 50.4946 43.0842 50.4723H43.084L43.0838 50.4723H43.0836H43.0835H43.0835H43.0833H43.0832H43.083H43.0829H43.0828H43.0826H43.0825H43.0823H43.0822H43.0821H43.0819H43.0818H43.0817H43.0815H43.0814C42.6367 50.4582 42.2737 50.4467 42.0368 50.4467C41.8047 50.4467 41.4005 50.461 40.9422 50.4773L40.9417 50.4773C40.3413 50.4987 39.6481 50.5233 39.1271 50.5233C38.8208 50.5233 38.6677 50.4467 38.6677 50.2933C38.6677 50.14 38.7443 50.14 39.0505 50.14C39.2663 50.14 39.4334 50.1157 39.5793 50.0944C39.6923 50.0779 39.7925 50.0633 39.8928 50.0633C40.3522 49.9867 40.5054 49.45 40.5819 48.76C40.7351 47.7633 40.7351 45.9233 40.7351 43.7767V39.6367C40.7351 36.11 40.7351 35.42 40.6585 34.73C40.5819 33.9633 40.4288 33.58 39.6631 33.4267C39.51 33.35 39.0505 33.35 38.7443 33.35C38.5145 33.35 38.3614 33.2733 38.3614 33.12C38.3614 32.9667 38.5145 32.89 38.8208 32.89C39.5385 32.89 40.3612 32.9163 41.0428 32.9381C41.5248 32.9535 41.9362 32.9667 42.1899 32.9667C42.4219 32.9667 42.8261 32.9523 43.2845 32.936L43.2849 32.936L43.2852 32.936L43.2854 32.936C43.8857 32.9146 44.5787 32.89 45.0995 32.89C45.4058 32.89 45.559 32.9667 45.559 33.12C45.559 33.2733 45.4058 33.35 45.1761 33.35C45.023 33.35 44.7933 33.35 44.487 33.4267C43.8744 33.58 43.6447 33.9633 43.6447 34.73C43.5681 35.4967 43.5681 36.11 43.5681 39.6367V40.0967C43.5681 40.25 43.6447 40.25 43.7213 40.25H52.5268V40.4033ZM61.8683 34.8067C61.9449 35.4967 61.9449 36.1867 61.9449 39.6367H61.7917V42.9333C61.7917 46.23 62.634 47.9167 63.7825 48.99C65.3905 50.5233 67.5345 50.6 68.683 50.6C70.1378 50.6 71.7458 50.37 73.2772 48.99C75.1149 47.3033 75.3446 44.62 75.3446 42.09V39.6367C75.3446 36.1867 75.3446 35.5733 75.4211 34.8067C75.4977 34.04 75.6508 33.58 76.2634 33.5033C76.4931 33.4267 76.6462 33.4267 76.876 33.4267C77.1057 33.4267 77.2588 33.35 77.2588 33.1967C77.2588 33.0433 77.1057 32.9667 76.7994 32.9667C76.2461 32.9667 75.4284 32.9998 74.8674 33.0225C74.5744 33.0343 74.3514 33.0433 74.2726 33.0433C74.2726 33.0433 72.8943 32.9667 71.7458 32.9667C71.4395 32.9667 71.2864 33.0433 71.2864 33.1967C71.2864 33.35 71.4395 33.4267 71.6692 33.4267C71.8989 33.4267 72.2818 33.4267 72.4349 33.5033C73.124 33.6567 73.2772 34.04 73.3538 34.8067C73.4303 35.4967 73.4303 36.1867 73.4303 39.6367V42.4733C73.4303 44.85 73.3538 46.92 72.1286 48.1467C71.2098 49.0667 70.0613 49.3733 69.0658 49.3733C68.3002 49.3733 67.3047 49.2967 66.3093 48.4533C65.2374 47.61 64.6248 46.1533 64.6248 42.8567V39.6367C64.6248 36.1867 64.6248 35.5733 64.7014 34.8067C64.7779 34.04 64.9311 33.58 65.5436 33.5033C65.7734 33.4267 65.9265 33.4267 66.1562 33.4267C66.3859 33.4267 66.5391 33.35 66.5391 33.1967C66.5391 33.0433 66.3859 32.9667 66.0796 32.9667C65.6632 32.9667 65.0656 32.9894 64.5209 33.0101H64.5208L64.5206 33.0101H64.5204H64.5203H64.5202L64.52 33.0101H64.5199H64.5197H64.5196L64.5194 33.0101H64.5193H64.5191H64.5191H64.519C64.0628 33.0274 63.6439 33.0433 63.3997 33.0433C63.0989 33.0433 62.6668 33.0287 62.1798 33.0123H62.1797L62.1795 33.0123C61.5509 32.991 60.8309 32.9667 60.1838 32.9667C59.8775 32.9667 59.7243 33.0433 59.7243 33.1967C59.7243 33.35 59.8775 33.4267 60.1072 33.4267C60.4135 33.4267 60.7963 33.4267 60.9495 33.5033C61.6386 33.6567 61.7917 34.04 61.8683 34.8067ZM88.438 49.22C90.6585 49.22 91.5008 48.6067 91.807 47.9167C92.0118 47.5749 92.0949 47.2332 92.1648 46.9458C92.1733 46.9108 92.1816 46.8766 92.1899 46.8433C92.2067 46.7929 92.2198 46.7462 92.2316 46.7039C92.2738 46.5535 92.3 46.46 92.4196 46.46C92.5727 46.46 92.6493 46.6133 92.6493 47.15C92.6493 47.9167 92.343 49.3733 92.1899 49.9867C92.1133 50.37 91.9602 50.6 91.5773 50.6C89.8648 50.6 88.1522 50.5653 86.3572 50.5289L86.3568 50.5289C84.3798 50.4888 82.3027 50.4467 80.0153 50.4467C79.7856 50.4467 79.6325 50.37 79.6325 50.2167C79.6325 50.0633 79.709 49.91 79.9388 49.5267C83.0015 44.4667 86.1409 39.2533 89.0505 34.3467H84.8392C83.7672 34.3467 82.389 34.4233 81.6999 34.8067C81.0107 35.19 80.6279 36.11 80.5513 36.57C80.4747 36.8767 80.3982 36.9533 80.3216 36.9533C80.1685 36.9533 80.1685 36.8 80.1685 36.57C80.1685 36.0333 80.4747 33.9633 80.6279 33.2733C80.7044 32.9667 80.781 32.8133 80.8576 32.8133C80.9485 32.8133 81.0154 32.8373 81.0963 32.8663C81.2198 32.9107 81.3759 32.9667 81.6999 32.9667C83.7672 33.0433 84.7626 33.0433 85.6815 33.0433H92.2665C92.4962 33.0433 92.6493 33.12 92.6493 33.1967C92.6493 33.35 92.5727 33.5033 92.4962 33.6567C90.5856 36.9431 88.5496 40.2924 86.5487 43.5839L86.5483 43.5845L86.548 43.585L86.5478 43.5854L86.5471 43.5865L86.5457 43.5888L86.5437 43.5921L86.5412 43.5962C85.4173 45.4451 84.3045 47.2757 83.2312 49.0667H88.438V49.22ZM103.292 43.3933C103.369 43.47 103.292 43.5467 103.216 43.5467H99.0812C99.0046 43.5467 99.0046 43.47 99.0046 43.3933L101.072 37.7967C101.094 37.7518 101.11 37.7134 101.123 37.6817C101.155 37.605 101.171 37.5667 101.225 37.5667C101.225 37.5667 101.302 37.72 101.302 37.7967L103.292 43.3933ZM98.392 44.85C98.4686 44.7733 98.5452 44.6967 98.6217 44.6967V44.39H103.522C103.634 44.39 103.664 44.4311 103.702 44.4832C103.716 44.5022 103.731 44.5228 103.752 44.5433L105.513 49.3733C105.59 49.68 105.436 49.8333 105.283 49.91L105.25 49.9209L105.198 49.9377C105.034 49.9895 104.977 50.0076 104.977 50.14C104.977 50.2933 105.283 50.2933 105.666 50.2933C107.427 50.37 109.112 50.37 109.877 50.37C110.643 50.37 110.873 50.2933 110.873 50.14C110.873 49.9867 110.72 49.9867 110.567 49.9867C110.337 49.9867 109.954 49.9867 109.648 49.91C109.188 49.8333 108.499 49.5267 107.657 47.4567C107.097 46.056 106.172 43.695 105.234 41.3022L105.232 41.2962L105.231 41.2951C103.86 37.7963 102.462 34.2315 102.144 33.5033L102.109 33.433L102.059 33.3308C101.891 32.9858 101.807 32.8133 101.608 32.8133C101.378 32.8133 101.225 33.0433 100.995 33.7333L95.4058 47.9933C94.9464 49.1433 94.487 49.91 93.4916 50.0633C93.3384 50.14 93.0322 50.14 92.8024 50.14C92.6493 50.14 92.5727 50.14 92.5727 50.2933C92.5727 50.4467 92.7259 50.5233 93.0322 50.5233C93.8258 50.5233 94.656 50.4867 95.169 50.4641C95.3985 50.454 95.5645 50.4467 95.6355 50.4467C95.9801 50.4467 96.4012 50.4658 96.8224 50.485C97.2435 50.5042 97.6646 50.5233 98.0092 50.5233C98.2389 50.5233 98.392 50.4467 98.392 50.2933C98.392 50.2167 98.392 50.14 98.0858 50.14H97.7795C97.0903 50.14 96.8606 49.8333 96.8606 49.45C96.8606 49.1433 96.9372 48.6067 97.1669 48.07L98.392 44.85ZM113.093 39.7133C113.093 36.1867 113.093 35.4967 113.017 34.8067C112.94 34.04 112.711 33.58 112.175 33.5033C111.945 33.4267 111.639 33.4267 111.332 33.4267C111.103 33.4267 110.949 33.35 110.949 33.1967C110.949 33.0433 111.103 33.0433 111.485 33.0433C111.978 33.0433 112.624 33.0653 113.224 33.0858L113.224 33.0858C113.744 33.1035 114.228 33.12 114.548 33.12C114.824 33.12 115.253 33.1045 115.727 33.0875L115.727 33.0875H115.727L115.727 33.0874C116.307 33.0666 116.952 33.0433 117.458 33.0433C117.764 33.0433 117.917 33.12 117.917 33.1967C117.917 33.35 117.764 33.4267 117.534 33.4267C117.305 33.4267 117.075 33.4267 116.845 33.5033C116.233 33.6567 116.003 34.04 116.003 34.8067C115.926 35.5733 115.926 36.1867 115.926 39.7133V43.8533C115.926 46.1533 115.926 47.9933 116.003 48.99C116.08 49.6033 116.233 50.0633 116.922 50.14C117.228 50.2167 117.764 50.2167 118.147 50.2167C118.377 50.2167 118.53 50.2933 118.53 50.37C118.53 50.5233 118.377 50.6 118.07 50.6C117.132 50.6 116.194 50.5712 115.467 50.5489C115.008 50.5348 114.632 50.5233 114.395 50.5233C114.163 50.5233 113.745 50.5377 113.27 50.554L113.269 50.554L113.269 50.554H113.269L113.269 50.554C112.647 50.5754 111.93 50.6 111.409 50.6C111.103 50.6 110.949 50.5233 110.949 50.37C110.949 50.2167 111.026 50.2167 111.332 50.2167C111.548 50.2167 111.715 50.1923 111.861 50.1711C111.974 50.1546 112.074 50.14 112.175 50.14C112.634 50.0633 112.787 49.68 112.864 48.99C113.017 47.9933 113.017 46.1533 113.017 43.93V39.7133H113.093ZM126.417 48.8367C126.263 47.84 126.263 46.1533 126.263 43.93H126.493V42.32C126.493 42.1667 126.493 42.09 126.646 42.09C127.029 42.09 129.479 42.09 130.092 42.1667C130.781 42.2433 131.087 42.7033 131.24 43.01C131.317 43.24 131.394 43.5467 131.394 43.7C131.394 43.8533 131.394 44.0067 131.547 44.0067C131.776 44.0067 131.776 43.7767 131.776 43.5467C131.776 43.3933 131.776 42.32 131.853 41.86C131.853 41.3302 131.926 40.9103 131.971 40.6508L131.971 40.6502C131.992 40.5344 132.006 40.4506 132.006 40.4033C132.006 40.25 131.93 40.1733 131.853 40.1733C131.745 40.1733 131.713 40.2117 131.65 40.2883C131.623 40.3201 131.592 40.3584 131.547 40.4033C131.317 40.6333 131.011 40.7867 130.551 40.7867H129.479H126.493C126.34 40.7867 126.34 40.71 126.34 40.5567V34.8067C126.34 34.5767 126.417 34.5 126.57 34.5L130.168 34.5767C131.011 34.5767 131.547 34.96 131.7 35.2667C131.853 35.5733 131.853 35.9567 131.853 36.11C131.853 36.4167 131.93 36.4933 132.083 36.4933C132.236 36.4933 132.312 36.34 132.312 36.1867C132.389 35.9567 132.466 34.5767 132.466 34.3467C132.466 33.9386 132.533 33.6663 132.579 33.4846L132.579 33.4845L132.579 33.4844L132.579 33.4843L132.579 33.4842L132.579 33.484L132.579 33.4839L132.579 33.4838L132.579 33.4837L132.579 33.4836L132.579 33.4835C132.602 33.3926 132.619 33.3244 132.619 33.2733C132.619 33.12 132.542 33.0433 132.466 33.0433C132.353 33.0433 132.282 33.0844 132.192 33.1365C132.159 33.1556 132.124 33.1761 132.083 33.1967C131.853 33.2733 131.623 33.2733 131.164 33.2733H125.038C124.911 33.2733 124.745 33.2602 124.55 33.2448C124.275 33.223 123.942 33.1967 123.583 33.1967H121.669C121.286 33.1967 121.133 33.2733 121.133 33.4267C121.133 33.5033 121.286 33.58 121.516 33.58C121.822 33.58 122.282 33.58 122.435 33.6567C123.201 33.81 123.354 34.1933 123.43 34.96C123.507 35.7267 123.507 36.34 123.507 39.8667V43.93C123.507 46.1533 123.507 47.84 123.354 48.8367C123.277 49.5267 123.124 50.0633 122.665 50.14C122.564 50.14 122.464 50.1546 122.351 50.1711C122.205 50.1923 122.038 50.2167 121.822 50.2167C121.516 50.2167 121.44 50.2167 121.44 50.37C121.44 50.5233 121.593 50.6 121.899 50.6C122.354 50.6 122.987 50.5777 123.569 50.5571H123.569C124.066 50.5396 124.527 50.5233 124.809 50.5233C125.05 50.5233 125.421 50.5352 125.872 50.5496C126.566 50.5718 127.448 50.6 128.331 50.6C128.714 50.6 128.867 50.5233 128.867 50.37C128.867 50.2933 128.79 50.2167 128.484 50.2167C128.178 50.2167 127.642 50.2167 127.335 50.14C126.646 49.9867 126.493 49.5267 126.417 48.8367ZM142.266 43.5467C142.343 43.5467 142.42 43.47 142.343 43.3933L140.352 37.7967C140.352 37.72 140.276 37.5667 140.276 37.5667C140.222 37.5667 140.206 37.605 140.174 37.6817L140.174 37.6818C140.161 37.7135 140.145 37.7518 140.123 37.7967L138.055 43.3933C138.055 43.47 138.055 43.5467 138.132 43.5467H142.266ZM137.672 44.6967C137.596 44.6967 137.519 44.7733 137.443 44.85L136.217 48.07C135.988 48.6067 135.911 49.1433 135.911 49.45C135.911 49.8333 136.141 50.14 136.83 50.14H137.136C137.443 50.14 137.443 50.2167 137.443 50.2933C137.443 50.4467 137.289 50.5233 137.06 50.5233C136.715 50.5233 136.294 50.5042 135.873 50.485C135.452 50.4658 135.031 50.4467 134.686 50.4467C134.615 50.4467 134.449 50.454 134.22 50.4641C133.706 50.4867 132.876 50.5233 132.083 50.5233C131.776 50.5233 131.623 50.4467 131.623 50.2933C131.623 50.14 131.7 50.14 131.93 50.14C132.159 50.14 132.466 50.14 132.619 50.0633C133.614 49.91 134.074 49.1433 134.533 47.9933L140.123 33.7333C140.151 33.6683 140.178 33.6074 140.203 33.5504L140.205 33.5455C140.445 33.0009 140.528 32.8133 140.735 32.8133C140.934 32.8133 141.018 32.9858 141.186 33.3308C141.212 33.3842 141.24 33.4417 141.271 33.5033C141.589 34.2315 142.987 37.7966 144.358 41.2955C145.297 43.6906 146.224 46.0547 146.784 47.4567C147.626 49.5267 148.315 49.8333 148.775 49.91C149.081 49.9867 149.464 49.9867 149.694 49.9867C149.847 49.9867 150 49.9867 150 50.14C150 50.2933 149.77 50.37 149.005 50.37C148.162 50.37 146.554 50.37 144.793 50.2933C144.41 50.2933 144.104 50.2933 144.104 50.14C144.104 50.0076 144.161 49.9895 144.325 49.9377C144.35 49.9295 144.379 49.9205 144.41 49.91C144.564 49.8333 144.717 49.68 144.64 49.3733L142.879 44.5433C142.859 44.5228 142.844 44.5023 142.83 44.4833L142.83 44.4832C142.791 44.4311 142.761 44.39 142.649 44.39H137.672V44.6967ZM45.7121 58.8033C45.4824 59.1867 45.3292 59.6467 45.1761 60.1067L45.023 60.8733H43.8744L43.7979 61.0267H44.9464L43.5681 66.01C43.2619 67.0067 42.9556 67.7733 42.6493 68.2333C42.343 68.6933 41.9602 68.9233 41.6539 68.9233C41.5773 68.9233 41.5008 68.9233 41.4242 68.8467C41.3476 68.77 41.3476 68.6933 41.3476 68.6167C41.3476 68.54 41.3476 68.3867 41.4242 68.31C41.5008 68.1567 41.5008 68.08 41.5008 68.0033C41.5008 67.9267 41.5008 67.85 41.4242 67.7733C41.3476 67.6967 41.2711 67.6967 41.1945 67.6967C40.9648 67.6967 40.8116 67.7733 40.7351 67.85C40.6585 67.9267 40.5819 68.08 40.5819 68.2333C40.5819 68.3867 40.5819 68.4633 40.6585 68.6167L40.8882 68.8467C40.9648 68.9233 41.0413 69 41.1945 69H41.5008C41.807 69 42.1899 68.9233 42.4962 68.6933C42.8532 68.4789 43.077 68.1977 43.3539 67.85L43.415 67.7733C43.6447 67.39 43.8744 66.93 44.1041 66.47C44.3338 65.9333 44.487 65.4733 44.6401 64.9367L45.7121 60.8733H47.2435L47.3201 60.72H45.7887L46.0184 59.8C46.0501 59.7365 46.0818 59.6467 46.1189 59.5415L46.119 59.5414C46.1715 59.3926 46.2349 59.213 46.3247 59.0333C46.4012 58.65 46.5544 58.3433 46.7841 58.0367C46.9372 57.6533 47.1669 57.4233 47.4732 57.1933C47.7795 56.9633 48.0858 56.8867 48.4686 56.8867C48.5452 56.8867 48.6983 56.8867 48.7749 56.9633C48.8515 57.04 48.928 57.1167 48.928 57.27C48.928 57.3083 48.9089 57.3275 48.8897 57.3467C48.8706 57.3658 48.8515 57.385 48.8515 57.4233C48.8515 57.4617 48.8323 57.4808 48.8132 57.5C48.794 57.5192 48.7749 57.5383 48.7749 57.5767C48.7749 57.5767 48.6983 57.6533 48.6983 57.73C48.6217 57.8067 48.6217 57.8833 48.6217 57.96C48.6217 58.0367 48.6983 58.1133 48.7749 58.19C48.8515 58.2667 49.0046 58.2667 49.1577 58.2667C49.3874 58.2667 49.5406 58.19 49.6171 58.0367C49.6937 57.96 49.7703 57.8067 49.7703 57.6533V57.4233C49.732 57.385 49.6937 57.3275 49.6554 57.27C49.6171 57.2125 49.5789 57.155 49.5406 57.1167C49.464 57.04 49.3109 56.9633 49.1577 56.8867C49.0046 56.81 48.8515 56.81 48.6217 56.81C48.2389 56.81 47.9326 56.8867 47.5498 57.04C47.1669 57.1933 46.8606 57.4233 46.5544 57.73C46.2481 58.0367 45.9418 58.42 45.7121 58.8033ZM52.8331 60.5667L51.4548 64.5533C51.4165 64.63 51.3974 64.7067 51.3783 64.7833C51.3591 64.86 51.34 64.9367 51.3017 65.0133C51.3017 65.1031 51.2754 65.1667 51.2536 65.2193C51.2383 65.2565 51.2251 65.2882 51.2251 65.32C51.2251 65.3967 51.2251 65.55 51.3017 65.6267C51.3783 65.7033 51.4548 65.78 51.608 65.78C51.8377 65.78 52.0674 65.7033 52.2971 65.55C52.4212 65.4671 52.5454 65.3619 52.6816 65.2463L52.6819 65.2461L52.6822 65.2459L52.6823 65.2457L52.6824 65.2456L52.6827 65.2454L52.6833 65.2449L52.6837 65.2446C52.7989 65.1468 52.9229 65.0417 53.0628 64.9367C53.2925 64.7067 53.5222 64.4 53.7519 64.0933C53.9816 63.7867 54.1348 63.48 54.2113 63.1733L55.0536 60.6433H55.8959L54.5176 64.7833C54.4793 64.86 54.4602 64.9175 54.441 64.975C54.4219 65.0325 54.4028 65.09 54.3645 65.1667C54.2879 65.32 54.2879 65.3967 54.2879 65.55C54.2879 65.6267 54.2879 65.7033 54.3645 65.78C54.441 65.8567 54.5176 65.8567 54.5942 65.8567C54.7063 65.8567 54.7774 65.8156 54.8675 65.7635L54.8676 65.7634L54.8679 65.7633C54.9007 65.7443 54.9362 65.7238 54.977 65.7033C55.0838 65.6499 55.1534 65.5592 55.2116 65.4831L55.2117 65.483C55.237 65.4501 55.2601 65.4199 55.2833 65.3967C55.3216 65.32 55.3599 65.2625 55.3982 65.205C55.4365 65.1475 55.4747 65.09 55.513 65.0133C55.5423 64.9548 55.5715 64.9074 55.5965 64.8669C55.6369 64.8014 55.6662 64.7541 55.6662 64.7067L55.8193 64.7833C55.8193 64.8307 55.7901 64.8781 55.7496 64.9436C55.7247 64.9841 55.6954 65.0314 55.6662 65.09C55.5896 65.2433 55.513 65.32 55.3599 65.4733C55.2067 65.6267 55.1302 65.7033 54.9005 65.8567C54.7473 65.9333 54.5176 66.01 54.2879 66.01C54.0582 66.01 53.8285 65.9333 53.6753 65.8567C53.5222 65.78 53.4456 65.55 53.4456 65.32C53.4456 65.1667 53.4456 65.0133 53.5222 64.9367C53.5222 64.7833 53.5988 64.63 53.6753 64.4767C53.5988 64.63 53.4456 64.7833 53.2925 64.9367C53.244 64.9852 53.1955 65.0415 53.1446 65.1005C53.0347 65.228 52.9135 65.3686 52.7565 65.4733C52.6034 65.6267 52.3737 65.78 52.2205 65.8567C52.1517 65.8567 52.0674 65.8722 51.9746 65.8892C51.8609 65.9101 51.7344 65.9333 51.608 65.9333C51.3017 65.9333 50.9954 65.8567 50.7657 65.7033C50.536 65.55 50.4594 65.32 50.4594 65.0133C50.4594 64.86 50.4594 64.7833 50.536 64.5533C50.5743 64.4767 50.5934 64.4 50.6126 64.3233C50.6317 64.2467 50.6508 64.17 50.6891 64.0933L51.8377 60.72H50.7657L50.8423 60.5667H52.8331ZM61.3323 60.7967C61.3323 61.0267 61.2557 61.2567 61.1792 61.4867C61.1026 61.7167 61.026 61.9467 60.9495 62.1L59.7243 65.9333H60.49L61.3323 63.25C61.4089 62.8667 61.562 62.56 61.7152 62.2533C61.8188 62.0457 61.9576 61.8381 62.0839 61.6543L62.098 61.64C62.1024 61.6313 62.1069 61.6226 62.1118 61.6139L62.1319 61.5847L62.1322 61.5843L62.1326 61.5837C62.1696 61.5301 62.2049 61.4789 62.2372 61.4308C62.2529 61.4104 62.2691 61.3896 62.2859 61.3681L62.286 61.368L62.2863 61.3675L62.2865 61.3673L62.2868 61.3669C62.3334 61.3071 62.3839 61.2424 62.4352 61.1699C62.4978 61.0964 62.563 61.0259 62.6251 60.9613C62.7301 60.8613 62.8352 60.7726 62.9403 60.72C63.0725 60.6538 63.2618 60.5876 63.4096 60.5708C63.4574 60.5775 63.5051 60.5955 63.5528 60.6433C63.6294 60.72 63.6294 60.7967 63.6294 60.8733C63.6294 60.9117 63.6103 60.95 63.5911 60.9883C63.572 61.0267 63.5528 61.065 63.5528 61.1033C63.5528 61.1417 63.5337 61.1608 63.5145 61.18C63.4954 61.1992 63.4763 61.2183 63.4763 61.2567C63.4763 61.295 63.4571 61.3142 63.438 61.3333C63.4188 61.3525 63.3997 61.3717 63.3997 61.41C63.3231 61.4867 63.3231 61.5633 63.3231 61.64C63.3231 61.7167 63.3231 61.7933 63.3997 61.87C63.3997 61.9467 63.5528 61.9467 63.6294 61.9467H63.8591C63.9357 61.9467 64.0123 61.9467 64.0888 61.87C64.1271 61.8317 64.1462 61.7933 64.1654 61.755C64.1845 61.7167 64.2037 61.6783 64.242 61.64C64.3185 61.5633 64.3185 61.4867 64.3185 61.3333C64.3185 61.18 64.242 60.95 64.0888 60.7967C63.9357 60.6433 63.7825 60.5667 63.4763 60.5667C63.4553 60.5667 63.433 60.5681 63.4096 60.5708C63.3808 60.5667 63.352 60.5667 63.3231 60.5667C63.17 60.5667 63.0168 60.6433 62.7871 60.7967L62.7871 60.7967C62.739 60.8448 62.6834 60.9005 62.6251 60.9613C62.577 61.0071 62.529 61.0552 62.4809 61.1033L62.4809 61.1033L62.4693 61.1205L62.4566 61.1391L62.4352 61.1699C62.3688 61.2477 62.3052 61.3288 62.2511 61.41L62.2372 61.4308C62.1877 61.4954 62.1444 61.5549 62.1118 61.6139L62.0839 61.6543C61.9401 61.8029 61.8659 61.9514 61.7918 62.1L61.7917 62.1C61.83 61.985 61.8683 61.8508 61.9066 61.7167C61.9449 61.5825 61.9832 61.4483 62.0214 61.3333C62.0535 61.2049 62.0721 61.0899 62.0886 60.9884L62.0886 60.9883C62.1114 60.8474 62.1301 60.7324 62.1746 60.6433H60.4135L60.3369 60.7967H61.3323ZM68.0704 60.6433H69.8315L69.2956 62.1C69.9847 61.1033 70.6738 60.5667 71.3629 60.5667C71.6692 60.5667 71.8989 60.6433 72.1286 60.8733C72.2818 61.0267 72.4349 61.2567 72.4349 61.5633C72.4349 61.7167 72.4349 61.87 72.3583 61.9467C72.3201 62.0233 72.3009 62.1 72.2818 62.1767C72.2626 62.2533 72.2435 62.33 72.2052 62.4067L71.5161 64.63C71.4825 64.6972 71.4637 64.7645 71.4466 64.8252C71.4248 64.9031 71.4059 64.9703 71.3629 65.0133C71.3629 65.09 71.3438 65.1475 71.3247 65.205C71.3055 65.2625 71.2864 65.32 71.2864 65.3967C71.2864 65.4733 71.2864 65.55 71.3629 65.6267C71.3629 65.7033 71.4395 65.78 71.5927 65.78C71.7048 65.78 71.7758 65.7389 71.8659 65.6868C71.8989 65.6678 71.9345 65.6472 71.9755 65.6267C71.9987 65.6035 72.0289 65.5802 72.0619 65.5549C72.1378 65.4966 72.2284 65.4269 72.2818 65.32C72.3583 65.2433 72.4349 65.09 72.5115 64.9367C72.5407 64.8781 72.57 64.8307 72.595 64.7903C72.6354 64.7248 72.6646 64.6774 72.6646 64.63L72.8178 64.7067C72.8178 64.7541 72.7885 64.8014 72.7481 64.8669C72.7231 64.9074 72.6939 64.9548 72.6646 65.0133C72.6263 65.09 72.5881 65.1475 72.5498 65.205L72.5497 65.2051L72.5496 65.2052C72.5114 65.2626 72.4732 65.3201 72.4349 65.3967C72.3583 65.55 72.2052 65.6267 72.0521 65.7033C71.8989 65.78 71.7458 65.8567 71.5161 65.8567C71.2864 65.8567 71.0567 65.78 70.9035 65.7033C70.7504 65.6267 70.6738 65.3967 70.6738 65.1667C70.6738 65.09 70.6738 64.9367 70.7504 64.86C70.7504 64.8282 70.7635 64.7833 70.7789 64.7307C70.8007 64.6563 70.827 64.5665 70.827 64.4767L71.7458 61.64C71.8224 61.4867 71.8224 61.2567 71.8224 61.18C71.8224 61.1033 71.8224 60.95 71.7458 60.8733C71.6692 60.7967 71.5927 60.72 71.4395 60.72C71.2864 60.72 71.0567 60.7967 70.9035 60.95C70.6738 61.1033 70.4441 61.2567 70.291 61.4867C70.0613 61.7167 69.9081 61.9467 69.6784 62.33C69.5253 62.6367 69.3721 62.9433 69.219 63.3267L68.147 65.78H67.3813L68.9893 60.7967H67.9939L68.0704 60.6433ZM78.3308 56.7333C78.1776 56.7333 78.0245 56.81 77.9479 56.8867C77.8714 57.04 77.7948 57.1933 77.7948 57.3467C77.7948 57.5767 77.8714 57.73 77.9479 57.8067C78.0245 57.8833 78.1776 57.96 78.3308 57.96C78.4839 57.96 78.6371 57.8833 78.7136 57.8067L78.7136 57.8066C78.7902 57.6533 78.8668 57.5 78.8668 57.3467C78.8668 57.1167 78.7902 56.9633 78.7136 56.8867C78.6371 56.81 78.4839 56.7333 78.3308 56.7333ZM76.2634 60.3367L76.1868 60.49H77.1822L76.0337 64.2467C75.9954 64.3233 75.9763 64.4 75.9571 64.4767C75.938 64.5533 75.9188 64.63 75.8805 64.7067C75.804 64.86 75.804 65.0133 75.804 65.1667C75.804 65.4733 75.8805 65.6267 76.1103 65.7033C76.2634 65.78 76.4931 65.8567 76.7228 65.8567C76.9525 65.8567 77.1822 65.78 77.3354 65.7033C77.3896 65.649 77.4438 65.6044 77.4946 65.5625L77.4947 65.5624C77.5874 65.4861 77.6688 65.419 77.7182 65.32C77.7948 65.2433 77.8714 65.09 77.9479 64.9367C77.9772 64.8781 78.0064 64.8307 78.0314 64.7903C78.0718 64.7248 78.1011 64.6774 78.1011 64.63L77.9479 64.5533C77.9006 64.6007 77.8825 64.6481 77.8576 64.7136L77.8575 64.7137C77.8421 64.7541 77.824 64.8015 77.7948 64.86C77.7565 64.9367 77.7182 64.9942 77.6799 65.0517C77.6416 65.1092 77.6034 65.1667 77.5651 65.2433L77.2588 65.55C77.2178 65.5705 77.1822 65.5911 77.1492 65.6102C77.0591 65.6622 76.9881 65.7033 76.876 65.7033C76.7994 65.7033 76.7228 65.7033 76.6462 65.6267C76.5697 65.55 76.5697 65.4733 76.5697 65.3967C76.5697 65.32 76.5888 65.2625 76.608 65.205C76.6271 65.1475 76.6462 65.09 76.6462 65.0133C76.6462 64.9367 76.6654 64.8792 76.6845 64.8217C76.7037 64.7642 76.7228 64.7067 76.7228 64.63L78.0245 60.3367H76.2634ZM84.8392 59.0333L84.8105 59.11H83.9969L83.5375 60.3367H82.389L82.3124 60.49H83.461L82.2358 63.94C82.1976 64.055 82.1593 64.1508 82.121 64.2466C82.0827 64.3425 82.0444 64.4383 82.0061 64.5533C81.9296 64.7833 81.9296 65.0133 81.9296 65.1667C81.9296 65.32 82.0061 65.55 82.1593 65.7033C82.3124 65.8567 82.5421 65.9333 82.8484 65.9333C83.1547 65.9333 83.3844 65.8567 83.5375 65.78C83.6141 65.7033 83.6907 65.6458 83.7672 65.5883C83.8438 65.5308 83.9204 65.4733 83.9969 65.3967C84.1501 65.2433 84.2266 65.09 84.3032 64.9367C84.3325 64.8781 84.3617 64.8307 84.3867 64.7903C84.4271 64.7248 84.4564 64.6774 84.4564 64.63L84.3032 64.5533C84.3032 64.6007 84.274 64.6481 84.2335 64.7136C84.2086 64.7541 84.1793 64.8014 84.1501 64.86C84.1118 64.9367 84.0544 64.9942 83.9969 65.0517C83.9395 65.1092 83.8821 65.1667 83.8438 65.2433C83.7672 65.2817 83.7098 65.3392 83.6524 65.3967C83.5949 65.4542 83.5375 65.5117 83.461 65.55C83.3078 65.6267 83.1547 65.7033 83.0015 65.7033C82.8484 65.7033 82.7718 65.6267 82.6953 65.55C82.6187 65.4733 82.6187 65.3967 82.6187 65.2433C82.6187 65.1667 82.6187 65.0133 82.6953 64.86C82.7335 64.7833 82.7527 64.7258 82.7718 64.6683C82.791 64.6108 82.8101 64.5533 82.8484 64.4767L84.3032 60.4133H85.6815L85.758 60.26H84.3798L84.8105 59.11H84.8392V59.0333ZM90.3257 60.6433L90.3522 60.5667V60.6433H90.3257ZM90.3257 60.6433L88.974 64.5533C88.9357 64.63 88.9165 64.7067 88.8974 64.7833C88.8783 64.86 88.8591 64.9367 88.8208 65.0133C88.8208 65.1031 88.7946 65.1667 88.7728 65.2193C88.7574 65.2565 88.7443 65.2882 88.7443 65.32C88.7443 65.3967 88.7443 65.55 88.8208 65.6267C88.8974 65.7033 88.974 65.78 89.1271 65.78C89.3568 65.78 89.5865 65.7033 89.8162 65.55C89.9405 65.467 90.0648 65.3616 90.2012 65.2459L90.2013 65.2459L90.2015 65.2457L90.2017 65.2455C90.3173 65.1475 90.4416 65.0421 90.5819 64.9367C90.8116 64.7067 91.0414 64.4 91.2711 64.0933C91.5008 63.7867 91.6539 63.48 91.7305 63.1733L92.5727 60.6433H93.415L92.0368 64.7833C91.9985 64.86 91.9793 64.9175 91.9602 64.975C91.941 65.0325 91.9219 65.09 91.8836 65.1667C91.807 65.32 91.807 65.3967 91.807 65.55C91.807 65.6267 91.807 65.7033 91.8836 65.78C91.9602 65.8567 92.0368 65.8567 92.1133 65.8567C92.2254 65.8567 92.2965 65.8156 92.3866 65.7635C92.4052 65.7527 92.4247 65.7415 92.4455 65.73C92.4615 65.7212 92.4783 65.7123 92.4962 65.7033C92.603 65.6499 92.6725 65.5592 92.7308 65.4831C92.7561 65.4501 92.7793 65.4199 92.8025 65.3967C92.8407 65.32 92.879 65.2625 92.9173 65.205C92.9556 65.1475 92.9939 65.09 93.0322 65.0133C93.0614 64.9548 93.0906 64.9075 93.1156 64.867L93.1156 64.8669C93.1561 64.8014 93.1853 64.754 93.1853 64.7067L93.3384 64.7833C93.3384 64.8307 93.3092 64.8781 93.2688 64.9436C93.2438 64.9841 93.2145 65.0314 93.1853 65.09C93.1087 65.2433 93.0322 65.32 92.879 65.4733C92.7259 65.6267 92.6493 65.7033 92.4196 65.8567C92.2665 65.9333 92.0368 66.01 91.807 66.01C91.5773 66.01 91.3476 65.9333 91.1945 65.8567C91.0414 65.78 90.9648 65.55 90.9648 65.32C90.9648 65.1667 90.9648 65.0133 91.0414 64.9367C91.0414 64.7833 91.1179 64.63 91.1945 64.4767C91.1179 64.63 90.9648 64.7833 90.8116 64.9367C90.7631 64.9852 90.7147 65.0415 90.6637 65.1005C90.5538 65.228 90.4326 65.3686 90.2757 65.4733C90.1225 65.6267 89.8928 65.78 89.7397 65.8567C89.6917 65.8727 89.6471 65.8887 89.6044 65.904C89.4427 65.962 89.3089 66.01 89.1271 66.01C88.8208 66.01 88.5145 65.9333 88.2848 65.78C88.0551 65.6267 87.9786 65.3967 87.9786 65.09C87.9786 64.9367 87.9786 64.86 88.0551 64.63C88.0934 64.5533 88.1126 64.4767 88.1317 64.4C88.1508 64.3233 88.17 64.2467 88.2083 64.17L89.3568 60.7967H88.2848L88.3614 60.6433H90.3257ZM98.6983 61.4867C98.7749 61.2567 98.8515 61.0267 98.8515 60.7967H97.856L97.9326 60.6433H99.6937C99.6492 60.7324 99.6306 60.8474 99.6078 60.9883L99.6077 60.9883C99.5913 61.0899 99.5726 61.2049 99.5406 61.3333C99.5023 61.4483 99.464 61.5825 99.4257 61.7167C99.3874 61.8508 99.3492 61.985 99.3109 62.1C99.3851 61.9514 99.4593 61.8029 99.6031 61.6543C99.4767 61.8381 99.338 62.0457 99.2343 62.2533C99.0812 62.56 98.928 62.8667 98.8515 63.25L98.0092 65.9333H97.2435L98.4686 62.1C98.5452 61.9467 98.6217 61.7167 98.6983 61.4867ZM99.6309 61.6139C99.6261 61.6226 99.6215 61.6313 99.6171 61.64L99.6031 61.6543L99.6309 61.6139ZM99.7564 61.4308C99.7239 61.4791 99.6884 61.5306 99.6511 61.5846L99.6309 61.6139C99.6635 61.555 99.7068 61.4954 99.7564 61.4308ZM99.9543 61.1699C99.9028 61.2428 99.8521 61.3078 99.8052 61.3678L99.805 61.3681C99.7883 61.3896 99.772 61.4104 99.7564 61.4308L99.7703 61.41C99.8243 61.3288 99.8879 61.2477 99.9543 61.1699ZM100.144 60.9613C100.082 61.0259 100.017 61.0964 99.9543 61.1699C99.9624 61.1585 99.9705 61.1469 99.9786 61.1351C99.9857 61.1246 99.9929 61.1141 100 61.1033C100.048 61.0552 100.096 61.0071 100.144 60.9613ZM100.929 60.5708C100.781 60.5876 100.592 60.6538 100.459 60.72C100.354 60.7726 100.249 60.8613 100.144 60.9613C100.203 60.9004 100.258 60.8448 100.306 60.7967C100.536 60.6433 100.689 60.5667 100.842 60.5667C100.871 60.5667 100.9 60.5667 100.929 60.5708ZM100.929 60.5708C100.952 60.5681 100.974 60.5667 100.995 60.5667C101.302 60.5667 101.455 60.6433 101.608 60.7967C101.761 60.95 101.838 61.18 101.838 61.3333C101.838 61.4867 101.838 61.5633 101.761 61.64C101.723 61.6783 101.704 61.7167 101.685 61.755C101.665 61.7933 101.646 61.8317 101.608 61.87C101.531 61.9467 101.455 61.9467 101.378 61.9467H101.149C101.072 61.9467 100.919 61.9467 100.919 61.87C100.842 61.7933 100.842 61.7167 100.842 61.64C100.842 61.5633 100.842 61.4867 100.919 61.41C100.919 61.3717 100.938 61.3525 100.957 61.3333C100.976 61.3142 100.995 61.295 100.995 61.2567C100.995 61.2183 101.015 61.1992 101.034 61.18C101.053 61.1608 101.072 61.1417 101.072 61.1033C101.072 61.065 101.091 61.0267 101.11 60.9883C101.129 60.95 101.149 60.9117 101.149 60.8733C101.149 60.7967 101.149 60.72 101.072 60.6433C101.024 60.5955 100.976 60.5775 100.929 60.5708ZM107.427 60.72C107.657 60.72 107.81 60.7967 107.887 60.8733C107.963 61.0267 108.04 61.18 108.04 61.41C108.04 61.64 107.963 61.87 107.887 62.0233C107.836 62.0744 107.793 62.1256 107.751 62.1767C107.665 62.2789 107.58 62.3811 107.427 62.4833C107.312 62.5217 107.198 62.5792 107.083 62.6367C106.968 62.6942 106.853 62.7517 106.738 62.79C106.508 62.8667 106.279 62.9433 105.972 62.9433C105.846 62.9433 105.72 62.9201 105.606 62.8992C105.513 62.8822 105.429 62.8667 105.36 62.8667C105.436 62.6367 105.513 62.4067 105.666 62.1767L106.126 61.4867C106.279 61.2567 106.508 61.1033 106.738 60.95C106.968 60.7967 107.198 60.72 107.427 60.72ZM107.512 65.311C107.635 65.1862 107.748 65.0615 107.81 64.9367C107.861 64.8345 107.912 64.7663 108.054 64.7095C108.024 64.7509 107.993 64.7995 107.963 64.86C107.864 64.9095 107.797 64.991 107.721 65.0838C107.679 65.1347 107.635 65.189 107.58 65.2433C107.558 65.266 107.535 65.2886 107.512 65.311ZM108.054 64.7095C108.125 64.6811 108.218 64.6556 108.346 64.63L108.193 64.5533C108.147 64.5997 108.1 64.6461 108.054 64.7095ZM107.512 65.311C107.484 65.3396 107.456 65.3681 107.427 65.3966L107.427 65.3967C107.274 65.55 107.044 65.7033 106.815 65.78C106.585 65.9333 106.279 65.9333 105.972 65.9333C105.666 65.9333 105.36 65.8567 105.13 65.78C104.9 65.7033 104.747 65.55 104.594 65.32C104.477 65.2029 104.405 65.041 104.343 64.9027C104.324 64.86 104.306 64.8195 104.288 64.7833C104.211 64.5533 104.211 64.4 104.211 64.17C104.211 63.7867 104.288 63.4033 104.518 62.9433C104.566 62.8624 104.615 62.7781 104.664 62.6925C104.848 62.3726 105.042 62.0353 105.283 61.7933C105.59 61.4867 105.972 61.18 106.355 60.95C106.738 60.72 107.121 60.6433 107.58 60.6433C107.734 60.6433 107.887 60.6433 108.04 60.72C108.193 60.72 108.346 60.7967 108.499 60.8733C108.652 60.95 108.729 61.0267 108.806 61.18C108.882 61.2567 108.959 61.41 108.959 61.5633C108.959 61.7933 108.882 61.9467 108.806 62.1C108.729 62.2533 108.576 62.4067 108.346 62.4833C108.3 62.5065 108.246 62.5368 108.188 62.5698C108.054 62.6458 107.894 62.7365 107.734 62.79C107.504 62.8667 107.274 62.9433 107.121 62.9433C106.891 63.02 106.738 63.02 106.585 63.02H106.202H105.819H105.513C105.475 63.135 105.436 63.2692 105.398 63.4033C105.36 63.5375 105.322 63.6717 105.283 63.7867C105.207 64.0167 105.207 64.3233 105.207 64.5533C105.207 65.0133 105.283 65.32 105.513 65.4733C105.743 65.7033 105.972 65.78 106.355 65.78C106.585 65.78 106.815 65.7033 107.044 65.6267C107.24 65.5613 107.38 65.4403 107.512 65.311Z" fill="#AE9164"/>
</svg>
