<svg version="1.0" preserveAspectRatio="xMidYMid meet" height="128" viewBox="0 0 96 95.999999" zoomAndPan="magnify" width="128" xmlns:xlink="http://www.w3.org/1999/xlink" xmlns="http://www.w3.org/2000/svg"><path fill-rule="nonzero" fill-opacity="1" d="M 26 68 L 18 68 C 16.894531 68 16 67.101562 16 66 C 16 64.894531 16.894531 64 18 64 L 26 64 C 27.105469 64 28 64.894531 28 66 C 28 67.101562 27.105469 68 26 68 Z M 26 68" fill="#8c786d"></path><path fill-rule="nonzero" fill-opacity="1" d="M 91 68 L 86 68 C 84.894531 68 84 67.101562 84 66 C 84 64.894531 84.894531 64 86 64 L 89.339844 64 L 92.035156 49.632812 C 92 42.277344 85.71875 36 78 36 L 64.867188 36 L 58.503906 64 L 70 64 C 71.105469 64 72 64.894531 72 66 C 72 67.101562 71.105469 68 70 68 L 56 68 C 55.390625 68 54.816406 67.722656 54.4375 67.246094 C 54.054688 66.773438 53.910156 66.152344 54.046875 65.558594 L 61.320312 33.558594 C 61.527344 32.644531 62.335938 32 63.273438 32 L 78 32 C 87.925781 32 96 40.074219 96 50 L 92.964844 66.367188 C 92.789062 67.316406 91.964844 68 91 68 Z M 91 68" fill="#8c786d"></path><path fill-rule="nonzero" fill-opacity="1" d="M 78 76 C 72.488281 76 68 71.515625 68 66 C 68 60.484375 72.488281 56 78 56 C 83.511719 56 88 60.484375 88 66 C 88 71.515625 83.511719 76 78 76 Z M 78 60 C 74.691406 60 72 62.691406 72 66 C 72 69.308594 74.691406 72 78 72 C 81.308594 72 84 69.308594 84 66 C 84 62.691406 81.308594 60 78 60 Z M 78 60" fill="#8c786d"></path><path fill-rule="nonzero" fill-opacity="1" d="M 34 76 C 28.488281 76 24 71.515625 24 66 C 24 60.484375 28.488281 56 34 56 C 39.511719 56 44 60.484375 44 66 C 44 71.515625 39.511719 76 34 76 Z M 34 60 C 30.691406 60 28 62.691406 28 66 C 28 69.308594 30.691406 72 34 72 C 37.308594 72 40 69.308594 40 66 C 40 62.691406 37.308594 60 34 60 Z M 34 60" fill="#8c786d"></path><path fill-rule="nonzero" fill-opacity="1" d="M 26 32 L 10 32 C 8.894531 32 8 31.101562 8 30 C 8 28.894531 8.894531 28 10 28 L 26 28 C 27.105469 28 28 28.894531 28 30 C 28 31.101562 27.105469 32 26 32 Z M 26 32" fill="#8c786d"></path><path fill-rule="nonzero" fill-opacity="1" d="M 26 44 L 6 44 C 4.894531 44 4 43.101562 4 42 C 4 40.894531 4.894531 40 6 40 L 26 40 C 27.105469 40 28 40.894531 28 42 C 28 43.101562 27.105469 44 26 44 Z M 26 44" fill="#8c786d"></path><path fill-rule="nonzero" fill-opacity="1" d="M 26 56 L 2 56 C 0.894531 56 0 55.101562 0 54 C 0 52.894531 0.894531 52 2 52 L 26 52 C 27.105469 52 28 52.894531 28 54 C 28 55.101562 27.105469 56 26 56 Z M 26 56" fill="#8c786d"></path><path fill-rule="nonzero" fill-opacity="1" d="M 56 68 L 42 68 C 40.894531 68 40 67.101562 40 66 C 40 64.894531 40.894531 64 42 64 L 54.402344 64 L 63.492188 24 L 18 24 C 16.894531 24 16 23.101562 16 22 C 16 20.894531 16.894531 20 18 20 L 66 20 C 66.609375 20 67.183594 20.273438 67.5625 20.75 C 67.945312 21.222656 68.089844 21.847656 67.953125 22.4375 L 57.953125 66.4375 C 57.742188 67.355469 56.933594 68 56 68 Z M 56 68" fill="#8c786d"></path></svg>