<svg version="1.0" preserveAspectRatio="xMidYMid meet" height="128" viewBox="0 0 96 95.999999" zoomAndPan="magnify" width="128" xmlns:xlink="http://www.w3.org/1999/xlink" xmlns="http://www.w3.org/2000/svg"><path fill-rule="evenodd" fill-opacity="1" d="M 54.269531 2.039062 C 43.066406 0.0234375 31.777344 2.925781 22.976562 10.019531 C 22.816406 10.140625 22.601562 9.984375 22.664062 9.796875 L 24.238281 5.457031 C 24.515625 4.691406 24.121094 3.84375 23.355469 3.566406 C 22.589844 3.289062 21.742188 3.683594 21.464844 4.449219 L 18.433594 12.8125 C 18.0625 13.816406 18.59375 14.761719 19.546875 14.917969 L 28.472656 16.363281 C 29.265625 16.496094 30.035156 15.957031 30.167969 15.144531 C 30.296875 14.339844 29.75 13.582031 28.945312 13.449219 L 24.78125 12.777344 C 24.609375 12.75 24.554688 12.535156 24.6875 12.429688 C 32.847656 5.792969 43.335938 3.070312 53.75 4.945312 C 73.285156 8.457031 86.320312 27.210938 82.808594 46.746094 C 82.664062 47.546875 83.195312 48.316406 83.996094 48.460938 C 84.789062 48.605469 85.566406 48.082031 85.710938 47.269531 C 89.511719 26.128906 75.410156 5.839844 54.269531 2.039062 Z M 15.753906 60.535156 C 6.480469 47.652344 6.507812 31.050781 14.273438 18.484375 C 14.332031 18.390625 14.390625 18.292969 14.453125 18.199219 C 16.390625 16.625 17.542969 18.671875 16.941406 19.621094 C 16.882812 19.707031 16.828125 19.796875 16.773438 19.882812 C 9.527344 31.507812 9.484375 46.894531 18.042969 58.824219 L 19.085938 54.414062 C 19.265625 53.648438 20.035156 53.167969 20.804688 53.347656 C 21.570312 53.527344 22.050781 54.292969 21.871094 55.0625 L 19.847656 63.613281 C 19.628906 64.550781 18.667969 64.960938 17.734375 64.546875 L 9.84375 61.03125 C 9.125 60.710938 8.800781 59.867188 9.121094 59.144531 C 9.441406 58.421875 10.289062 58.097656 11.007812 58.421875 Z M 35.507812 20.695312 C 35.570312 20.65625 35.640625 20.65625 35.703125 20.695312 L 56.183594 32.515625 C 56.316406 32.589844 56.3125 32.78125 56.183594 32.855469 L 51.199219 35.734375 C 51.136719 35.773438 51.0625 35.773438 51.003906 35.734375 L 30.523438 23.910156 C 30.394531 23.832031 30.394531 23.644531 30.523438 23.566406 Z M 71.679688 23.566406 C 71.808594 23.644531 71.808594 23.832031 71.679688 23.910156 L 66.695312 26.789062 C 66.632812 26.824219 66.5625 26.824219 66.5 26.789062 L 46.019531 14.960938 C 45.886719 14.886719 45.890625 14.699219 46.019531 14.621094 L 51.003906 11.746094 C 51.0625 11.710938 51.136719 11.710938 51.199219 11.746094 Z M 41.992188 16.945312 C 42.054688 16.910156 42.128906 16.910156 42.191406 16.945312 L 64.683594 29.933594 C 64.742188 29.96875 64.78125 30.03125 64.78125 30.105469 L 64.78125 44.507812 C 64.78125 44.582031 64.742188 44.644531 64.683594 44.679688 L 62.21875 46.097656 C 62.089844 46.175781 61.925781 46.082031 61.925781 45.929688 L 61.925781 32.6875 C 61.925781 32.035156 61.582031 31.4375 61.015625 31.117188 L 39.53125 18.707031 C 39.402344 18.632812 39.402344 18.445312 39.53125 18.367188 Z M 58.191406 36.003906 C 58.257812 36.039062 58.292969 36.101562 58.292969 36.171875 L 58.292969 49.414062 C 58.292969 50.828125 59.824219 51.679688 61.015625 50.988281 L 67.507812 47.242188 C 68.066406 46.917969 68.414062 46.320312 68.414062 45.671875 L 68.414062 30.105469 C 68.414062 30.03125 68.449219 29.96875 68.511719 29.933594 L 73.496094 27.058594 C 73.625 26.980469 73.789062 27.074219 73.789062 27.226562 L 73.789062 50.875 C 73.789062 50.945312 73.753906 51.007812 73.691406 51.042969 L 53.214844 62.871094 C 53.085938 62.941406 52.917969 62.859375 52.917969 62.699219 L 52.917969 39.050781 C 52.917969 38.980469 52.953125 38.917969 53.015625 38.882812 L 57.996094 36.003906 C 58.058594 35.964844 58.128906 35.964844 58.191406 36.003906 Z M 28.511719 27.058594 C 28.574219 27.019531 28.644531 27.019531 28.707031 27.058594 L 49.1875 38.882812 C 49.25 38.917969 49.285156 38.980469 49.285156 39.050781 L 49.285156 62.699219 C 49.285156 62.855469 49.117188 62.941406 48.988281 62.871094 L 28.511719 51.042969 C 28.449219 51.007812 28.410156 50.945312 28.410156 50.875 L 28.410156 27.226562 C 28.410156 27.152344 28.449219 27.09375 28.511719 27.058594 Z M 19.308594 74.3125 L 18.71875 73.507812 C 18.4375 73.125 17.875 73.039062 17.488281 73.320312 L 9.378906 79.285156 C 8.992188 79.566406 8.90625 80.128906 9.191406 80.515625 L 20.226562 95.523438 C 20.511719 95.914062 21.074219 95.996094 21.457031 95.714844 L 29.566406 89.75 C 29.949219 89.46875 30.039062 88.902344 29.753906 88.519531 Z M 80.933594 60.089844 C 80.566406 59.53125 79.664062 59.609375 79.535156 59.691406 L 64.5 69.960938 C 62.449219 71.394531 58.511719 74.855469 56.855469 74.875 L 46.925781 74.960938 C 46.105469 74.96875 45.441406 74.3125 45.433594 73.5 C 45.429688 72.6875 46.082031 72.019531 46.898438 72.011719 L 56.828125 71.921875 C 57.128906 71.917969 57.800781 71.664062 58.339844 71.101562 C 60.042969 69.335938 57.710938 66.828125 56.285156 66.828125 L 37.394531 66.902344 C 31.257812 66.925781 26.839844 69.957031 22.640625 73.554688 C 22.566406 73.621094 22.550781 73.738281 22.613281 73.820312 L 31.15625 85.4375 C 31.210938 85.519531 31.320312 85.542969 31.40625 85.496094 L 34.925781 83.5625 C 36.246094 82.679688 37.488281 81.691406 39.457031 81.609375 L 60.488281 80.710938 C 61.4375 80.675781 63.066406 80.5 63.585938 79.796875 C 63.589844 79.792969 63.59375 79.785156 63.601562 79.777344 L 80.542969 62.398438 C 80.550781 62.390625 80.558594 62.382812 80.5625 62.371094 C 81.230469 61.425781 81.234375 60.550781 80.933594 60.089844 Z M 80.933594 60.089844" fill="#8c786d"></path></svg>