<svg xmlns="http://www.w3.org/2000/svg" width="17" height="16" viewBox="0 0 17 16" fill="none" style="width: 0px; height: 0px; display: block;"><mask id="spinner-mask-1" fill="white"><path d="M8.5 0C10.0823 1.88682e-08 11.629 0.469192 12.9446 1.34824C14.2602 2.2273 15.2855 3.47673 15.891 4.93854C16.4965 6.40035 16.655 8.00888 16.3463 9.56073C16.0376 11.1126 15.2757 12.538 14.1568 13.6569C13.038 14.7757 11.6126 15.5376 10.0607 15.8463C8.50886 16.155 6.90033 15.9965 5.43852 15.391C3.97671 14.7855 2.72728 13.7601 1.84824 12.4446C0.969186 11.129 0.499997 9.58224 0.5 7.99998L2.9 7.99999C2.9 9.10756 3.22843 10.1903 3.84377 11.1112C4.4591 12.0321 5.3337 12.7499 6.35697 13.1737C7.38023 13.5976 8.5062 13.7085 9.5925 13.4924C10.6788 13.2763 11.6766 12.743 12.4598 11.9598C13.243 11.1766 13.7763 10.1788 13.9924 9.09251C14.2085 8.00622 14.0976 6.88024 13.6737 5.85698C13.2499 4.83371 12.5321 3.95911 11.6112 3.34377C10.6903 2.72843 9.60758 2.4 8.5 2.4V0Z"></path></mask><path d="M8.5 0C10.0823 1.88682e-08 11.629 0.469192 12.9446 1.34824C14.2602 2.2273 15.2855 3.47673 15.891 4.93854C16.4965 6.40035 16.655 8.00888 16.3463 9.56073C16.0376 11.1126 15.2757 12.538 14.1568 13.6569C13.038 14.7757 11.6126 15.5376 10.0607 15.8463C8.50886 16.155 6.90033 15.9965 5.43852 15.391C3.97671 14.7855 2.72728 13.7601 1.84824 12.4446C0.969186 11.129 0.499997 9.58224 0.5 7.99998L2.9 7.99999C2.9 9.10756 3.22843 10.1903 3.84377 11.1112C4.4591 12.0321 5.3337 12.7499 6.35697 13.1737C7.38023 13.5976 8.5062 13.7085 9.5925 13.4924C10.6788 13.2763 11.6766 12.743 12.4598 11.9598C13.243 11.1766 13.7763 10.1788 13.9924 9.09251C14.2085 8.00622 14.0976 6.88024 13.6737 5.85698C13.2499 4.83371 12.5321 3.95911 11.6112 3.34377C10.6903 2.72843 9.60758 2.4 8.5 2.4V0Z" stroke="#262D38" stroke-width="8" mask="url(#spinner-mask-1)"></path></svg>