<svg width="164" height="50" viewBox="0 0 164 50" fill="none" xmlns="http://www.w3.org/2000/svg">
<rect x="0.5" y="0.5" width="163.001" height="49" rx="8.5" fill="#100F0D"/>
<rect x="0.5" y="0.5" width="163.001" height="49" rx="8.5" stroke="#A6A6A6"/>
<path d="M129.323 37.0004H131.562V21.9982H129.323V37.0004ZM149.491 27.4027L146.924 33.9065H146.848L144.184 27.4027H141.772L145.768 36.4928L143.489 41.5495H145.824L151.981 27.4032L149.491 27.4027ZM136.792 35.2963C136.06 35.2963 135.036 34.9293 135.036 34.0223C135.036 32.8644 136.311 32.4205 137.41 32.4205C138.394 32.4205 138.858 32.6325 139.456 32.9221C139.282 34.3119 138.086 35.2963 136.792 35.2963ZM137.063 27.0746C135.442 27.0746 133.763 27.7889 133.068 29.3715L135.056 30.2012C135.48 29.3715 136.271 29.1015 137.102 29.1015C138.26 29.1015 139.437 29.7957 139.456 31.0313V31.1855C139.05 30.9539 138.182 30.6067 137.121 30.6067C134.978 30.6067 132.797 31.7836 132.797 33.9838C132.797 35.991 134.554 37.2843 136.522 37.2843C138.027 37.2843 138.858 36.6088 139.378 35.8172H139.456V36.9758H141.618V31.2239C141.618 28.5605 139.629 27.0746 137.063 27.0746ZM123.225 29.2289H120.04V24.0869H123.225C124.899 24.0869 125.849 25.4726 125.849 26.6579C125.849 27.8204 124.899 29.2289 123.225 29.2289ZM123.167 21.9986H117.802V37.0008H120.04V31.3173H123.167C125.649 31.3173 128.088 29.5211 128.088 26.6584C128.088 23.7963 125.649 21.9986 123.167 21.9986ZM93.9106 35.2988C92.3637 35.2988 91.0691 34.0032 91.0691 32.2253C91.0691 30.4268 92.3637 29.1128 93.9106 29.1128C95.4379 29.1128 96.6364 30.4268 96.6364 32.2253C96.6364 34.0032 95.4379 35.2988 93.9106 35.2988ZM96.4817 28.2425H96.4043C95.9019 27.6434 94.9348 27.102 93.7175 27.102C91.1652 27.102 88.8262 29.345 88.8262 32.2253C88.8262 35.0861 91.1652 37.3093 93.7175 37.3093C94.9348 37.3093 95.9018 36.7678 96.4043 36.1496H96.4817V36.8836C96.4817 38.8369 95.4379 39.8803 93.7559 39.8803C92.3839 39.8803 91.5332 38.8945 91.1849 38.0634L89.2327 38.8752C89.7928 40.2279 91.281 41.8912 93.756 41.8912C96.3857 41.8912 98.6089 40.3442 98.6089 36.5742V27.4112H96.4818L96.4817 28.2425ZM100.156 36.9999H102.397V21.9978H100.156V36.9999ZM105.703 32.051C105.646 30.079 107.231 29.074 108.371 29.074C109.261 29.074 110.014 29.5188 110.267 30.1563L105.703 32.051ZM112.663 30.3494C112.238 29.2095 110.942 27.102 108.294 27.102C105.664 27.102 103.48 29.1705 103.48 32.2057C103.48 35.0669 105.646 37.3094 108.545 37.3094C110.884 37.3094 112.238 35.8793 112.799 35.0477L111.059 33.8875C110.478 34.7383 109.686 35.2989 108.545 35.2989C107.405 35.2989 106.593 34.7768 106.071 33.7522L112.895 30.9299L112.663 30.3494ZM58.2943 28.6681V30.8332H63.4752C63.3205 32.0511 62.9145 32.9402 62.2958 33.559C61.5416 34.3127 60.3623 35.1442 58.2942 35.1442C55.1043 35.1442 52.6106 32.5732 52.6106 29.3834C52.6106 26.1936 55.1043 23.6222 58.2942 23.6222C60.0148 23.6222 61.2711 24.299 62.1991 25.1689L63.7268 23.6413C62.4312 22.4043 60.7109 21.457 58.2942 21.457C53.9245 21.457 50.2515 25.0142 50.2515 29.3834C50.2515 33.7521 53.9245 37.3094 58.2942 37.3094C60.6524 37.3094 62.4312 36.536 63.8229 35.0862C65.2536 33.6555 65.6983 31.6451 65.6983 30.0209C65.6983 29.5189 65.6594 29.0549 65.5821 28.6681H58.2943ZM71.5892 35.2988C70.0422 35.2988 68.7082 34.0229 68.7082 32.2057C68.7082 30.3692 70.0422 29.1129 71.5892 29.1129C73.1355 29.1129 74.4694 30.3692 74.4694 32.2057C74.4694 34.0229 73.1355 35.2988 71.5892 35.2988ZM71.5892 27.102C68.7658 27.102 66.4657 29.2478 66.4657 32.2057C66.4657 35.1442 68.7658 37.3094 71.5892 37.3094C74.4114 37.3094 76.712 35.1442 76.712 32.2057C76.712 29.2478 74.4114 27.102 71.5892 27.102ZM82.7645 35.2988C81.2187 35.2988 79.8842 34.0229 79.8842 32.2057C79.8842 30.3692 81.2188 29.1129 82.7645 29.1129C84.3115 29.1129 85.645 30.3692 85.645 32.2057C85.645 34.0229 84.3115 35.2988 82.7645 35.2988ZM82.7645 27.102C79.9423 27.102 77.6421 29.2478 77.6421 32.2057C77.6421 35.1442 79.9423 37.3094 82.7645 37.3094C85.5878 37.3094 87.888 35.1442 87.888 32.2057C87.888 29.2478 85.5878 27.102 82.7645 27.102Z" fill="white"/>
<path d="M25.8601 24.3088L13.0854 37.8682C13.0859 37.871 13.0869 37.8734 13.0873 37.8762C13.4791 39.3487 14.824 40.4328 16.4201 40.4328C17.0581 40.4328 17.6571 40.2603 18.1708 39.9575L18.2116 39.9336L32.5919 31.6355L25.8601 24.3088Z" fill="#EB3131"/>
<path d="M38.7851 22.0001L38.7728 21.9917L32.5644 18.3926L25.5698 24.6167L32.5887 31.6346L38.7644 28.0713C39.8471 27.4868 40.5821 26.3454 40.5821 25.0291C40.5821 23.7223 39.857 22.5865 38.7851 22.0001Z" fill="#F6B60B"/>
<path d="M13.0835 12.1328C13.0067 12.416 12.9663 12.7126 12.9663 13.0207V36.9815C12.9663 37.289 13.0062 37.5866 13.084 37.8688L26.2996 24.6558L13.0835 12.1328Z" fill="#5778C5"/>
<path d="M25.9546 25.0022L32.5672 18.3916L18.2031 10.0635C17.681 9.75079 17.0716 9.57031 16.4196 9.57031C14.8235 9.57031 13.4768 10.6564 13.085 12.1306C13.0845 12.132 13.0845 12.133 13.0845 12.1342L25.9546 25.0022Z" fill="#3BAD49"/>
<path d="M57.874 12.7379H54.3734V13.6041H56.9966C56.9253 14.311 56.644 14.866 56.1697 15.2691C55.6953 15.6723 55.0897 15.8748 54.3734 15.8748C53.5878 15.8748 52.9222 15.601 52.3767 15.0573C51.8422 14.5024 51.5704 13.8161 51.5704 12.9892C51.5704 12.1624 51.8422 11.4761 52.3767 10.9212C52.9222 10.3775 53.5878 10.1056 54.3734 10.1056C54.7766 10.1056 55.161 10.1749 55.5134 10.3268C55.8659 10.4786 56.149 10.6905 56.3703 10.9625L57.0359 10.2968C56.734 9.95365 56.3516 9.69121 55.8771 9.49994C55.4027 9.30866 54.9078 9.21686 54.3733 9.21686C53.3253 9.21686 52.4366 9.58057 51.7109 10.3062C50.9853 11.0337 50.6216 11.9299 50.6216 12.9892C50.6216 14.0485 50.9853 14.9467 51.7109 15.6724C52.4366 16.3979 53.3253 16.7618 54.3733 16.7618C55.474 16.7618 56.3515 16.4092 57.0265 15.6929C57.6208 15.0968 57.9245 14.2906 57.9245 13.2818C57.9245 13.1112 57.904 12.9291 57.874 12.7379ZM59.2301 9.37795V16.6004H63.4468V15.7135H60.1582V13.4224H63.1245V12.5561H60.1582V10.2668H63.4468V9.37793L59.2301 9.37795ZM69.3597 10.2668V9.37795H64.3966V10.2668H66.4141V16.6004H67.3422V10.2668H69.3597ZM73.853 9.37795H72.9249V16.6004H73.853V9.37795ZM79.9789 10.2668V9.37795H75.016V10.2668H77.0333V16.6004H77.9614V10.2668H79.9789ZM89.3444 10.3174C88.6281 9.58052 87.7507 9.2168 86.7025 9.2168C85.6526 9.2168 84.7752 9.58051 84.0589 10.3062C83.3426 11.0224 82.9902 11.9205 82.9902 12.9892C82.9902 14.0578 83.3426 14.956 84.0589 15.6724C84.7751 16.3979 85.6526 16.7617 86.7025 16.7617C87.7412 16.7617 88.6281 16.3979 89.3444 15.6724C90.0607 14.9561 90.4131 14.0579 90.4131 12.9892C90.4131 11.9299 90.0606 11.0335 89.3444 10.3174ZM84.7245 10.9211C85.2588 10.3774 85.9151 10.1055 86.7025 10.1055C87.4882 10.1055 88.1444 10.3774 88.6694 10.9211C89.2037 11.4555 89.4662 12.1529 89.4662 12.9892C89.4662 13.8273 89.2037 14.5229 88.6694 15.0573C88.1444 15.601 87.4881 15.8747 86.7025 15.8747C85.9151 15.8747 85.2588 15.601 84.7245 15.0573C84.2013 14.5116 83.9389 13.8273 83.9389 12.9892C83.9389 12.1529 84.2013 11.4667 84.7245 10.9211ZM92.6181 12.1024L92.5788 10.7092H92.6181L96.2893 16.6003H97.2586V9.37788H96.3305V13.604L96.3698 14.9972H96.3305L92.8206 9.37788H91.69V16.6003H92.6181V12.1024Z" fill="white" stroke="white" stroke-width="0.26666" stroke-miterlimit="10"/>
</svg>
