<svg width="150" height="50" viewBox="0 0 150 50" fill="none" xmlns="http://www.w3.org/2000/svg">
<g clip-path="url(#clip0_81397_718)">
<path d="M10.5014 48.9975C10.1191 48.9975 9.74598 48.9926 9.36666 48.9841C8.58086 48.9738 7.79689 48.9054 7.02119 48.7794C6.29789 48.6548 5.59721 48.4231 4.94226 48.0919C4.29331 47.7634 3.70141 47.3327 3.18925 46.8162C2.66967 46.3058 2.2371 45.7139 1.90868 45.0638C1.57663 44.4095 1.34684 43.7082 1.2273 42.9843C1.09821 42.2065 1.02836 41.4199 1.01837 40.6315C1.01042 40.3669 1 39.4857 1 39.4857V10.4983C1 10.4983 1.01109 9.63068 1.01843 9.37578C1.028 8.5886 1.09744 7.80329 1.22615 7.02664C1.34591 6.30074 1.57588 5.59741 1.9081 4.94098C2.23532 4.29137 2.66549 3.69898 3.18193 3.18678C3.6978 2.66971 4.29159 2.23677 4.94164 1.90375C5.59509 1.57358 6.29445 1.34349 7.01629 1.22119C7.79453 1.09391 8.58122 1.02509 9.36975 1.01532L10.502 1H139.46L140.606 1.01594C141.387 1.02522 142.166 1.09342 142.937 1.21996C143.667 1.34379 144.373 1.57549 145.034 1.90742C146.337 2.57857 147.396 3.64038 148.065 4.94404C148.392 5.59594 148.618 6.29354 148.736 7.01316C148.866 7.79618 148.939 8.58767 148.954 9.3813C148.958 9.73667 148.958 10.1184 148.958 10.4983C148.968 10.9688 148.968 11.4167 148.968 11.8683V38.1304C148.968 38.5862 148.968 39.0311 148.958 39.4796C148.958 39.8876 148.958 40.2614 148.953 40.6462C148.938 41.4257 148.867 42.203 148.739 42.972C148.622 43.7012 148.393 44.4079 148.061 45.0676C147.73 45.7106 147.3 46.2974 146.787 46.8064C146.274 47.3257 145.681 47.7589 145.031 48.0895C144.371 48.4233 143.666 48.6559 142.937 48.7794C142.162 48.9061 141.378 48.9745 140.592 48.9841C140.224 48.9926 139.84 48.9975 139.466 48.9975L138.106 49L10.5014 48.9975Z" fill="black"/>
<path d="M30.9852 25.3757C30.9987 24.3284 31.2769 23.3014 31.7939 22.3905C32.3109 21.4795 33.05 20.7142 33.9423 20.1656C33.3754 19.356 32.6276 18.6898 31.7582 18.2198C30.8889 17.7498 29.9219 17.489 28.934 17.4581C26.8269 17.2369 24.7841 18.7189 23.7103 18.7189C22.6157 18.7189 20.9625 17.48 19.1822 17.5166C18.0307 17.5538 16.9084 17.8887 15.9248 18.4886C14.9411 19.0885 14.1297 19.9329 13.5694 20.9397C11.1426 25.1414 12.9528 31.3165 15.2775 34.7129C16.4406 36.3759 17.8 38.2337 19.5786 38.1678C21.3192 38.0956 21.9692 37.0579 24.0702 37.0579C26.1517 37.0579 26.7615 38.1678 28.5763 38.1259C30.444 38.0956 31.6207 36.4554 32.743 34.7766C33.5787 33.5916 34.2218 32.2819 34.6484 30.896C33.5633 30.437 32.6373 29.6689 31.9859 28.6872C31.3345 27.7056 30.9865 26.5539 30.9852 25.3757Z" fill="white"/>
<path d="M27.5573 15.2259C28.5756 14.0034 29.0773 12.4321 28.9558 10.8457C27.4 11.0091 25.9629 11.7527 24.9308 12.9282C24.4262 13.5025 24.0397 14.1707 23.7935 14.8944C23.5472 15.6182 23.446 16.3834 23.4957 17.1462C24.2739 17.1542 25.0437 16.9856 25.7472 16.6529C26.4508 16.3203 27.0697 15.8324 27.5573 15.2259Z" fill="white"/>
<path d="M52.9868 33.9587H47.0472L45.6208 38.1704H43.105L48.7309 22.5879H51.3447L56.9707 38.1704H54.412L52.9868 33.9587ZM47.6623 32.0151H52.3705L50.0495 25.1797H49.9846L47.6623 32.0151Z" fill="white"/>
<path d="M69.1211 32.4915C69.1211 36.022 67.2315 38.2902 64.3799 38.2902C63.6576 38.328 62.9392 38.1616 62.307 37.8101C61.6748 37.4585 61.1544 36.9361 60.8054 36.3026H60.7514V41.9297H58.4194V26.8104H60.6767V28.7H60.7196C61.0847 28.0695 61.6139 27.5498 62.2509 27.1961C62.8879 26.8424 63.6088 26.6681 64.3371 26.6915C67.2204 26.6916 69.1211 28.9708 69.1211 32.4915ZM66.7242 32.4915C66.7242 30.1914 65.5355 28.6792 63.7219 28.6792C61.9401 28.6792 60.7416 30.2232 60.7416 32.4915C60.7416 34.7806 61.9401 36.3136 63.7219 36.3136C65.5355 36.3136 66.7242 34.8125 66.7242 32.4915Z" fill="white"/>
<path d="M81.625 32.4915C81.625 36.0219 79.7354 38.2902 76.8839 38.2902C76.1615 38.328 75.4431 38.1616 74.8109 37.8101C74.1787 37.4585 73.6583 36.9361 73.3093 36.3025H73.2553V41.9297H70.9233V26.8104H73.1806V28.7H73.2235C73.5886 28.0695 74.1178 27.5498 74.7548 27.1961C75.3918 26.8424 76.1127 26.6681 76.8409 26.6915C79.7244 26.6915 81.625 28.9708 81.625 32.4915ZM79.2281 32.4915C79.2281 30.1914 78.0394 28.6792 76.2258 28.6792C74.444 28.6792 73.2456 30.2232 73.2456 32.4915C73.2456 34.7806 74.444 36.3136 76.2258 36.3136C78.0394 36.3136 79.2281 34.8124 79.2281 32.4915Z" fill="white"/>
<path d="M89.8891 33.8288C90.0619 35.3741 91.5631 36.3887 93.6144 36.3887C95.58 36.3887 96.9941 35.374 96.9941 33.9807C96.9941 32.7712 96.1412 32.047 94.1217 31.5507L92.1023 31.0642C89.2409 30.3731 87.9125 29.0349 87.9125 26.8634C87.9125 24.1748 90.2555 22.3281 93.5826 22.3281C96.8752 22.3281 99.1325 24.1748 99.2085 26.8634H96.8544C96.7135 25.3084 95.428 24.3697 93.5494 24.3697C91.6709 24.3697 90.3854 25.3194 90.3854 26.7017C90.3854 27.8033 91.2064 28.4516 93.2149 28.9478L94.9317 29.3694C98.1288 30.1255 99.4572 31.4098 99.4572 33.689C99.4572 36.6043 97.135 38.4302 93.4416 38.4302C89.9859 38.4302 87.6527 36.6472 87.502 33.8287L89.8891 33.8288Z" fill="white"/>
<path d="M104.49 24.1211V26.8097H106.65V28.6564H104.49V34.9195C104.49 35.8925 104.923 36.3459 105.872 36.3459C106.129 36.3415 106.385 36.3235 106.639 36.292V38.1277C106.212 38.2075 105.778 38.2436 105.344 38.2355C103.044 38.2355 102.147 37.3716 102.147 35.1683V28.6564H100.495V26.8097H102.147V24.1211H104.49Z" fill="white"/>
<path d="M107.902 32.4907C107.902 28.9161 110.007 26.6699 113.29 26.6699C116.584 26.6699 118.679 28.9161 118.679 32.4907C118.679 36.0751 116.595 38.3115 113.29 38.3115C109.986 38.3115 107.902 36.0751 107.902 32.4907ZM116.303 32.4907C116.303 30.0386 115.18 28.5914 113.29 28.5914C111.4 28.5914 110.278 30.0496 110.278 32.4907C110.278 34.9526 111.4 36.3888 113.29 36.3888C115.18 36.3888 116.303 34.9526 116.303 32.4907Z" fill="white"/>
<path d="M120.602 26.8103H122.826V28.744H122.88C123.031 28.1401 123.384 27.6064 123.882 27.2326C124.38 26.8588 124.991 26.6677 125.613 26.6914C125.882 26.6905 126.15 26.7197 126.412 26.7784V28.9597C126.073 28.856 125.719 28.8084 125.364 28.8188C125.025 28.805 124.688 28.8648 124.374 28.9939C124.061 29.123 123.779 29.3184 123.548 29.5667C123.317 29.815 123.143 30.1104 123.037 30.4325C122.931 30.7545 122.896 31.0957 122.934 31.4326V38.1712H120.602L120.602 26.8103Z" fill="white"/>
<path d="M137.164 34.8337C136.85 36.8961 134.842 38.3115 132.272 38.3115C128.967 38.3115 126.916 36.0971 126.916 32.5446C126.916 28.9811 128.978 26.6699 132.174 26.6699C135.317 26.6699 137.294 28.8291 137.294 32.2738V33.0728H129.27V33.2137C129.233 33.6318 129.285 34.053 129.423 34.4493C129.561 34.8457 129.782 35.208 130.071 35.5124C130.361 35.8168 130.711 36.0561 131.1 36.2146C131.488 36.3731 131.906 36.4471 132.326 36.4317C132.877 36.4833 133.43 36.3557 133.903 36.0678C134.375 35.7798 134.742 35.347 134.949 34.8337L137.164 34.8337ZM129.281 31.443H134.96C134.981 31.067 134.924 30.6908 134.793 30.3379C134.662 29.9851 134.459 29.6631 134.197 29.3924C133.935 29.1216 133.621 28.9079 133.273 28.7646C132.924 28.6212 132.55 28.5514 132.174 28.5595C131.794 28.5573 131.418 28.6302 131.066 28.7742C130.715 28.9182 130.395 29.1303 130.126 29.3984C129.857 29.6665 129.644 29.9852 129.499 30.3361C129.354 30.687 129.28 31.0632 129.281 31.443Z" fill="white"/>
<path d="M47.37 10.8581C47.8589 10.823 48.3495 10.8969 48.8064 11.0744C49.2633 11.2518 49.6752 11.5285 50.0122 11.8844C50.3492 12.2403 50.6031 12.6666 50.7554 13.1325C50.9077 13.5983 50.9548 14.0922 50.8931 14.5785C50.8931 16.9705 49.6003 18.3455 47.37 18.3455H44.6655V10.8581H47.37ZM45.8284 17.2866H47.2401C47.5895 17.3075 47.9391 17.2502 48.2635 17.119C48.588 16.9877 48.879 16.7857 49.1156 16.5278C49.3521 16.2698 49.5281 15.9624 49.6308 15.6278C49.7336 15.2933 49.7604 14.94 49.7094 14.5938C49.7567 14.2489 49.7271 13.8978 49.6228 13.5657C49.5185 13.2336 49.3421 12.9287 49.1061 12.6728C48.8701 12.4169 48.5804 12.2163 48.2578 12.0855C47.9352 11.9547 47.5877 11.8969 47.2401 11.9162H45.8284V17.2866Z" fill="white"/>
<path d="M52.2069 15.5197C52.1714 15.1483 52.2139 14.7737 52.3317 14.4197C52.4494 14.0658 52.6398 13.7403 52.8907 13.4643C53.1416 13.1883 53.4474 12.9677 53.7886 12.8168C54.1297 12.6659 54.4986 12.5879 54.8716 12.5879C55.2447 12.5879 55.6136 12.6659 55.9547 12.8168C56.2958 12.9677 56.6016 13.1883 56.8525 13.4643C57.1034 13.7403 57.2939 14.0658 57.4116 14.4197C57.5294 14.7737 57.5718 15.1483 57.5363 15.5197C57.5725 15.8914 57.5305 16.2665 57.4131 16.6211C57.2957 16.9756 57.1053 17.3016 56.8544 17.5782C56.6034 17.8548 56.2974 18.0758 55.9559 18.2271C55.6144 18.3783 55.2451 18.4564 54.8716 18.4564C54.4982 18.4564 54.1288 18.3783 53.7874 18.2271C53.4459 18.0758 53.1398 17.8548 52.8889 17.5782C52.6379 17.3016 52.4476 16.9756 52.3302 16.6211C52.2127 16.2665 52.1707 15.8914 52.2069 15.5197ZM56.3893 15.5197C56.3893 14.2949 55.8391 13.5786 54.8735 13.5786C53.9042 13.5786 53.3589 14.2949 53.3589 15.5197C53.3589 16.7543 53.9042 17.465 54.8735 17.465C55.8391 17.465 56.3893 16.7494 56.3893 15.5197Z" fill="white"/>
<path d="M64.6204 18.3458H63.4636L62.2958 14.1842H62.2075L61.0446 18.3458H59.8988L58.3413 12.6953H59.4724L60.4846 17.0069H60.5679L61.7296 12.6953H62.7994L63.9611 17.0069H64.0493L65.0566 12.6953H66.1718L64.6204 18.3458Z" fill="white"/>
<path d="M67.4819 12.6967H68.5554V13.5943H68.6387C68.7801 13.2719 69.0185 13.0016 69.3208 12.8212C69.623 12.6407 69.9741 12.5591 70.3249 12.5876C70.5999 12.5669 70.8759 12.6084 71.1327 12.7089C71.3894 12.8094 71.6202 12.9664 71.8081 13.1682C71.9959 13.37 72.1359 13.6115 72.2177 13.8748C72.2995 14.1381 72.3211 14.4165 72.2807 14.6892V18.347H71.1656V14.9692C71.1656 14.0612 70.771 13.6096 69.9463 13.6096C69.7596 13.6009 69.5733 13.6327 69.4 13.7027C69.2268 13.7728 69.0707 13.8795 68.9426 14.0155C68.8144 14.1515 68.7172 14.3136 68.6576 14.4907C68.5979 14.6678 68.5773 14.8557 68.5971 15.0415V18.3471H67.4819L67.4819 12.6967Z" fill="white"/>
<path d="M74.0576 10.4902H75.1728V18.3464H74.0576V10.4902Z" fill="white"/>
<path d="M76.7225 15.5198C76.687 15.1484 76.7295 14.7737 76.8473 14.4198C76.9651 14.0658 77.1556 13.7404 77.4065 13.4643C77.6574 13.1883 77.9633 12.9677 78.3044 12.8168C78.6456 12.6659 79.0145 12.5879 79.3875 12.5879C79.7606 12.5879 80.1295 12.6659 80.4707 12.8168C80.8118 12.9677 81.1177 13.1883 81.3686 13.4643C81.6195 13.7404 81.81 14.0658 81.9277 14.4198C82.0455 14.7737 82.088 15.1484 82.0525 15.5198C82.0887 15.8915 82.0467 16.2667 81.9292 16.6212C81.8117 16.9757 81.6214 17.3017 81.3704 17.5783C81.1194 17.8549 80.8133 18.0759 80.4718 18.2271C80.1304 18.3784 79.761 18.4565 79.3875 18.4565C79.0141 18.4565 78.6447 18.3784 78.3032 18.2271C77.9617 18.0759 77.6557 17.8549 77.4047 17.5783C77.1537 17.3017 76.9634 16.9757 76.8459 16.6212C76.7284 16.2667 76.6864 15.8915 76.7225 15.5198ZM80.9049 15.5198C80.9049 14.295 80.3547 13.5787 79.3891 13.5787C78.4198 13.5787 77.8745 14.295 77.8745 15.5198C77.8745 16.7544 78.4198 17.4651 79.3891 17.4651C80.3547 17.4651 80.9049 16.7495 80.9049 15.5198Z" fill="white"/>
<path d="M83.2266 16.7494C83.2266 15.7323 83.9839 15.146 85.3282 15.0626L86.8587 14.9744V14.4867C86.8587 13.8899 86.4641 13.5529 85.7019 13.5529C85.0794 13.5529 84.6481 13.7815 84.5243 14.1809H83.4447C83.5587 13.2104 84.4716 12.5879 85.7534 12.5879C87.17 12.5879 87.969 13.2931 87.969 14.4867V18.3474H86.8955V17.5533H86.8073C86.6282 17.8382 86.3767 18.0704 86.0785 18.2262C85.7803 18.3821 85.4461 18.456 85.11 18.4405C84.8728 18.4652 84.6331 18.4399 84.4063 18.3662C84.1794 18.2925 83.9706 18.1722 83.7931 18.0128C83.6157 17.8535 83.4736 17.6588 83.376 17.4412C83.2784 17.2236 83.2275 16.9879 83.2266 16.7494ZM86.8587 16.2666V15.7942L85.4789 15.8824C84.7007 15.9345 84.3478 16.1992 84.3478 16.6973C84.3478 17.2059 84.789 17.5018 85.3956 17.5018C85.5733 17.5198 85.7529 17.5019 85.9236 17.4491C86.0942 17.3962 86.2525 17.3096 86.389 17.1944C86.5255 17.0791 86.6375 16.9376 86.7182 16.7782C86.7988 16.6188 86.8467 16.4448 86.8587 16.2666Z" fill="white"/>
<path d="M89.4346 15.5188C89.4346 13.7333 90.3524 12.6023 91.78 12.6023C92.1332 12.586 92.4836 12.6706 92.7905 12.8461C93.0973 13.0217 93.3478 13.2809 93.5128 13.5936H93.5961V10.4902H94.7113V18.3464H93.6427V17.4537H93.5545C93.3768 17.7643 93.1175 18.0203 92.8047 18.1941C92.492 18.3678 92.1376 18.4527 91.78 18.4396C90.3426 18.4396 89.4346 17.3085 89.4346 15.5188ZM90.5865 15.5188C90.5865 16.7173 91.1514 17.4384 92.0962 17.4384C93.0361 17.4384 93.617 16.7069 93.617 15.5237C93.617 14.3461 93.03 13.6041 92.0962 13.6041C91.1575 13.6041 90.5865 14.3301 90.5865 15.5188Z" fill="white"/>
<path d="M99.3251 15.5197C99.2896 15.1483 99.3321 14.7737 99.4498 14.4197C99.5676 14.0658 99.758 13.7403 100.009 13.4643C100.26 13.1883 100.566 12.9677 100.907 12.8168C101.248 12.6659 101.617 12.5879 101.99 12.5879C102.363 12.5879 102.732 12.6659 103.073 12.8168C103.414 12.9677 103.72 13.1883 103.971 13.4643C104.222 13.7403 104.412 14.0658 104.53 14.4197C104.648 14.7737 104.69 15.1483 104.654 15.5197C104.691 15.8914 104.649 16.2665 104.531 16.6211C104.414 16.9756 104.224 17.3016 103.973 17.5782C103.722 17.8548 103.416 18.0758 103.074 18.2271C102.733 18.3783 102.363 18.4564 101.99 18.4564C101.616 18.4564 101.247 18.3783 100.906 18.2271C100.564 18.0758 100.258 17.8548 100.007 17.5782C99.7561 17.3016 99.5658 16.9756 99.4483 16.6211C99.3309 16.2665 99.2889 15.8914 99.3251 15.5197ZM103.507 15.5197C103.507 14.2949 102.957 13.5786 101.992 13.5786C101.022 13.5786 100.477 14.2949 100.477 15.5197C100.477 16.7543 101.022 17.465 101.992 17.465C102.957 17.465 103.507 16.7494 103.507 15.5197Z" fill="white"/>
<path d="M106.151 12.6967H107.224V13.5943H107.308C107.449 13.2719 107.687 13.0016 107.99 12.8212C108.292 12.6407 108.643 12.5591 108.994 12.5876C109.269 12.5669 109.545 12.6084 109.802 12.7089C110.058 12.8094 110.289 12.9664 110.477 13.1682C110.665 13.37 110.805 13.6115 110.887 13.8748C110.968 14.1381 110.99 14.4165 110.95 14.6892V18.347H109.835V14.9692C109.835 14.0612 109.44 13.6096 108.615 13.6096C108.429 13.6009 108.242 13.6327 108.069 13.7027C107.896 13.7728 107.74 13.8795 107.612 14.0155C107.483 14.1515 107.386 14.3136 107.327 14.4907C107.267 14.6678 107.246 14.8557 107.266 15.0415V18.3471H106.151V12.6967Z" fill="white"/>
<path d="M117.251 11.2891V12.7216H118.475V13.6609H117.251V16.5664C117.251 17.1582 117.495 17.4174 118.05 17.4174C118.192 17.417 118.334 17.4084 118.475 17.3917V18.3206C118.275 18.3564 118.072 18.3754 117.868 18.3775C116.628 18.3775 116.134 17.9413 116.134 16.8519V13.6608H115.237V12.7215H116.134V11.2891H117.251Z" fill="white"/>
<path d="M119.998 10.4902H121.103V13.604H121.192C121.34 13.2786 121.585 13.0069 121.893 12.8257C122.201 12.6446 122.558 12.5629 122.914 12.5918C123.188 12.577 123.461 12.6226 123.715 12.7256C123.969 12.8285 124.197 12.9862 124.383 13.1874C124.569 13.3886 124.708 13.6284 124.791 13.8895C124.873 14.1507 124.897 14.4269 124.86 14.6984V18.3465H123.744V14.9735C123.744 14.0709 123.324 13.6138 122.536 13.6138C122.344 13.5981 122.152 13.6245 121.971 13.691C121.791 13.7576 121.627 13.8628 121.491 13.9993C121.356 14.1357 121.252 14.3001 121.187 14.481C121.121 14.6618 121.096 14.8548 121.113 15.0464V18.3464H119.998L119.998 10.4902Z" fill="white"/>
<path d="M131.362 16.8218C131.211 17.3382 130.883 17.7849 130.435 18.0838C129.987 18.3826 129.449 18.5146 128.914 18.4565C128.542 18.4664 128.172 18.3951 127.83 18.2476C127.488 18.1001 127.182 17.88 126.934 17.6025C126.685 17.325 126.501 16.9968 126.392 16.6406C126.283 16.2845 126.253 15.9089 126.304 15.54C126.254 15.17 126.285 14.7936 126.393 14.4364C126.502 14.0792 126.686 13.7495 126.933 13.4696C127.18 13.1896 127.484 12.9661 127.825 12.814C128.166 12.6619 128.536 12.5848 128.909 12.588C130.481 12.588 131.43 13.6621 131.43 15.4365V15.8256H127.44V15.8881C127.422 16.0954 127.448 16.3041 127.516 16.5008C127.584 16.6975 127.693 16.8779 127.834 17.0303C127.976 17.1827 128.148 17.3038 128.339 17.3859C128.53 17.4679 128.737 17.5091 128.945 17.5068C129.211 17.5388 129.482 17.4908 129.721 17.3688C129.96 17.2468 130.158 17.0564 130.289 16.8218L131.362 16.8218ZM127.44 15.0008H130.294C130.308 14.8112 130.282 14.6207 130.218 14.4416C130.154 14.2625 130.054 14.0988 129.923 13.961C129.792 13.8231 129.633 13.7142 129.458 13.6412C129.282 13.5682 129.093 13.5327 128.903 13.5371C128.71 13.5347 128.519 13.5709 128.34 13.6436C128.161 13.7163 127.999 13.824 127.863 13.9604C127.726 14.0969 127.619 14.2592 127.546 14.4379C127.473 14.6166 127.437 14.808 127.44 15.0008Z" fill="white"/>
</g>
<rect x="0.5" y="0.5" width="148.968" height="49" rx="8.5" stroke="#A6A6A6"/>
<defs>
<clipPath id="clip0_81397_718">
<rect x="1" y="1" width="147.968" height="48" rx="8" fill="white"/>
</clipPath>
</defs>
</svg>
