<svg version="1.0" preserveAspectRatio="xMidYMid meet" height="1000" viewBox="0 0 750 749.999995" zoomAndPan="magnify" width="1000" xmlns:xlink="http://www.w3.org/1999/xlink" xmlns="http://www.w3.org/2000/svg"><defs><clipPath id="0548cc83ea"><path clip-rule="nonzero" d="M 0 90.953125 L 750 90.953125 L 750 720.953125 L 0 720.953125 Z M 0 90.953125"></path></clipPath><clipPath id="ea16f093e8"><path clip-rule="nonzero" d="M 75 128.207031 L 494.25 128.207031 L 494.25 463.457031 L 75 463.457031 Z M 75 128.207031"></path></clipPath><clipPath id="cfb06dc0fa"><path clip-rule="nonzero" d="M 471 255 L 682 255 L 682 434 L 471 434 Z M 471 255"></path></clipPath><clipPath id="e4d036d5bb"><path clip-rule="nonzero" d="M 375 239.378906 L 566.179688 128.019531 L 717.179688 387.246094 L 526 498.609375 Z M 375 239.378906"></path></clipPath><clipPath id="da541be7a8"><path clip-rule="nonzero" d="M 375 239.378906 L 566.179688 128.019531 L 717.179688 387.246094 L 526 498.609375 Z M 375 239.378906"></path></clipPath><clipPath id="003223d464"><path clip-rule="nonzero" d="M 375 239.378906 L 566.179688 128.019531 L 717.179688 387.246094 L 526 498.609375 Z M 375 239.378906"></path></clipPath><clipPath id="ba6e222db4"><path clip-rule="nonzero" d="M 512 222 L 555 222 L 555 254 L 512 254 Z M 512 222"></path></clipPath><clipPath id="c4b883e2f8"><path clip-rule="nonzero" d="M 375 239.378906 L 566.179688 128.019531 L 717.179688 387.246094 L 526 498.609375 Z M 375 239.378906"></path></clipPath><clipPath id="0a0d2de2b3"><path clip-rule="nonzero" d="M 375 239.378906 L 566.179688 128.019531 L 717.179688 387.246094 L 526 498.609375 Z M 375 239.378906"></path></clipPath><clipPath id="d485f8686e"><path clip-rule="nonzero" d="M 375 239.378906 L 566.179688 128.019531 L 717.179688 387.246094 L 526 498.609375 Z M 375 239.378906"></path></clipPath><clipPath id="f141dd9a06"><path clip-rule="nonzero" d="M 413 279 L 456 279 L 456 311 L 413 311 Z M 413 279"></path></clipPath><clipPath id="c65446ddf6"><path clip-rule="nonzero" d="M 375 239.378906 L 566.179688 128.019531 L 717.179688 387.246094 L 526 498.609375 Z M 375 239.378906"></path></clipPath><clipPath id="20a047f15a"><path clip-rule="nonzero" d="M 375 239.378906 L 566.179688 128.019531 L 717.179688 387.246094 L 526 498.609375 Z M 375 239.378906"></path></clipPath><clipPath id="9907b51a8a"><path clip-rule="nonzero" d="M 375 239.378906 L 566.179688 128.019531 L 717.179688 387.246094 L 526 498.609375 Z M 375 239.378906"></path></clipPath><clipPath id="34e3fa93f7"><path clip-rule="nonzero" d="M 441 198 L 472 198 L 472 240 L 441 240 Z M 441 198"></path></clipPath><clipPath id="a1c00b9e66"><path clip-rule="nonzero" d="M 375 239.378906 L 566.179688 128.019531 L 717.179688 387.246094 L 526 498.609375 Z M 375 239.378906"></path></clipPath><clipPath id="b6ae246e42"><path clip-rule="nonzero" d="M 375 239.378906 L 566.179688 128.019531 L 717.179688 387.246094 L 526 498.609375 Z M 375 239.378906"></path></clipPath><clipPath id="26fb508ada"><path clip-rule="nonzero" d="M 375 239.378906 L 566.179688 128.019531 L 717.179688 387.246094 L 526 498.609375 Z M 375 239.378906"></path></clipPath><clipPath id="82b21e6ee8"><path clip-rule="nonzero" d="M 487 191 L 510 191 L 510 233 L 487 233 Z M 487 191"></path></clipPath><clipPath id="b7d18539e5"><path clip-rule="nonzero" d="M 375 239.378906 L 566.179688 128.019531 L 717.179688 387.246094 L 526 498.609375 Z M 375 239.378906"></path></clipPath><clipPath id="4dadeaa017"><path clip-rule="nonzero" d="M 375 239.378906 L 566.179688 128.019531 L 717.179688 387.246094 L 526 498.609375 Z M 375 239.378906"></path></clipPath><clipPath id="52396aea6f"><path clip-rule="nonzero" d="M 375 239.378906 L 566.179688 128.019531 L 717.179688 387.246094 L 526 498.609375 Z M 375 239.378906"></path></clipPath><clipPath id="12fefc5552"><path clip-rule="nonzero" d="M 408 241 L 450 241 L 450 264 L 408 264 Z M 408 241"></path></clipPath><clipPath id="3fe717f838"><path clip-rule="nonzero" d="M 375 239.378906 L 566.179688 128.019531 L 717.179688 387.246094 L 526 498.609375 Z M 375 239.378906"></path></clipPath><clipPath id="1a54f45bd1"><path clip-rule="nonzero" d="M 375 239.378906 L 566.179688 128.019531 L 717.179688 387.246094 L 526 498.609375 Z M 375 239.378906"></path></clipPath><clipPath id="b3faa86138"><path clip-rule="nonzero" d="M 375 239.378906 L 566.179688 128.019531 L 717.179688 387.246094 L 526 498.609375 Z M 375 239.378906"></path></clipPath><clipPath id="be77a8162c"><path clip-rule="nonzero" d="M 458 300 L 481 300 L 481 343 L 458 343 Z M 458 300"></path></clipPath><clipPath id="49115466ac"><path clip-rule="nonzero" d="M 375 239.378906 L 566.179688 128.019531 L 717.179688 387.246094 L 526 498.609375 Z M 375 239.378906"></path></clipPath><clipPath id="24c20cc0a7"><path clip-rule="nonzero" d="M 375 239.378906 L 566.179688 128.019531 L 717.179688 387.246094 L 526 498.609375 Z M 375 239.378906"></path></clipPath><clipPath id="06073eabd7"><path clip-rule="nonzero" d="M 375 239.378906 L 566.179688 128.019531 L 717.179688 387.246094 L 526 498.609375 Z M 375 239.378906"></path></clipPath></defs><g clip-path="url(#0548cc83ea)"><path fill-rule="nonzero" fill-opacity="1" d="M 49.292969 90.953125 L 700.707031 90.953125 C 714.226562 90.953125 726.53125 96.460938 735.425781 105.320312 C 744.320312 114.175781 749.851562 126.425781 749.851562 139.890625 C 749.851562 277.609375 749.851562 415.339844 749.851562 553.0625 C 749.851562 566.488281 744.320312 578.726562 735.425781 587.59375 C 726.53125 596.5 714.226562 602.007812 700.707031 602.007812 L 450.835938 602.007812 L 461.492188 636.585938 L 529.269531 636.585938 C 536.164062 636.585938 541.761719 642.164062 541.761719 649.03125 L 541.761719 708.507812 C 541.761719 715.378906 536.164062 720.953125 529.269531 720.953125 L 214.21875 720.953125 C 207.320312 720.953125 201.722656 715.378906 201.722656 708.507812 L 201.722656 649.03125 C 201.722656 642.164062 207.320312 636.585938 214.21875 636.585938 L 283.925781 636.585938 L 294.589844 602.007812 L 49.292969 602.007812 C 35.777344 602.007812 23.46875 596.5 14.574219 587.640625 C 5.335938 577.578125 0.148438 566.957031 0.148438 553.0625 C 0.148438 415.339844 0.148438 277.609375 0.148438 139.890625 C 0.148438 126.425781 5.679688 114.175781 14.574219 105.320312 C 23.46875 96.460938 35.777344 90.953125 49.292969 90.953125 Z M 226.714844 661.476562 L 226.714844 696.066406 L 516.773438 696.066406 L 516.773438 661.476562 C 420.089844 661.476562 323.398438 661.476562 226.714844 661.476562 Z M 424.78125 602.007812 L 320.640625 602.007812 L 309.988281 636.585938 L 435.4375 636.585938 Z M 367.710938 553.492188 C 360.8125 553.492188 355.214844 547.917969 355.214844 541.046875 C 355.214844 534.179688 360.8125 528.605469 367.710938 528.605469 L 382.289062 528.605469 C 389.1875 528.605469 394.785156 534.179688 394.785156 541.046875 C 394.785156 547.917969 389.1875 553.492188 382.289062 553.492188 Z M 25.140625 480.101562 L 724.859375 480.101562 L 724.859375 139.890625 C 724.859375 133.292969 722.125 127.269531 717.757812 122.917969 C 713.386719 118.566406 707.328125 115.84375 700.707031 115.84375 L 49.292969 115.84375 C 42.671875 115.84375 36.613281 118.566406 32.242188 122.917969 C 27.875 127.269531 25.140625 133.292969 25.140625 139.890625 Z M 724.859375 504.988281 L 25.140625 504.988281 L 25.140625 553.0625 C 25.140625 559.410156 27.648438 565.234375 31.710938 569.542969 C 36.828125 574.355469 42.082031 577.117188 49.292969 577.117188 C 266.429688 577.117188 483.570312 577.117188 700.707031 577.117188 C 707.328125 577.117188 713.386719 574.394531 717.757812 570.042969 C 722.144531 565.714844 724.859375 559.675781 724.859375 553.0625 Z M 724.859375 504.988281" fill="#000000"></path></g><g clip-path="url(#ea16f093e8)"><path fill-rule="nonzero" fill-opacity="1" d="M 487.097656 128.207031 L 305.496094 128.207031 C 305.039062 128.207031 304.582031 128.25 304.132812 128.339844 C 303.683594 128.429688 303.246094 128.5625 302.824219 128.738281 C 302.398438 128.914062 301.996094 129.128906 301.617188 129.382812 C 301.234375 129.636719 300.882812 129.929688 300.558594 130.253906 C 300.234375 130.578125 299.945312 130.929688 299.6875 131.3125 C 299.433594 131.691406 299.21875 132.09375 299.042969 132.519531 C 298.867188 132.941406 298.734375 133.378906 298.644531 133.828125 C 298.558594 134.277344 298.511719 134.734375 298.511719 135.191406 L 298.511719 309.804688 L 144.851562 309.804688 L 144.851562 239.960938 L 165.804688 239.960938 C 166.335938 239.960938 166.859375 239.902344 167.375 239.78125 C 167.894531 239.660156 168.390625 239.484375 168.867188 239.253906 C 169.34375 239.019531 169.789062 238.734375 170.203125 238.402344 C 170.613281 238.066406 170.984375 237.691406 171.3125 237.273438 C 171.636719 236.855469 171.914062 236.40625 172.136719 235.921875 C 172.359375 235.441406 172.527344 234.941406 172.636719 234.421875 C 172.746094 233.902344 172.796875 233.378906 172.789062 232.847656 C 172.777344 232.316406 172.707031 231.792969 172.578125 231.277344 L 161.257812 185.984375 C 160.976562 184.859375 160.601562 183.761719 160.140625 182.699219 C 159.675781 181.636719 159.128906 180.617188 158.496094 179.644531 C 157.863281 178.671875 157.15625 177.757812 156.371094 176.902344 C 155.585938 176.046875 154.738281 175.265625 153.820312 174.550781 C 152.90625 173.835938 151.941406 173.203125 150.921875 172.648438 C 149.902344 172.097656 148.84375 171.628906 147.746094 171.253906 C 146.648438 170.875 145.527344 170.589844 144.382812 170.402344 C 143.238281 170.210938 142.085938 170.113281 140.925781 170.113281 L 134.808594 170.113281 C 133.644531 170.113281 132.492188 170.210938 131.351562 170.402344 C 130.207031 170.589844 129.085938 170.875 127.988281 171.253906 C 126.890625 171.628906 125.832031 172.097656 124.8125 172.648438 C 123.792969 173.203125 122.824219 173.835938 121.910156 174.550781 C 120.996094 175.265625 120.144531 176.046875 119.359375 176.902344 C 118.578125 177.757812 117.867188 178.671875 117.234375 179.644531 C 116.601562 180.617188 116.054688 181.636719 115.59375 182.699219 C 115.128906 183.761719 114.757812 184.859375 114.472656 185.984375 L 103.152344 231.277344 C 103.023438 231.792969 102.953125 232.316406 102.945312 232.847656 C 102.933594 233.378906 102.984375 233.902344 103.09375 234.421875 C 103.203125 234.941406 103.371094 235.441406 103.59375 235.921875 C 103.820312 236.40625 104.09375 236.855469 104.421875 237.273438 C 104.746094 237.691406 105.117188 238.066406 105.53125 238.402344 C 105.941406 238.734375 106.386719 239.019531 106.863281 239.253906 C 107.339844 239.484375 107.839844 239.660156 108.355469 239.78125 C 108.871094 239.902344 109.398438 239.960938 109.925781 239.960938 L 130.882812 239.960938 L 130.882812 309.804688 L 123.898438 309.804688 C 123.210938 309.804688 122.527344 309.839844 121.84375 309.90625 C 121.160156 309.976562 120.480469 310.074219 119.808594 310.210938 C 119.136719 310.34375 118.472656 310.507812 117.8125 310.707031 C 117.15625 310.90625 116.511719 311.140625 115.878906 311.402344 C 115.242188 311.664062 114.625 311.957031 114.019531 312.28125 C 113.414062 312.605469 112.824219 312.957031 112.253906 313.339844 C 111.683594 313.71875 111.132812 314.128906 110.605469 314.5625 C 110.074219 315 109.566406 315.457031 109.082031 315.945312 C 108.59375 316.429688 108.132812 316.9375 107.699219 317.46875 C 107.265625 317.996094 106.855469 318.546875 106.472656 319.117188 C 106.09375 319.691406 105.742188 320.277344 105.417969 320.882812 C 105.09375 321.488281 104.800781 322.109375 104.539062 322.742188 C 104.273438 323.375 104.042969 324.019531 103.84375 324.679688 C 103.644531 325.335938 103.480469 326 103.34375 326.671875 C 103.210938 327.34375 103.109375 328.023438 103.042969 328.707031 C 102.976562 329.390625 102.941406 330.074219 102.941406 330.761719 L 102.941406 365.683594 L 95.957031 365.683594 C 95.273438 365.683594 94.585938 365.71875 93.90625 365.785156 C 93.222656 365.851562 92.542969 365.953125 91.871094 366.085938 C 91.199219 366.21875 90.53125 366.386719 89.875 366.585938 C 89.21875 366.785156 88.574219 367.015625 87.941406 367.277344 C 87.304688 367.542969 86.6875 367.835938 86.082031 368.15625 C 85.476562 368.480469 84.886719 368.832031 84.316406 369.214844 C 83.746094 369.597656 83.195312 370.003906 82.664062 370.441406 C 82.136719 370.875 81.625 371.335938 81.140625 371.820312 C 80.65625 372.304688 80.195312 372.8125 79.761719 373.34375 C 79.324219 373.875 78.917969 374.425781 78.535156 374.996094 C 78.15625 375.566406 77.800781 376.15625 77.480469 376.761719 C 77.15625 377.363281 76.863281 377.984375 76.597656 378.617188 C 76.335938 379.253906 76.105469 379.898438 75.90625 380.554688 C 75.707031 381.210938 75.539062 381.875 75.40625 382.550781 C 75.273438 383.222656 75.171875 383.902344 75.105469 384.582031 C 75.039062 385.265625 75.003906 385.949219 75.003906 386.636719 L 75.003906 456.484375 C 75.003906 456.941406 75.050781 457.394531 75.136719 457.847656 C 75.226562 458.296875 75.359375 458.734375 75.535156 459.15625 C 75.710938 459.582031 75.925781 459.984375 76.179688 460.363281 C 76.4375 460.746094 76.726562 461.097656 77.050781 461.421875 C 77.375 461.746094 77.726562 462.035156 78.109375 462.292969 C 78.488281 462.546875 78.890625 462.761719 79.316406 462.9375 C 79.738281 463.113281 80.175781 463.246094 80.625 463.332031 C 81.078125 463.421875 81.53125 463.46875 81.988281 463.46875 L 123.898438 463.46875 C 124.355469 463.46875 124.808594 463.421875 125.257812 463.332031 C 125.710938 463.246094 126.144531 463.113281 126.570312 462.9375 C 126.992188 462.761719 127.394531 462.546875 127.777344 462.289062 C 128.160156 462.035156 128.511719 461.746094 128.835938 461.421875 C 129.160156 461.097656 129.449219 460.746094 129.703125 460.363281 C 129.960938 459.984375 130.175781 459.582031 130.351562 459.15625 C 130.523438 458.734375 130.65625 458.296875 130.746094 457.847656 C 130.835938 457.394531 130.882812 456.941406 130.882812 456.484375 L 130.882812 449.5 L 298.511719 449.5 L 298.511719 456.484375 C 298.511719 456.941406 298.558594 457.394531 298.644531 457.847656 C 298.734375 458.296875 298.867188 458.734375 299.042969 459.15625 C 299.21875 459.582031 299.433594 459.984375 299.6875 460.363281 C 299.945312 460.746094 300.234375 461.097656 300.558594 461.421875 C 300.882812 461.746094 301.234375 462.035156 301.617188 462.292969 C 301.996094 462.546875 302.398438 462.761719 302.824219 462.9375 C 303.246094 463.113281 303.683594 463.246094 304.132812 463.332031 C 304.582031 463.421875 305.039062 463.46875 305.496094 463.46875 L 487.097656 463.46875 C 487.554688 463.46875 488.007812 463.421875 488.460938 463.332031 C 488.910156 463.246094 489.347656 463.113281 489.769531 462.9375 C 490.195312 462.761719 490.597656 462.546875 490.976562 462.289062 C 491.359375 462.035156 491.710938 461.746094 492.035156 461.421875 C 492.359375 461.097656 492.648438 460.746094 492.90625 460.363281 C 493.160156 459.984375 493.375 459.582031 493.550781 459.15625 C 493.726562 458.734375 493.859375 458.296875 493.949219 457.847656 C 494.035156 457.394531 494.082031 456.941406 494.082031 456.484375 L 494.082031 135.191406 C 494.082031 134.734375 494.035156 134.277344 493.949219 133.828125 C 493.859375 133.378906 493.726562 132.941406 493.550781 132.519531 C 493.375 132.09375 493.160156 131.691406 492.90625 131.3125 C 492.648438 130.929688 492.359375 130.578125 492.035156 130.253906 C 491.710938 129.929688 491.359375 129.636719 490.976562 129.382812 C 490.597656 129.128906 490.195312 128.914062 489.769531 128.738281 C 489.347656 128.5625 488.910156 128.429688 488.460938 128.339844 C 488.007812 128.25 487.554688 128.207031 487.097656 128.207031 Z M 128.023438 189.378906 C 128.214844 188.621094 128.519531 187.917969 128.945312 187.261719 C 129.371094 186.609375 129.890625 186.042969 130.503906 185.5625 C 131.117188 185.082031 131.792969 184.714844 132.53125 184.460938 C 133.269531 184.210938 134.027344 184.082031 134.808594 184.082031 L 140.925781 184.082031 C 141.703125 184.082031 142.464844 184.210938 143.199219 184.460938 C 143.9375 184.714844 144.613281 185.082031 145.226562 185.5625 C 145.84375 186.042969 146.363281 186.609375 146.789062 187.261719 C 147.210938 187.917969 147.519531 188.621094 147.707031 189.378906 L 156.863281 225.992188 L 118.867188 225.992188 Z M 480.113281 142.175781 L 480.113281 379.652344 L 403.28125 379.652344 L 403.28125 142.175781 Z M 389.3125 142.175781 L 389.3125 449.5 L 354.390625 449.5 L 354.390625 386.636719 C 354.390625 385.949219 354.355469 385.265625 354.289062 384.582031 C 354.222656 383.902344 354.121094 383.222656 353.988281 382.550781 C 353.851562 381.875 353.6875 381.210938 353.488281 380.554688 C 353.289062 379.898438 353.058594 379.253906 352.792969 378.617188 C 352.53125 377.984375 352.238281 377.363281 351.914062 376.761719 C 351.589844 376.15625 351.238281 375.566406 350.859375 374.996094 C 350.476562 374.425781 350.066406 373.875 349.632812 373.34375 C 349.199219 372.8125 348.738281 372.304688 348.25 371.820312 C 347.765625 371.335938 347.257812 370.875 346.726562 370.441406 C 346.199219 370.003906 345.648438 369.597656 345.078125 369.214844 C 344.507812 368.832031 343.917969 368.480469 343.3125 368.15625 C 342.707031 367.835938 342.089844 367.542969 341.453125 367.277344 C 340.820312 367.015625 340.175781 366.785156 339.519531 366.585938 C 338.859375 366.386719 338.195312 366.21875 337.523438 366.085938 C 336.851562 365.953125 336.171875 365.851562 335.488281 365.785156 C 334.804688 365.71875 334.121094 365.683594 333.433594 365.683594 L 326.449219 365.683594 L 326.449219 330.761719 C 326.445312 329.6875 326.359375 328.621094 326.191406 327.5625 C 326.023438 326.5 325.773438 325.460938 325.445312 324.4375 C 325.117188 323.417969 324.714844 322.425781 324.234375 321.464844 C 323.753906 320.507812 323.203125 319.589844 322.582031 318.714844 C 321.960938 317.839844 321.273438 317.015625 320.527344 316.246094 C 319.777344 315.476562 318.976562 314.769531 318.121094 314.121094 C 317.261719 313.476562 316.363281 312.898438 315.417969 312.390625 C 314.472656 311.882812 313.492188 311.449219 312.480469 311.089844 L 312.480469 142.175781 Z M 298.511719 386.636719 L 298.511719 393.621094 L 221.679688 393.621094 L 221.679688 323.777344 L 305.496094 323.777344 C 305.957031 323.777344 306.410156 323.820312 306.859375 323.910156 C 307.308594 324 307.746094 324.132812 308.167969 324.308594 C 308.59375 324.484375 308.996094 324.699219 309.378906 324.953125 C 309.757812 325.207031 310.113281 325.496094 310.4375 325.820312 C 310.761719 326.144531 311.050781 326.5 311.304688 326.878906 C 311.558594 327.261719 311.773438 327.664062 311.949219 328.085938 C 312.125 328.511719 312.257812 328.949219 312.347656 329.398438 C 312.4375 329.847656 312.480469 330.300781 312.480469 330.761719 L 312.480469 366.96875 C 311.46875 367.328125 310.492188 367.757812 309.546875 368.265625 C 308.601562 368.777344 307.699219 369.351562 306.84375 370 C 305.984375 370.644531 305.183594 371.355469 304.4375 372.125 C 303.6875 372.894531 303.003906 373.714844 302.382812 374.589844 C 301.761719 375.464844 301.210938 376.382812 300.730469 377.34375 C 300.25 378.300781 299.84375 379.292969 299.515625 380.316406 C 299.1875 381.335938 298.941406 382.378906 298.769531 383.4375 C 298.601562 384.496094 298.515625 385.5625 298.511719 386.636719 Z M 123.898438 323.777344 L 207.710938 323.777344 L 207.710938 393.621094 L 130.882812 393.621094 L 130.882812 386.636719 C 130.875 385.5625 130.789062 384.496094 130.621094 383.4375 C 130.453125 382.378906 130.207031 381.335938 129.878906 380.316406 C 129.550781 379.292969 129.144531 378.300781 128.664062 377.34375 C 128.183594 376.382812 127.632812 375.464844 127.011719 374.589844 C 126.390625 373.714844 125.707031 372.894531 124.957031 372.125 C 124.210938 371.355469 123.40625 370.644531 122.550781 370 C 121.695312 369.351562 120.792969 368.777344 119.847656 368.265625 C 118.902344 367.757812 117.925781 367.328125 116.910156 366.96875 L 116.910156 330.761719 C 116.910156 330.300781 116.957031 329.847656 117.046875 329.398438 C 117.136719 328.949219 117.269531 328.511719 117.445312 328.085938 C 117.621094 327.664062 117.835938 327.261719 118.089844 326.878906 C 118.34375 326.5 118.632812 326.144531 118.957031 325.820312 C 119.28125 325.496094 119.636719 325.207031 120.015625 324.953125 C 120.398438 324.699219 120.800781 324.484375 121.222656 324.308594 C 121.648438 324.132812 122.085938 324 122.535156 323.910156 C 122.984375 323.820312 123.4375 323.777344 123.898438 323.777344 Z M 116.910156 449.5 L 88.972656 449.5 L 88.972656 386.636719 C 88.972656 386.179688 89.019531 385.722656 89.109375 385.273438 C 89.199219 384.824219 89.328125 384.386719 89.503906 383.964844 C 89.679688 383.539062 89.894531 383.136719 90.152344 382.757812 C 90.40625 382.375 90.695312 382.023438 91.019531 381.699219 C 91.34375 381.375 91.695312 381.085938 92.078125 380.828125 C 92.460938 380.574219 92.863281 380.359375 93.285156 380.183594 C 93.710938 380.007812 94.144531 379.875 94.59375 379.785156 C 95.046875 379.699219 95.5 379.652344 95.957031 379.652344 L 109.925781 379.652344 C 110.386719 379.652344 110.839844 379.699219 111.289062 379.785156 C 111.738281 379.875 112.175781 380.007812 112.601562 380.183594 C 113.023438 380.359375 113.425781 380.574219 113.808594 380.828125 C 114.1875 381.085938 114.542969 381.375 114.867188 381.699219 C 115.191406 382.023438 115.480469 382.375 115.734375 382.757812 C 115.988281 383.136719 116.203125 383.539062 116.378906 383.964844 C 116.554688 384.386719 116.6875 384.824219 116.777344 385.273438 C 116.867188 385.722656 116.910156 386.179688 116.910156 386.636719 Z M 130.882812 435.53125 L 130.882812 407.589844 L 298.511719 407.589844 L 298.511719 435.53125 Z M 312.480469 449.5 L 312.480469 386.636719 C 312.480469 386.179688 312.527344 385.722656 312.617188 385.273438 C 312.707031 384.824219 312.835938 384.386719 313.011719 383.964844 C 313.1875 383.539062 313.402344 383.136719 313.660156 382.757812 C 313.914062 382.375 314.203125 382.023438 314.527344 381.699219 C 314.851562 381.375 315.203125 381.085938 315.585938 380.828125 C 315.96875 380.574219 316.371094 380.359375 316.792969 380.183594 C 317.21875 380.007812 317.652344 379.875 318.101562 379.785156 C 318.554688 379.699219 319.007812 379.652344 319.464844 379.652344 L 333.433594 379.652344 C 333.894531 379.652344 334.347656 379.699219 334.796875 379.785156 C 335.246094 379.875 335.683594 380.007812 336.109375 380.183594 C 336.53125 380.359375 336.933594 380.574219 337.316406 380.828125 C 337.695312 381.085938 338.050781 381.375 338.375 381.699219 C 338.699219 382.023438 338.988281 382.375 339.242188 382.757812 C 339.496094 383.136719 339.710938 383.539062 339.886719 383.964844 C 340.0625 384.386719 340.195312 384.824219 340.285156 385.273438 C 340.375 385.722656 340.417969 386.179688 340.417969 386.636719 L 340.417969 449.5 Z M 480.113281 449.5 L 403.28125 449.5 L 403.28125 393.621094 L 480.113281 393.621094 Z M 480.113281 449.5" fill="#545454"></path></g><path fill-rule="nonzero" fill-opacity="1" d="M 424.234375 295.835938 C 424.695312 295.835938 425.148438 295.792969 425.597656 295.703125 C 426.046875 295.613281 426.484375 295.480469 426.90625 295.304688 C 427.332031 295.128906 427.734375 294.914062 428.117188 294.660156 C 428.496094 294.40625 428.851562 294.117188 429.175781 293.792969 C 429.5 293.46875 429.789062 293.113281 430.042969 292.734375 C 430.296875 292.351562 430.511719 291.949219 430.6875 291.527344 C 430.863281 291.101562 430.996094 290.664062 431.085938 290.214844 C 431.175781 289.765625 431.21875 289.3125 431.21875 288.851562 L 431.21875 274.882812 C 431.21875 274.425781 431.175781 273.96875 431.085938 273.519531 C 430.996094 273.070312 430.863281 272.632812 430.6875 272.210938 C 430.511719 271.785156 430.296875 271.382812 430.042969 271.003906 C 429.789062 270.621094 429.5 270.269531 429.175781 269.945312 C 428.851562 269.621094 428.496094 269.332031 428.117188 269.074219 C 427.734375 268.820312 427.332031 268.605469 426.90625 268.429688 C 426.484375 268.253906 426.046875 268.121094 425.597656 268.03125 C 425.148438 267.945312 424.695312 267.898438 424.234375 267.898438 C 423.777344 267.898438 423.324219 267.945312 422.871094 268.03125 C 422.421875 268.121094 421.984375 268.253906 421.5625 268.429688 C 421.140625 268.605469 420.734375 268.820312 420.355469 269.074219 C 419.972656 269.332031 419.621094 269.621094 419.296875 269.945312 C 418.972656 270.269531 418.683594 270.621094 418.429688 271.003906 C 418.171875 271.382812 417.957031 271.785156 417.78125 272.210938 C 417.605469 272.632812 417.472656 273.070312 417.386719 273.519531 C 417.296875 273.96875 417.25 274.425781 417.25 274.882812 L 417.25 288.851562 C 417.25 289.3125 417.296875 289.765625 417.386719 290.214844 C 417.472656 290.664062 417.605469 291.101562 417.78125 291.527344 C 417.957031 291.949219 418.171875 292.351562 418.429688 292.734375 C 418.683594 293.113281 418.972656 293.46875 419.296875 293.792969 C 419.621094 294.117188 419.972656 294.40625 420.355469 294.660156 C 420.734375 294.914062 421.140625 295.128906 421.5625 295.304688 C 421.984375 295.480469 422.421875 295.613281 422.871094 295.703125 C 423.324219 295.792969 423.777344 295.835938 424.234375 295.835938 Z M 424.234375 295.835938" fill="#545454"></path><path fill-rule="nonzero" fill-opacity="1" d="M 368.359375 295.835938 C 368.816406 295.835938 369.269531 295.792969 369.722656 295.703125 C 370.171875 295.613281 370.609375 295.480469 371.03125 295.304688 C 371.453125 295.128906 371.859375 294.914062 372.238281 294.660156 C 372.621094 294.40625 372.972656 294.117188 373.296875 293.792969 C 373.621094 293.46875 373.910156 293.113281 374.164062 292.734375 C 374.421875 292.351562 374.636719 291.949219 374.8125 291.527344 C 374.988281 291.101562 375.121094 290.664062 375.207031 290.214844 C 375.296875 289.765625 375.34375 289.3125 375.34375 288.851562 L 375.34375 274.882812 C 375.34375 274.425781 375.296875 273.96875 375.207031 273.519531 C 375.121094 273.070312 374.988281 272.632812 374.8125 272.210938 C 374.636719 271.785156 374.421875 271.382812 374.164062 271.003906 C 373.910156 270.621094 373.621094 270.269531 373.296875 269.945312 C 372.972656 269.621094 372.621094 269.332031 372.238281 269.074219 C 371.859375 268.820312 371.453125 268.605469 371.03125 268.429688 C 370.609375 268.253906 370.171875 268.121094 369.722656 268.03125 C 369.269531 267.945312 368.816406 267.898438 368.359375 267.898438 C 367.898438 267.898438 367.445312 267.945312 366.996094 268.03125 C 366.546875 268.121094 366.109375 268.253906 365.683594 268.429688 C 365.261719 268.605469 364.859375 268.820312 364.476562 269.074219 C 364.097656 269.332031 363.742188 269.621094 363.417969 269.945312 C 363.09375 270.269531 362.804688 270.621094 362.550781 271.003906 C 362.296875 271.382812 362.082031 271.785156 361.90625 272.210938 C 361.730469 272.632812 361.597656 273.070312 361.507812 273.519531 C 361.417969 273.96875 361.375 274.425781 361.375 274.882812 L 361.375 288.851562 C 361.375 289.3125 361.417969 289.765625 361.507812 290.214844 C 361.597656 290.664062 361.730469 291.101562 361.90625 291.527344 C 362.082031 291.949219 362.296875 292.351562 362.550781 292.734375 C 362.804688 293.113281 363.09375 293.46875 363.417969 293.792969 C 363.742188 294.117188 364.097656 294.40625 364.476562 294.660156 C 364.859375 294.914062 365.261719 295.128906 365.683594 295.304688 C 366.109375 295.480469 366.546875 295.613281 366.996094 295.703125 C 367.445312 295.792969 367.898438 295.835938 368.359375 295.835938 Z M 368.359375 295.835938" fill="#545454"></path><path fill-rule="nonzero" fill-opacity="1" d="M 434.710938 428.546875 L 448.679688 428.546875 C 449.140625 428.546875 449.59375 428.5 450.042969 428.410156 C 450.492188 428.320312 450.929688 428.1875 451.355469 428.011719 C 451.777344 427.835938 452.179688 427.621094 452.5625 427.367188 C 452.941406 427.113281 453.296875 426.824219 453.621094 426.5 C 453.945312 426.175781 454.234375 425.820312 454.488281 425.441406 C 454.742188 425.058594 454.957031 424.65625 455.132812 424.234375 C 455.308594 423.808594 455.441406 423.371094 455.53125 422.921875 C 455.621094 422.472656 455.667969 422.019531 455.667969 421.558594 C 455.667969 421.101562 455.621094 420.648438 455.53125 420.199219 C 455.441406 419.746094 455.308594 419.3125 455.132812 418.886719 C 454.957031 418.464844 454.742188 418.0625 454.488281 417.679688 C 454.234375 417.296875 453.945312 416.945312 453.621094 416.621094 C 453.296875 416.296875 452.941406 416.007812 452.5625 415.753906 C 452.179688 415.5 451.777344 415.28125 451.355469 415.109375 C 450.929688 414.933594 450.492188 414.800781 450.042969 414.710938 C 449.59375 414.621094 449.140625 414.574219 448.679688 414.574219 L 434.710938 414.574219 C 434.253906 414.574219 433.800781 414.621094 433.351562 414.710938 C 432.898438 414.800781 432.464844 414.933594 432.039062 415.109375 C 431.617188 415.28125 431.214844 415.5 430.832031 415.753906 C 430.449219 416.007812 430.097656 416.296875 429.773438 416.621094 C 429.449219 416.945312 429.160156 417.296875 428.90625 417.679688 C 428.648438 418.0625 428.433594 418.464844 428.257812 418.886719 C 428.082031 419.3125 427.953125 419.746094 427.863281 420.199219 C 427.773438 420.648438 427.726562 421.101562 427.726562 421.558594 C 427.726562 422.019531 427.773438 422.472656 427.863281 422.921875 C 427.953125 423.371094 428.082031 423.808594 428.257812 424.234375 C 428.433594 424.65625 428.648438 425.058594 428.90625 425.441406 C 429.160156 425.820312 429.449219 426.175781 429.773438 426.5 C 430.097656 426.824219 430.449219 427.113281 430.832031 427.367188 C 431.214844 427.621094 431.617188 427.835938 432.039062 428.011719 C 432.464844 428.1875 432.898438 428.320312 433.351562 428.410156 C 433.800781 428.5 434.253906 428.546875 434.710938 428.546875 Z M 434.710938 428.546875" fill="#545454"></path><g clip-path="url(#cfb06dc0fa)"><g clip-path="url(#e4d036d5bb)"><g clip-path="url(#da541be7a8)"><g clip-path="url(#003223d464)"><path fill-rule="nonzero" fill-opacity="1" d="M 629.980469 344.703125 C 636.066406 349.53125 642.011719 354.328125 648.046875 359.066406 C 658.109375 367.046875 668.148438 374.984375 678.210938 382.960938 C 682.742188 386.558594 683.125 392.21875 679.519531 396.753906 C 674.308594 403.234375 669.265625 409.796875 664.246094 416.402344 C 659.652344 422.40625 654.539062 423.125 648.617188 418.378906 C 633.3125 406.203125 618.011719 394.027344 602.664062 381.878906 C 602.445312 381.710938 602.207031 381.609375 601.753906 381.339844 C 599.195312 387.167969 596.660156 392.921875 594.121094 398.679688 C 589.824219 408.667969 585.59375 418.671875 581.296875 428.660156 C 579.933594 431.832031 577.421875 433.652344 573.980469 433.875 C 570.46875 434.078125 567.980469 432.261719 566.25 429.289062 C 554.882812 409.773438 543.515625 390.257812 532.191406 370.714844 C 512.417969 336.667969 492.628906 302.695312 472.855469 268.648438 C 470.761719 265.054688 470.773438 261.601562 472.832031 258.800781 C 474.933594 255.972656 478.207031 255.253906 482.351562 256.34375 C 499.09375 260.671875 515.851562 264.929688 532.550781 269.28125 C 568.054688 278.539062 603.609375 287.886719 639.136719 297.191406 C 647.5 299.390625 655.878906 301.515625 664.214844 303.671875 C 669.105469 304.921875 672.089844 307.996094 672.671875 312.46875 C 673.253906 316.941406 671.203125 320.570312 666.714844 323.183594 C 654.691406 330.128906 642.671875 337.070312 630.675781 344.058594 C 630.496094 344.164062 630.328125 344.378906 629.980469 344.703125 Z M 572.859375 410.707031 C 573.070312 410.347656 573.285156 410.101562 573.359375 409.820312 C 578.457031 397.941406 583.488281 386.042969 588.542969 374.1875 C 589.34375 372.292969 590.144531 370.402344 590.945312 368.507812 C 593.667969 362.351562 599.671875 360.8125 604.984375 365.023438 C 621.03125 377.65625 637.03125 390.316406 653.03125 402.972656 C 654.394531 404.082031 655.070312 404.222656 656.167969 402.632812 C 658.40625 399.429688 660.882812 396.324219 663.410156 393.304688 C 664.714844 391.773438 664.507812 391.003906 662.929688 389.726562 C 646.421875 376.707031 630 363.640625 613.511719 350.550781 C 611.984375 349.363281 610.816406 347.964844 610.257812 346.089844 C 608.984375 341.960938 610.613281 338.222656 615.054688 335.632812 C 626.074219 329.214844 637.117188 322.839844 648.183594 316.398438 C 648.714844 316.085938 649.542969 316.078125 649.574219 315.109375 C 597.796875 301.609375 546.0625 288.082031 494.351562 274.601562 C 494.183594 274.820312 494.058594 275.011719 493.910156 275.273438 C 520.230469 320.355469 546.480469 365.417969 572.859375 410.707031 Z M 572.859375 410.707031" fill="#000000"></path></g></g></g></g><g clip-path="url(#ba6e222db4)"><g clip-path="url(#c4b883e2f8)"><g clip-path="url(#0a0d2de2b3)"><g clip-path="url(#d485f8686e)"><path fill-rule="nonzero" fill-opacity="1" d="M 529.742188 231.054688 C 534.1875 228.46875 538.628906 225.878906 543.070312 223.292969 C 546.9375 221.039062 551.285156 222.070312 553.5625 225.675781 C 555.765625 229.144531 554.613281 233.914062 550.839844 236.113281 C 541.757812 241.464844 532.691406 246.742188 523.558594 252.003906 C 519.800781 254.132812 515.390625 252.898438 513.300781 249.308594 C 511.207031 245.714844 512.289062 241.339844 516.039062 239.097656 C 520.566406 236.34375 525.191406 233.765625 529.769531 231.101562 C 529.769531 231.101562 529.769531 231.101562 529.742188 231.054688 Z M 529.742188 231.054688" fill="#000000"></path></g></g></g></g><g clip-path="url(#f141dd9a06)"><g clip-path="url(#c65446ddf6)"><g clip-path="url(#20a047f15a)"><g clip-path="url(#9907b51a8a)"><path fill-rule="nonzero" fill-opacity="1" d="M 430.867188 288.710938 C 435.3125 286.121094 439.753906 283.535156 444.199219 280.945312 C 448.0625 278.695312 452.394531 279.796875 454.589844 283.566406 C 456.636719 287.183594 455.535156 291.628906 451.875 293.820312 C 442.96875 299.066406 433.996094 304.292969 425.039062 309.453125 C 421.058594 311.710938 416.332031 310.542969 414.328125 306.898438 C 412.195312 303.03125 413.453125 298.855469 417.585938 296.449219 C 422 293.816406 426.425781 291.296875 430.867188 288.710938 Z M 430.867188 288.710938" fill="#000000"></path></g></g></g></g><g clip-path="url(#34e3fa93f7)"><g clip-path="url(#a1c00b9e66)"><g clip-path="url(#b6ae246e42)"><g clip-path="url(#26fb508ada)"><path fill-rule="nonzero" fill-opacity="1" d="M 462.53125 214.960938 C 464.933594 219.085938 467.359375 223.257812 469.765625 227.382812 C 472.21875 231.59375 471.316406 236.277344 467.628906 238.425781 C 463.878906 240.671875 459.289062 239.125 456.78125 234.824219 C 451.953125 226.53125 447.144531 218.28125 442.359375 209.960938 C 440.007812 205.921875 440.933594 201.285156 444.484375 199.097656 C 448.164062 196.835938 452.761719 198.195312 455.210938 202.296875 C 457.664062 206.507812 460.121094 210.722656 462.53125 214.960938 C 462.574219 214.9375 462.53125 214.960938 462.53125 214.960938 Z M 462.53125 214.960938" fill="#000000"></path></g></g></g></g><g clip-path="url(#82b21e6ee8)"><g clip-path="url(#b7d18539e5)"><g clip-path="url(#4dadeaa017)"><g clip-path="url(#52396aea6f)"><path fill-rule="nonzero" fill-opacity="1" d="M 498.527344 191.972656 C 501.1875 190.71875 503.957031 190.773438 506.445312 192.589844 C 509.027344 194.472656 510.320312 197.101562 509.503906 200.191406 C 507.164062 209.457031 504.640625 218.710938 502.046875 227.941406 C 501.007812 231.578125 496.722656 233.71875 492.953125 232.765625 C 489.183594 231.8125 486.625 228.132812 487.539062 224.394531 C 489.9375 214.917969 492.496094 205.527344 495.058594 196.132812 C 495.585938 194.28125 496.863281 193 498.527344 191.972656 Z M 498.527344 191.972656" fill="#000000"></path></g></g></g></g><g clip-path="url(#12fefc5552)"><g clip-path="url(#3fe717f838)"><g clip-path="url(#1a54f45bd1)"><g clip-path="url(#b3faa86138)"><path fill-rule="nonzero" fill-opacity="1" d="M 446.222656 262.359375 C 444.511719 263.300781 442.707031 263.578125 440.8125 263.078125 C 432.007812 260.839844 423.234375 258.644531 414.476562 256.378906 C 410.050781 255.214844 407.59375 251 408.730469 246.71875 C 409.824219 242.574219 413.636719 240.53125 418.203125 241.734375 C 426.960938 244 435.742188 246.308594 444.4375 248.667969 C 447.738281 249.535156 449.714844 252.007812 449.898438 255.289062 C 450.164062 258.402344 448.984375 260.871094 446.222656 262.359375 Z M 446.222656 262.359375" fill="#000000"></path></g></g></g></g><g clip-path="url(#be77a8162c)"><g clip-path="url(#49115466ac)"><g clip-path="url(#24c20cc0a7)"><g clip-path="url(#06073eabd7)"><path fill-rule="nonzero" fill-opacity="1" d="M 469.09375 341.054688 C 466.53125 342.371094 463.929688 342.402344 461.570312 340.804688 C 458.925781 339.019531 457.679688 336.476562 458.261719 333.285156 C 458.683594 330.84375 459.457031 328.492188 460.0625 326.058594 C 461.808594 319.457031 463.53125 312.8125 465.28125 306.207031 C 466.476562 301.828125 470.308594 299.417969 474.429688 300.464844 C 478.59375 301.484375 481.003906 305.722656 479.851562 310.078125 C 477.519531 318.742188 475.144531 327.433594 472.742188 336.078125 C 472.230469 338.160156 471.214844 339.996094 469.09375 341.054688 Z M 469.09375 341.054688" fill="#000000"></path></g></g></g></g></svg>