<svg xmlns="http://www.w3.org/2000/svg" xmlns:xlink="http://www.w3.org/1999/xlink" width="1000" zoomAndPan="magnify" viewBox="0 0 750 749.999995" height="1000" preserveAspectRatio="xMidYMid meet" version="1.0"><defs><clipPath id="ee5440801e"><path d="M 0.75 199 L 521.25 199 L 521.25 554.421875 L 0.75 554.421875 Z M 0.75 199 " clip-rule="nonzero"/></clipPath></defs><g clip-path="url(#ee5440801e)"><path fill="#000000" d="M 494.71875 409.335938 C 480.101562 409.335938 468.203125 421.242188 468.203125 435.875 L 468.203125 458.730469 L 383.378906 458.730469 L 383.378906 395.023438 C 383.378906 370.554688 378.765625 347.136719 370.367188 325.605469 L 385.808594 310.144531 C 398.84375 297.101562 398.832031 275.875 385.808594 262.832031 L 332.121094 209.09375 C 319.089844 196.050781 297.875 196.050781 284.84375 209.09375 L 272.601562 221.34375 C 248.113281 209.921875 220.832031 203.519531 192.070312 203.519531 C 86.570312 203.53125 0.75 289.429688 0.75 395.023438 L 0.75 496.359375 C 0.75 528.421875 26.867188 554.292969 58.632812 554.292969 L 491.5 554.292969 C 507.898438 554.292969 521.234375 540.941406 521.234375 524.53125 L 521.234375 435.875 C 521.242188 421.242188 509.34375 409.335938 494.71875 409.335938 Z M 192.070312 451.734375 C 156.25 451.734375 127.203125 422.664062 127.203125 386.804688 C 127.203125 350.941406 156.242188 321.886719 192.070312 321.886719 C 227.886719 321.886719 256.929688 350.949219 256.929688 386.804688 C 256.929688 422.660156 227.886719 451.734375 192.070312 451.734375 Z M 468.203125 539.03125 L 364.59375 539.03125 C 376.132812 528.425781 383.378906 513.222656 383.378906 496.351562 L 383.378906 473.988281 L 401.007812 473.988281 L 401.007812 490.269531 C 401.007812 494.484375 404.414062 497.902344 408.632812 497.902344 C 412.84375 497.902344 416.257812 494.484375 416.257812 490.269531 L 416.257812 473.988281 L 433.4375 473.988281 L 433.4375 490.269531 C 433.4375 494.484375 436.855469 497.902344 441.0625 497.902344 C 445.273438 497.902344 448.6875 494.484375 448.6875 490.269531 L 448.6875 473.988281 L 468.210938 473.988281 L 468.210938 539.03125 Z M 505.992188 524.53125 C 505.992188 532.527344 499.492188 539.03125 491.503906 539.03125 L 483.453125 539.03125 L 483.453125 435.875 C 483.453125 429.660156 488.507812 424.601562 494.71875 424.601562 C 500.941406 424.601562 505.992188 429.660156 505.992188 435.875 Z M 505.992188 524.53125 " fill-opacity="1" fill-rule="nonzero"/></g></svg>